<?xml version="1.0" encoding="UTF-8" standalone="no"?>
<!DOCTYPE svg PUBLIC "-//W3C//DTD SVG 1.1//EN"
"http://www.w3.org/Graphics/SVG/1.1/DTD/svg11.dtd">
<svg viewBox="0 0 935 1210" version="1.1" xmlns="http://www.w3.org/2000/svg" xmlns:xlink="http://www.w3.org/1999/xlink">
<defs>
<clipPath id="c0_525"><path d="M111.1,249.5V114.2H239.7V249.5Z"/></clipPath>
<clipPath id="c1_525"><path d="M240.7,249.5V114.2H457.3V249.5Z"/></clipPath>
<clipPath id="c2_525"><path d="M458.4,249.5V114.2h329V249.5Z"/></clipPath>
<clipPath id="c3_525"><path d="M111.1,392V256.7H239.7V392Z"/></clipPath>
<clipPath id="c4_525"><path d="M240.7,392V256.7H457.3V392Z"/></clipPath>
<clipPath id="c5_525"><path d="M458.4,392V256.7h329V392Z"/></clipPath>
<clipPath id="c6_525"><path d="M240.7,534.7V399.4H457.3V534.7Z"/></clipPath>
<clipPath id="c7_525"><path d="M111.1,951.3V866.7h93v84.6Z"/></clipPath>
<clipPath id="c8_525"><path d="M205.2,1048.5V866.7H334.7v181.8Z"/></clipPath>
<clipPath id="c9_525"><path d="M335.8,951.3V866.7H787.4v84.6Z"/></clipPath>
<clipPath id="ca_525"><path d="M118.1,189.1V131H232.6v58.1Z"/></clipPath>
<clipPath id="cb_525"><path d="M146.3,331.6v-58h58.1v58Z"/></clipPath>
<clipPath id="cc_525"><path d="M146.3,472.6V416.1h58.1v56.5Z"/></clipPath>
<clipPath id="cd_525"><path d="M126.3,836.7V774.1h62.6v62.6Z"/></clipPath>
<clipPath id="ce_525"><path d="M120.9,927.8V883.5h73.4v44.3Z"/></clipPath>
<clipPath id="cf_525"><path d="M120.9,1025.6V975.2h73.4v50.4Z"/></clipPath>
<style type="text/css"><![CDATA[
.g0_525{
fill: #C0C0C0;
fill-opacity: 0.50196;
}
.g1_525{
fill: #FFFFFF;
}
.g2_525{
fill: #A2A9B1;
}
.g3_525{
fill: #EAECF0;
}
]]></style>
</defs>
<path fill-rule="evenodd" d="M167,938.7C151.6,923.3,136.1,907.8,120.7,892.4c3.1,-3.2,6.3,-6.3,9.4,-9.5c14.6,7.3,29.4,14.3,44.1,21.6c4,2.1,7.1,3.6,9.1,4.6c-1.2,-2.2,-2.8,-5.5,-4.9,-9.9c-7.1,-14.5,-13.9,-29.1,-20.9,-43.6c2.8,-2.9,5.6,-5.7,8.4,-8.5c15.5,15.5,30.9,30.9,46.4,46.4c-2,2,-4.1,4,-6.1,6C193.3,886.6,180.4,873.7,167.4,860.7c8.5,17.5,16.6,35.1,25,52.6c-1.8,1.9,-3.7,3.8,-5.6,5.7c-17.7,-8.7,-35.5,-17.1,-53.2,-25.8c13.2,13.2,26.3,26.3,39.5,39.5c-2,2,-4.1,4,-6.1,6Z" class="g0_525"/>
<path fill-rule="evenodd" d="M235.6,870.1C226.1,848.7,217,827,207.5,805.6c2.2,-2.3,4.5,-4.5,6.7,-6.8c21.9,9.2,43.9,17.8,65.8,27c-2.4,2.3,-4.8,4.7,-7.2,7.1c-6.5,-2.9,-13,-5.6,-19.5,-8.5c-6.6,6.6,-13.3,13.2,-19.9,19.8c3,6.4,5.9,12.9,8.9,19.3c-2.3,2.2,-4.5,4.4,-6.7,6.6Zm-5.3,-32.7c5.3,-5.3,10.7,-10.7,16,-16.1c-5.9,-2.6,-11.9,-5.2,-17.8,-7.8c-5.4,-2.4,-9.7,-4.5,-12.9,-6.3c2.3,3.6,4.4,7.4,6.3,11.4c2.8,6.3,5.5,12.6,8.4,18.8Z" class="g0_525"/>
<path fill-rule="evenodd" d="M303.2,802.5C287.8,787.1,272.3,771.6,256.9,756.2c3.1,-3.2,6.3,-6.3,9.4,-9.5c14.6,7.3,29.4,14.3,44,21.6c4.1,2.1,7.2,3.6,9.2,4.6c-1.2,-2.2,-2.8,-5.5,-4.9,-9.9c-7.1,-14.5,-13.9,-29.1,-20.9,-43.6c2.8,-2.8,5.6,-5.7,8.4,-8.5c15.5,15.5,30.9,30.9,46.4,46.4c-2,2,-4.1,4,-6.1,6C329.5,750.4,316.6,737.5,303.6,724.5c8.5,17.5,16.6,35.1,25,52.6c-1.8,1.9,-3.7,3.8,-5.6,5.7C305.3,774.1,287.5,765.7,269.8,757c13.2,13.2,26.3,26.3,39.5,39.5c-2,2,-4.1,4,-6.1,6Z" class="g0_525"/>
<path fill-rule="evenodd" d="M338.9,733.3c-6.2,-6.3,-9,-12.6,-8.5,-19.2c.4,-5.4,2.8,-10.2,7.1,-14.5c4.7,-4.7,10.1,-7.1,16.1,-7c6,0,11.7,2.7,17,8c4.3,4.3,7,8.4,8.2,12.2c1.2,3.8,1.1,7.6,0,11.5c-1.1,4,-3.2,7.4,-6.3,10.4c-4.8,4.8,-10.2,7.3,-16.1,7.1c-6,0,-11.8,-2.9,-17.5,-8.5Zm6,-6c4.3,4.3,8.5,6.5,12.5,6.8c4.1,.2,7.6,-1.1,10.5,-4.1c2.9,-2.8,4.3,-6.4,4,-10.4c-.3,-4.1,-2.6,-8.3,-7,-12.7c-4.1,-4.2,-8.3,-6.3,-12.3,-6.6c-4.1,-.2,-7.6,1.1,-10.4,4c-2.9,2.9,-4.3,6.4,-4.1,10.5c.3,4,2.5,8.2,6.8,12.5Z" class="g0_525"/>
<path fill-rule="evenodd" d="M394.7,711.1C379.2,695.6,363.8,680.2,348.3,664.7c2,-2,3.9,-3.9,5.9,-5.8c5.5,5.5,11,11.1,16.6,16.6c-.4,-5.8,1.5,-10.8,5.7,-14.9c2.5,-2.6,5.2,-4.3,8.1,-5.2c2.8,-.9,5.5,-.9,8.1,.1c2.5,.9,5.4,3,8.7,6.3c7.1,7.1,14.2,14.2,21.3,21.3c-2,1.9,-3.9,3.9,-5.8,5.8c-7.1,-7.1,-14.2,-14.2,-21.3,-21.3c-2.9,-2.8,-5.6,-4.3,-8.1,-4.3c-2.6,-.1,-5,1.1,-7.3,3.4c-1.7,1.7,-2.9,3.8,-3.6,6.1c-.6,2.5,-.5,4.8,.3,6.9c.9,2.1,2.6,4.5,5.2,7.2c6.2,6.1,12.3,12.2,18.4,18.3c-1.9,2,-3.9,3.9,-5.8,5.9Z" class="g0_525"/>
<path fill-rule="evenodd" d="M391.8,634.4c-2.2,-2.2,-4.4,-4.4,-6.6,-6.6c2,-1.9,3.9,-3.9,5.9,-5.8c2.1,2.2,4.3,4.4,6.5,6.5c-2,2,-3.9,3.9,-5.8,5.9Zm39.8,39.8C420.4,663,409.2,651.8,398,640.6c1.9,-1.9,3.9,-3.9,5.8,-5.8c11.2,11.2,22.4,22.4,33.6,33.5c-1.9,2,-3.9,3.9,-5.8,5.9Z" class="g0_525"/>
<path fill-rule="evenodd" d="M459,625.2c2.2,-1.8,4.5,-3.6,6.7,-5.3c2.5,4.3,3.4,8.8,2.7,13.2c-.6,4.5,-3,8.7,-6.9,12.7c-5.1,5,-10.5,7.6,-16.5,7.4c-6,-.1,-11.7,-2.8,-17.2,-8.3c-5.6,-5.6,-8.5,-11.5,-8.7,-17.6c-.2,-6.1,2.2,-11.5,6.9,-16.3c4.6,-4.5,9.9,-6.8,15.9,-6.6c6,.2,11.7,3,17.2,8.5c.4,.3,.9,.9,1.5,1.5c-8.5,8.6,-17.1,17.1,-25.6,25.7c3.9,3.4,7.8,5.2,11.7,5.2c3.9,.1,7.2,-1.3,10.1,-4.2c2.1,-2.1,3.4,-4.5,3.8,-7.1c.4,-2.6,-.1,-5.6,-1.6,-8.8Zm-28.3,9.9c6.4,-6.4,12.7,-12.8,19.1,-19.2c-3,-2.6,-5.9,-3.9,-8.5,-4.2c-4,-.3,-7.6,1,-10.5,3.9c-2.7,2.7,-4.1,5.9,-4.1,9.4c-.1,3.6,1.2,6.9,4,10.1Z" class="g0_525"/>
<path fill-rule="evenodd" d="M483.1,622.6C471.9,611.4,460.7,600.2,449.5,589.1c1.8,-1.8,3.5,-3.5,5.2,-5.3c1.6,1.6,3.2,3.2,4.7,4.7c-.5,-2.6,-.4,-5.4,.4,-8.2c.7,-2.8,2.3,-5.3,4.6,-7.6c2.6,-2.6,5.1,-4.2,7.8,-4.7c2.7,-.6,5.2,-.4,7.8,.8c-1.3,-6.6,.3,-12.1,4.7,-16.4c3.4,-3.4,7,-5.2,10.6,-5.2c3.7,.1,7.5,2,11.3,5.8c7.7,7.7,15.4,15.4,23.1,23.1c-2,1.9,-3.9,3.8,-5.8,5.8c-7.1,-7.1,-14.1,-14.1,-21.2,-21.2c-2.3,-2.3,-4.1,-3.7,-5.5,-4.4c-1.3,-.6,-2.8,-.7,-4.4,-.3c-1.6,.4,-3.1,1.3,-4.4,2.6c-2.5,2.4,-3.7,5.2,-3.7,8.3c0,3.2,1.7,6.5,5.1,10c6.5,6.5,13.1,13,19.5,19.5c-1.9,1.9,-3.8,3.9,-5.8,5.8C496.3,595,489,587.7,481.7,580.4c-2.5,-2.5,-4.9,-3.9,-7.1,-4.3c-2.2,-.3,-4.4,.6,-6.6,2.8c-1.6,1.7,-2.7,3.5,-3.2,5.8c-.5,2.2,-.4,4.5,.6,6.7c1,2.2,3,4.9,6.1,8c5.8,5.8,11.6,11.6,17.4,17.4c-1.9,2,-3.8,3.9,-5.8,5.8Z" class="g0_525"/>
<path fill-rule="evenodd" d="M551,533.1c2.3,-1.7,4.5,-3.5,6.8,-5.3c2.5,4.4,3.3,8.8,2.7,13.3c-.6,4.5,-3,8.7,-7,12.7c-5,5,-10.5,7.5,-16.5,7.4c-5.9,-.2,-11.7,-2.8,-17.1,-8.3c-5.7,-5.7,-8.5,-11.5,-8.7,-17.6c-.2,-6.1,2.1,-11.5,6.9,-16.3c4.6,-4.6,9.8,-6.9,15.8,-6.7c6,.2,11.7,3,17.3,8.6c.3,.3,.8,.8,1.5,1.5c-8.6,8.5,-17.1,17.1,-25.6,25.6c3.9,3.5,7.8,5.2,11.6,5.3c3.9,.1,7.3,-1.4,10.2,-4.2c2.1,-2.2,3.4,-4.5,3.8,-7.2c.4,-2.6,-.1,-5.5,-1.7,-8.8ZM522.7,543c6.4,-6.4,12.8,-12.8,19.2,-19.2c-3.1,-2.5,-6,-3.9,-8.6,-4.1c-4,-.4,-7.5,1,-10.5,3.9c-2.7,2.7,-4.1,5.8,-4.1,9.4c-.1,3.6,1.2,6.9,4,10Z" class="g0_525"/>
<path fill-rule="evenodd" d="M575.1,530.6C564,519.4,552.8,508.2,541.6,497c1.7,-1.7,3.5,-3.5,5.2,-5.2c1.6,1.6,3.2,3.2,4.8,4.8c-1.2,-6.3,.6,-11.8,5.4,-16.5c2.1,-2.1,4.3,-3.7,6.8,-4.7c2.4,-.9,4.7,-1.3,6.7,-1c2.1,.3,4.1,1.2,6.1,2.4c1.2,.8,3.2,2.6,5.8,5.2c6.9,6.9,13.8,13.8,20.7,20.7c-2,1.9,-3.9,3.9,-5.8,5.8c-6.8,-6.8,-13.7,-13.6,-20.5,-20.4c-2.3,-2.3,-4.3,-3.8,-5.9,-4.6c-1.6,-.7,-3.3,-.7,-5.1,-.3c-1.9,.5,-3.5,1.5,-5.1,3c-2.5,2.5,-3.9,5.4,-4.1,8.8c-.2,3.3,1.7,7.1,6,11.4c6.2,6.2,12.3,12.3,18.4,18.4c-2,1.9,-3.9,3.9,-5.9,5.8Z" class="g0_525"/>
<path fill-rule="evenodd" d="M643.2,462.5C629.6,448.9,616,435.3,602.3,421.6c-5.2,5.2,-10.4,10.5,-15.6,15.7c-1.8,-1.8,-3.7,-3.7,-5.5,-5.5c12.6,-12.5,25.1,-25.1,37.6,-37.6c1.8,1.8,3.7,3.7,5.5,5.5c-5.2,5.2,-10.5,10.4,-15.7,15.7c13.6,13.6,27.3,27.2,40.9,40.9c-2.1,2,-4.2,4.1,-6.3,6.2Z" class="g0_525"/>
<path fill-rule="evenodd" d="M689.1,408.3c-.3,4,-1.1,7.3,-2.4,10c-1.2,2.8,-3,5.3,-5.3,7.6c-3.8,3.8,-7.6,5.7,-11.4,5.9c-3.8,.2,-7.1,-1,-10,-3.8c-1.6,-1.6,-2.7,-3.6,-3.3,-5.7c-.6,-2.1,-.7,-4.2,-.3,-6.3c.4,-2,1.2,-4,2.3,-6c.9,-1.4,2.4,-3.4,4.4,-6c4.1,-5.3,7,-9.4,8.4,-12.4c-.8,-.8,-1.2,-1.3,-1.5,-1.5c-2.3,-2.3,-4.5,-3.4,-6.5,-3.3c-2.8,.2,-5.6,1.8,-8.6,4.8c-2.7,2.7,-4.3,5.2,-4.6,7.4c-.4,2.3,.3,4.9,2.1,7.9c-2.2,1.6,-4.3,3.3,-6.5,4.9C644,409,643,406.2,642.7,403.5c-.3,-2.7,.3,-5.5,1.7,-8.5c1.5,-3.1,3.7,-6,6.7,-9c2.9,-2.9,5.6,-5,8.1,-6.1c2.5,-1.2,4.7,-1.7,6.6,-1.5c1.9,.2,3.8,.8,5.7,2c1.2,.8,3,2.5,5.6,5c2.5,2.5,5,5,7.5,7.6c5.3,5.3,8.8,8.5,10.4,9.6c1.7,1.2,3.5,2,5.5,2.6c-2,2,-4,4.1,-6,6.1c-1.8,-.6,-3.6,-1.6,-5.4,-3ZM676,396.1c-1.3,3,-3.8,6.8,-7.4,11.6c-2,2.8,-3.4,4.8,-3.9,6.3c-.6,1.4,-.8,2.8,-.5,4.1c.3,1.4,.9,2.5,1.9,3.5c1.5,1.5,3.4,2.2,5.6,2c2.2,-.1,4.4,-1.3,6.6,-3.6c2.3,-2.2,3.8,-4.7,4.6,-7.4c.8,-2.7,.8,-5.3,-.1,-7.8c-.7,-1.9,-2.3,-4.1,-4.8,-6.6c-.7,-.7,-1.3,-1.4,-2,-2.1Z" class="g0_525"/>
<path fill-rule="evenodd" d="M707.7,398C696.5,386.8,685.3,375.7,674.1,364.5c1.8,-1.8,3.5,-3.5,5.3,-5.3c1.6,1.6,3.2,3.2,4.8,4.8c-1.3,-6.2,.6,-11.7,5.4,-16.5c2,-2.1,4.3,-3.6,6.8,-4.6c2.4,-1,4.7,-1.4,6.7,-1c2.1,.3,4.1,1.1,6,2.4c1.3,.8,3.3,2.5,5.9,5.2c6.9,6.8,13.8,13.7,20.6,20.6c-1.9,1.9,-3.8,3.9,-5.8,5.8C723,369.1,716.2,362.3,709.4,355.5c-2.3,-2.3,-4.3,-3.8,-5.9,-4.5c-1.6,-.7,-3.3,-.8,-5.2,-.4c-1.8,.5,-3.5,1.5,-5,3.1c-2.5,2.5,-3.9,5.4,-4.1,8.7c-.3,3.4,1.7,7.2,6,11.5c6.1,6.1,12.2,12.2,18.3,18.3c-1.9,1.9,-3.8,3.9,-5.8,5.8Z" class="g0_525"/>
<path fill-rule="evenodd" d="M704.8,321.3c-2.2,-2.1,-4.4,-4.3,-6.5,-6.5c1.9,-2,3.8,-3.9,5.8,-5.8c2.1,2.1,4.3,4.3,6.5,6.5c-1.9,2,-3.9,3.9,-5.8,5.8Zm39.8,39.9C733.4,350,722.2,338.8,711,327.6c2,-2,3.9,-3.9,5.8,-5.9c11.2,11.2,22.4,22.4,33.6,33.6c-1.9,2,-3.9,3.9,-5.8,5.9Z" class="g0_525"/>
<path fill-rule="evenodd" d="M759.3,346.5C748.1,335.3,736.9,324.1,725.7,312.9c1.8,-1.8,3.5,-3.5,5.2,-5.2c1.6,1.5,3.2,3.1,4.7,4.7c-.6,-2.7,-.4,-5.5,.3,-8.3c.8,-2.8,2.4,-5.3,4.7,-7.6c2.5,-2.6,5.1,-4.2,7.8,-4.7c2.7,-.6,5.2,-.3,7.8,.9c-1.3,-6.7,.3,-12.2,4.7,-16.5c3.4,-3.4,6.9,-5.2,10.6,-5.1c3.7,0,7.5,1.9,11.3,5.7c7.7,7.7,15.4,15.4,23,23.1c-1.9,1.9,-3.8,3.9,-5.7,5.8C793,298.6,786,291.6,778.9,284.5c-2.3,-2.2,-4.1,-3.7,-5.5,-4.3c-1.4,-.6,-2.9,-.8,-4.5,-.4c-1.6,.4,-3,1.3,-4.4,2.6c-2.4,2.4,-3.6,5.2,-3.6,8.4c0,3.1,1.7,6.5,5.1,9.9c6.5,6.5,13,13,19.5,19.5c-1.9,2,-3.9,3.9,-5.8,5.8c-7.3,-7.2,-14.5,-14.5,-21.8,-21.8c-2.5,-2.5,-4.9,-3.9,-7.1,-4.2c-2.2,-.4,-4.4,.6,-6.6,2.7c-1.6,1.7,-2.7,3.6,-3.2,5.8c-.6,2.3,-.4,4.5,.6,6.8c1,2.2,3,4.8,6.1,7.9c5.8,5.8,11.6,11.6,17.4,17.4c-1.9,2,-3.9,3.9,-5.8,5.9Z" class="g0_525"/>
<path fill-rule="evenodd" d="M111.1,252.7H239.7V111.1H111.1V252.7Z" class="g1_525"/>
<path clip-path="url(#c0_525)" fill-rule="evenodd" d="M116.8,211.8H234V114.2H116.8v97.6Z" class="g1_525"/>
<path fill-rule="evenodd" d="M240.7,252.7H457.3V111.1H240.7V252.7Z" class="g1_525"/>
<path clip-path="url(#c1_525)" fill-rule="evenodd" d="M246.2,173.3H451.8V114.2H246.2v59.1Z" class="g1_525"/>
<path fill-rule="evenodd" d="M458.4,252.7h329V111.1h-329V252.7Z" class="g1_525"/>
<path clip-path="url(#c2_525)" fill-rule="evenodd" d="M463.9,156.4h318V114.2h-318v42.2Z" class="g1_525"/>
<path fill-rule="evenodd" d="M463.9,181.9h318V156.4h-318v25.5Z" class="g1_525"/>
<path fill-rule="evenodd" d="M463.9,207.4h318V181.9h-318v25.5Z" class="g1_525"/>
<path fill-rule="evenodd" d="M463.9,249.5h318V207.4h-318v42.1Z" class="g1_525"/>
<path fill-rule="evenodd" d="M110,114.2h1.1V110H110v4.2Z" class="g2_525"/>
<path fill-rule="evenodd" d="M110,111.1h1.1V110H110v1.1Z" class="g2_525"/>
<path fill-rule="evenodd" d="M111.1,111.1H239.7V110H111.1v1.1Z" class="g2_525"/>
<path fill-rule="evenodd" d="M111.1,114.2H239.7v-3.1H111.1v3.1Z" class="g1_525"/>
<path fill-rule="evenodd" d="M239.6,114.2h1.1v-3.1h-1.1v3.1Z" class="g2_525"/>
<path fill-rule="evenodd" d="M239.6,111.1h1.1V110h-1.1v1.1Z" class="g2_525"/>
<path fill-rule="evenodd" d="M240.7,111.1H457.3V110H240.7v1.1Z" class="g2_525"/>
<path fill-rule="evenodd" d="M240.7,114.2H457.3v-3.1H240.7v3.1Z" class="g1_525"/>
<path fill-rule="evenodd" d="M457.3,114.2h1.1v-3.1h-1.1v3.1Z" class="g2_525"/>
<path fill-rule="evenodd" d="M457.3,111.1h1.1V110h-1.1v1.1Z" class="g2_525"/>
<path fill-rule="evenodd" d="M458.4,111.1h329V110h-329v1.1Z" class="g2_525"/>
<path fill-rule="evenodd" d="M458.4,114.2h329v-3.1h-329v3.1Z" class="g1_525"/>
<path fill-rule="evenodd" d="M787.4,114.2h1.1V110h-1.1v4.2Z" class="g2_525"/>
<path fill-rule="evenodd" d="M787.4,111.1h1.1V110h-1.1v1.1Z" class="g2_525"/>
<path fill-rule="evenodd" d="M110.8,252.7H240v-3.2H110.8v3.2Z" class="g1_525"/>
<path fill-rule="evenodd" d="M110,252.7h1.1V114.2H110V252.7Z" class="g2_525"/>
<path fill-rule="evenodd" d="M240.2,252.7H457.9v-3.2H240.2v3.2Z" class="g1_525"/>
<path fill-rule="evenodd" d="M239.6,252.7h1.1V114.2h-1.1V252.7Z" class="g2_525"/>
<path fill-rule="evenodd" d="M457.9,252.7h330v-3.2h-330v3.2Z" class="g1_525"/>
<path fill-rule="evenodd" d="M457.3,252.7h1.1V114.2h-1.1V252.7Z" class="g2_525"/>
<path fill-rule="evenodd" d="M787.4,252.7h1.1V114.2h-1.1V252.7Z" class="g2_525"/>
<path fill-rule="evenodd" d="M111.1,395.2H239.7V253.6H111.1V395.2Z" class="g1_525"/>
<path clip-path="url(#c3_525)" fill-rule="evenodd" d="M116.8,354.2H234V256.7H116.8v97.5Z" class="g1_525"/>
<path fill-rule="evenodd" d="M240.7,395.2H457.3V253.6H240.7V395.2Z" class="g1_525"/>
<path clip-path="url(#c4_525)" fill-rule="evenodd" d="M246.2,315.7H451.8v-59H246.2v59Z" class="g1_525"/>
<path fill-rule="evenodd" d="M458.4,395.2h329V253.6h-329V395.2Z" class="g1_525"/>
<path clip-path="url(#c5_525)" fill-rule="evenodd" d="M463.9,299h318V256.7h-318V299Z" class="g1_525"/>
<path fill-rule="evenodd" d="M463.9,324.3h318V299h-318v25.3Z" class="g1_525"/>
<path fill-rule="evenodd" d="M463.9,349.8h318V324.3h-318v25.5Z" class="g1_525"/>
<path fill-rule="evenodd" d="M463.9,392h318V349.8h-318V392Z" class="g1_525"/>
<path fill-rule="evenodd" d="M110,256.9h1.1v-4.2H110v4.2Z" class="g2_525"/>
<path fill-rule="evenodd" d="M111.1,253.8H239.7v-1.1H111.1v1.1Z" class="g2_525"/>
<path fill-rule="evenodd" d="M111.1,256.9H239.7v-3.1H111.1v3.1Z" class="g1_525"/>
<path fill-rule="evenodd" d="M239.6,256.9h1.1v-4.2h-1.1v4.2Z" class="g2_525"/>
<path fill-rule="evenodd" d="M240.7,253.8H457.3v-1.1H240.7v1.1Z" class="g2_525"/>
<path fill-rule="evenodd" d="M240.7,256.9H457.3v-3.1H240.7v3.1Z" class="g1_525"/>
<path fill-rule="evenodd" d="M457.3,256.9h1.1v-4.2h-1.1v4.2Z" class="g2_525"/>
<path fill-rule="evenodd" d="M458.4,253.8h329v-1.1h-329v1.1Z" class="g2_525"/>
<path fill-rule="evenodd" d="M458.4,256.9h329v-3.1h-329v3.1Z" class="g1_525"/>
<path fill-rule="evenodd" d="M787.4,256.9h1.1v-4.2h-1.1v4.2Z" class="g2_525"/>
<path fill-rule="evenodd" d="M110.8,395.2H240V392H110.8v3.2Z" class="g1_525"/>
<path fill-rule="evenodd" d="M110,395.2h1.1V256.9H110V395.2Z" class="g2_525"/>
<path fill-rule="evenodd" d="M240.2,395.2H457.9V392H240.2v3.2Z" class="g1_525"/>
<path fill-rule="evenodd" d="M239.6,395.2h1.1V256.9h-1.1V395.2Z" class="g2_525"/>
<path fill-rule="evenodd" d="M457.9,395.2h330V392h-330v3.2Z" class="g1_525"/>
<path fill-rule="evenodd" d="M457.3,395.2h1.1V256.9h-1.1V395.2Z" class="g2_525"/>
<path fill-rule="evenodd" d="M787.4,395.2h1.1V256.9h-1.1V395.2Z" class="g2_525"/>
<path fill-rule="evenodd" d="M111.1,537.8H239.7V396.3H111.1V537.8Z" class="g1_525"/>
<path fill-rule="evenodd" d="M116.8,495.4H234v-96H116.8v96Z" class="g1_525"/>
<path fill-rule="evenodd" d="M240.7,537.8H457.3V396.3H240.7V537.8Z" class="g1_525"/>
<path clip-path="url(#c6_525)" fill-rule="evenodd" d="M246.2,458.4H451.8v-59H246.2v59Z" class="g1_525"/>
<path fill-rule="evenodd" d="M458.4,537.8h329V396.3h-329V537.8Z" class="g1_525"/>
<path fill-rule="evenodd" d="M463.9,441.5h318V399.4h-318v42.1Z" class="g1_525"/>
<path fill-rule="evenodd" d="M463.9,467h318V441.5h-318V467Z" class="g1_525"/>
<path fill-rule="evenodd" d="M463.9,492.5h318V467h-318v25.5Z" class="g1_525"/>
<path fill-rule="evenodd" d="M463.9,534.7h318V492.5h-318v42.2Z" class="g1_525"/>
<path fill-rule="evenodd" d="M110,399.4h1.1v-4.2H110v4.2Z" class="g2_525"/>
<path fill-rule="evenodd" d="M111.1,396.3H239.7v-1.1H111.1v1.1Z" class="g2_525"/>
<path fill-rule="evenodd" d="M111.1,399.4H239.7v-3.1H111.1v3.1Z" class="g1_525"/>
<path fill-rule="evenodd" d="M239.6,399.4h1.1v-4.2h-1.1v4.2Z" class="g2_525"/>
<path fill-rule="evenodd" d="M240.7,396.3H457.3v-1.1H240.7v1.1Z" class="g2_525"/>
<path fill-rule="evenodd" d="M240.7,399.4H457.3v-3.1H240.7v3.1Z" class="g1_525"/>
<path fill-rule="evenodd" d="M457.3,399.4h1.1v-4.2h-1.1v4.2Z" class="g2_525"/>
<path fill-rule="evenodd" d="M458.4,396.3h329v-1.1h-329v1.1Z" class="g2_525"/>
<path fill-rule="evenodd" d="M458.4,399.4h329v-3.1h-329v3.1Z" class="g1_525"/>
<path fill-rule="evenodd" d="M787.4,399.4h1.1v-4.2h-1.1v4.2Z" class="g2_525"/>
<path fill-rule="evenodd" d="M110.8,537.8H240v-3.1H110.8v3.1Z" class="g1_525"/>
<path fill-rule="evenodd" d="M110,537.8h1.1V399.4H110V537.8Z" class="g2_525"/>
<path fill-rule="evenodd" d="M110,538.9h1.1v-1.1H110v1.1Z" class="g2_525"/>
<path fill-rule="evenodd" d="M110,538.9h1.1v-1.1H110v1.1Z" class="g2_525"/>
<path fill-rule="evenodd" d="M111.1,538.9H239.7v-1.1H111.1v1.1Z" class="g2_525"/>
<path fill-rule="evenodd" d="M240.2,537.8H457.9v-3.1H240.2v3.1Z" class="g1_525"/>
<path fill-rule="evenodd" d="M239.6,537.8h1.1V399.4h-1.1V537.8Z" class="g2_525"/>
<path fill-rule="evenodd" d="M239.6,538.9h1.1v-1.1h-1.1v1.1Z" class="g2_525"/>
<path fill-rule="evenodd" d="M240.7,538.9H457.3v-1.1H240.7v1.1Z" class="g2_525"/>
<path fill-rule="evenodd" d="M457.9,537.8h330v-3.1h-330v3.1Z" class="g1_525"/>
<path fill-rule="evenodd" d="M457.3,537.8h1.1V399.4h-1.1V537.8Z" class="g2_525"/>
<path fill-rule="evenodd" d="M457.3,538.9h1.1v-1.1h-1.1v1.1Z" class="g2_525"/>
<path fill-rule="evenodd" d="M458.4,538.9h329v-1.1h-329v1.1Z" class="g2_525"/>
<path fill-rule="evenodd" d="M787.4,537.8h1.1V399.4h-1.1V537.8Z" class="g2_525"/>
<path fill-rule="evenodd" d="M787.4,538.9h1.1v-1.1h-1.1v1.1Z" class="g2_525"/>
<path fill-rule="evenodd" d="M787.4,538.9h1.1v-1.1h-1.1v1.1Z" class="g2_525"/>
<path fill-rule="evenodd" d="M107.8,600.3H827.4V544.9H107.8v55.4Z" class="g1_525"/>
<path fill-rule="evenodd" d="M107.8,646.2H827.4V600.3H107.8v45.9Z" class="g1_525"/>
<path fill-rule="evenodd" d="M107.8,679.2H827.4V653.9H107.8v25.3Z" class="g1_525"/>
<path fill-rule="evenodd" d="M111.1,753.2h93V688h-93v65.2Z" class="g3_525"/>
<path fill-rule="evenodd" d="M116.8,750.1h81.6v-59H116.8v59Z" class="g3_525"/>
<path fill-rule="evenodd" d="M205.2,753.2H334.7V688H205.2v65.2Z" class="g3_525"/>
<path fill-rule="evenodd" d="M210.7,750.1H329.2v-59H210.7v59Z" class="g3_525"/>
<path fill-rule="evenodd" d="M335.8,753.2H787.4V688H335.8v65.2Z" class="g3_525"/>
<path fill-rule="evenodd" d="M341.4,750.1H781.9v-59H341.4v59Z" class="g3_525"/>
<path fill-rule="evenodd" d="M110,691.1h1.1v-4.2H110v4.2Z" class="g2_525"/>
<path fill-rule="evenodd" d="M110,688h1.1v-1.1H110V688Z" class="g2_525"/>
<path fill-rule="evenodd" d="M111.1,688h93v-1.1h-93V688Z" class="g2_525"/>
<path fill-rule="evenodd" d="M111.1,691.1h93V688h-93v3.1Z" class="g3_525"/>
<path fill-rule="evenodd" d="M204.1,691.1h1.1V688h-1.1v3.1Z" class="g2_525"/>
<path fill-rule="evenodd" d="M204.1,688h1.1v-1.1h-1.1V688Z" class="g2_525"/>
<path fill-rule="evenodd" d="M205.2,688H334.7v-1.1H205.2V688Z" class="g2_525"/>
<path fill-rule="evenodd" d="M205.2,691.1H334.7V688H205.2v3.1Z" class="g3_525"/>
<path fill-rule="evenodd" d="M334.7,691.1h1.1V688h-1.1v3.1Z" class="g2_525"/>
<path fill-rule="evenodd" d="M334.7,688h1.1v-1.1h-1.1V688Z" class="g2_525"/>
<path fill-rule="evenodd" d="M335.8,688H787.4v-1.1H335.8V688Z" class="g2_525"/>
<path fill-rule="evenodd" d="M335.8,691.1H787.4V688H335.8v3.1Z" class="g3_525"/>
<path fill-rule="evenodd" d="M787.4,691.1h1.1v-4.2h-1.1v4.2Z" class="g2_525"/>
<path fill-rule="evenodd" d="M787.4,688h1.1v-1.1h-1.1V688Z" class="g2_525"/>
<path fill-rule="evenodd" d="M110.8,753.2h93.8v-3.1H110.8v3.1Z" class="g3_525"/>
<path fill-rule="evenodd" d="M110,753.2h1.1V691.1H110v62.1Z" class="g2_525"/>
<path fill-rule="evenodd" d="M204.6,753.2H335.2v-3.1H204.6v3.1Z" class="g3_525"/>
<path fill-rule="evenodd" d="M204.1,753.2h1.1V691.1h-1.1v62.1Z" class="g2_525"/>
<path fill-rule="evenodd" d="M335.4,753.2H787.9v-3.1H335.4v3.1Z" class="g3_525"/>
<path fill-rule="evenodd" d="M334.7,753.2h1.1V691.1h-1.1v62.1Z" class="g2_525"/>
<path fill-rule="evenodd" d="M787.4,753.2h1.1V691.1h-1.1v62.1Z" class="g2_525"/>
<path fill-rule="evenodd" d="M111.1,862.7h93V754.3h-93V862.7Z" class="g1_525"/>
<path fill-rule="evenodd" d="M116.8,859.6h81.6V757.5H116.8V859.6Z" class="g1_525"/>
<path fill-rule="evenodd" d="M205.2,862.7H334.7V754.3H205.2V862.7Z" class="g1_525"/>
<path fill-rule="evenodd" d="M210.7,799.6H329.2V757.5H210.7v42.1Z" class="g1_525"/>
<path fill-rule="evenodd" d="M210.7,841.8H329.2V799.6H210.7v42.2Z" class="g1_525"/>
<path fill-rule="evenodd" d="M335.8,862.7H787.4V754.3H335.8V862.7Z" class="g1_525"/>
<path fill-rule="evenodd" d="M341.4,799.6H781.9V757.5H341.4v42.1Z" class="g1_525"/>
<path fill-rule="evenodd" d="M341.4,841.8H781.9V799.6H341.4v42.2Z" class="g1_525"/>
<path fill-rule="evenodd" d="M110,757.5h1.1v-4.3H110v4.3Z" class="g2_525"/>
<path fill-rule="evenodd" d="M111.1,754.3h93v-1.1h-93v1.1Z" class="g2_525"/>
<path fill-rule="evenodd" d="M111.1,757.5h93v-3.2h-93v3.2Z" class="g1_525"/>
<path fill-rule="evenodd" d="M204.1,757.5h1.1v-4.3h-1.1v4.3Z" class="g2_525"/>
<path fill-rule="evenodd" d="M205.2,754.3H334.7v-1.1H205.2v1.1Z" class="g2_525"/>
<path fill-rule="evenodd" d="M205.2,757.5H334.7v-3.2H205.2v3.2Z" class="g1_525"/>
<path fill-rule="evenodd" d="M334.7,757.5h1.1v-4.3h-1.1v4.3Z" class="g2_525"/>
<path fill-rule="evenodd" d="M335.8,754.3H787.4v-1.1H335.8v1.1Z" class="g2_525"/>
<path fill-rule="evenodd" d="M335.8,757.5H787.4v-3.2H335.8v3.2Z" class="g1_525"/>
<path fill-rule="evenodd" d="M787.4,757.5h1.1v-4.3h-1.1v4.3Z" class="g2_525"/>
<path fill-rule="evenodd" d="M110.8,862.5h93.8v-3.1H110.8v3.1Z" class="g1_525"/>
<path fill-rule="evenodd" d="M110,862.5h1.1v-105H110v105Z" class="g2_525"/>
<path fill-rule="evenodd" d="M204.6,862.5H335.2v-3.1H204.6v3.1Z" class="g1_525"/>
<path fill-rule="evenodd" d="M204.1,862.5h1.1v-105h-1.1v105Z" class="g2_525"/>
<path fill-rule="evenodd" d="M335.4,862.5H787.9v-3.1H335.4v3.1Z" class="g1_525"/>
<path fill-rule="evenodd" d="M334.7,862.5h1.1v-105h-1.1v105Z" class="g2_525"/>
<path fill-rule="evenodd" d="M787.4,862.5h1.1v-105h-1.1v105Z" class="g2_525"/>
<path fill-rule="evenodd" d="M111.1,954.4h93V863.6h-93v90.8Z" class="g1_525"/>
<path clip-path="url(#c7_525)" fill-rule="evenodd" d="M116.8,950.6h81.6V866.7H116.8v83.9Z" class="g1_525"/>
<path fill-rule="evenodd" d="M205.2,1051.6H334.7v-188H205.2v188Z" class="g1_525"/>
<path clip-path="url(#c8_525)" fill-rule="evenodd" d="M210.7,925.8H329.2V866.7H210.7v59.1Z" class="g1_525"/>
<path fill-rule="evenodd" d="M335.8,954.4H787.4V863.6H335.8v90.8Z" class="g1_525"/>
<path clip-path="url(#c9_525)" fill-rule="evenodd" d="M341.4,909.1H781.9V866.7H341.4v42.4Z" class="g1_525"/>
<path fill-rule="evenodd" d="M341.4,951.3H781.9V909.1H341.4v42.2Z" class="g1_525"/>
<path fill-rule="evenodd" d="M110,866.7h1.1v-4.2H110v4.2Z" class="g2_525"/>
<path fill-rule="evenodd" d="M111.1,863.6h93v-1.1h-93v1.1Z" class="g2_525"/>
<path fill-rule="evenodd" d="M111.1,866.7h93v-3.1h-93v3.1Z" class="g1_525"/>
<path fill-rule="evenodd" d="M204.1,866.7h1.1v-4.2h-1.1v4.2Z" class="g2_525"/>
<path fill-rule="evenodd" d="M205.2,863.6H334.7v-1.1H205.2v1.1Z" class="g2_525"/>
<path fill-rule="evenodd" d="M205.2,866.7H334.7v-3.1H205.2v3.1Z" class="g1_525"/>
<path fill-rule="evenodd" d="M334.7,866.7h1.1v-4.2h-1.1v4.2Z" class="g2_525"/>
<path fill-rule="evenodd" d="M335.8,863.6H787.4v-1.1H335.8v1.1Z" class="g2_525"/>
<path fill-rule="evenodd" d="M335.8,866.7H787.4v-3.1H335.8v3.1Z" class="g1_525"/>
<path fill-rule="evenodd" d="M787.4,866.7h1.1v-4.2h-1.1v4.2Z" class="g2_525"/>
<path fill-rule="evenodd" d="M110.8,954.4h93.8v-3.1H110.8v3.1Z" class="g1_525"/>
<path fill-rule="evenodd" d="M110,954.4h1.1V866.7H110v87.7Z" class="g2_525"/>
<path fill-rule="evenodd" d="M204.1,954.4h1.1V866.7h-1.1v87.7Z" class="g2_525"/>
<path fill-rule="evenodd" d="M335.4,954.4H787.9v-3.1H335.4v3.1Z" class="g1_525"/>
<path fill-rule="evenodd" d="M334.7,954.4h1.1V866.7h-1.1v87.7Z" class="g2_525"/>
<path fill-rule="evenodd" d="M787.4,954.4h1.1V866.7h-1.1v87.7Z" class="g2_525"/>
<path fill-rule="evenodd" d="M111.1,1051.6h93V955.5h-93v96.1Z" class="g1_525"/>
<path fill-rule="evenodd" d="M116.8,1048.5h81.6V958.6H116.8v89.9Z" class="g1_525"/>
<path fill-rule="evenodd" d="M110,958.6h1.1v-4.2H110v4.2Z" class="g2_525"/>
<path fill-rule="evenodd" d="M111.1,955.5h93v-1.1h-93v1.1Z" class="g2_525"/>
<path fill-rule="evenodd" d="M111.1,958.6h93v-3.1h-93v3.1Z" class="g1_525"/>
<path fill-rule="evenodd" d="M204.1,958.6h1.1v-4.2h-1.1v4.2Z" class="g2_525"/>
<path fill-rule="evenodd" d="M334.7,958.6h1.1v-4.2h-1.1v4.2Z" class="g2_525"/>
<path fill-rule="evenodd" d="M335.8,955.5H787.4v-1.1H335.8v1.1Z" class="g2_525"/>
<path fill-rule="evenodd" d="M787.4,958.6h1.1v-4.2h-1.1v4.2Z" class="g2_525"/>
<path fill-rule="evenodd" d="M110.8,1051.6h93.8v-3.1H110.8v3.1Z" class="g1_525"/>
<path fill-rule="evenodd" d="M110,1051.6h1.1v-93H110v93Z" class="g2_525"/>
<path fill-rule="evenodd" d="M110,1052.7h1.1v-1.1H110v1.1Z" class="g2_525"/>
<path fill-rule="evenodd" d="M110,1052.7h1.1v-1.1H110v1.1Z" class="g2_525"/>
<path fill-rule="evenodd" d="M111.1,1052.7h93v-1.1h-93v1.1Z" class="g2_525"/>
<path fill-rule="evenodd" d="M204.6,1051.6H335.2v-3.1H204.6v3.1Z" class="g1_525"/>
<path fill-rule="evenodd" d="M204.1,1051.6h1.1v-93h-1.1v93Z" class="g2_525"/>
<path fill-rule="evenodd" d="M204.1,1052.7h1.1v-1.1h-1.1v1.1Z" class="g2_525"/>
<path fill-rule="evenodd" d="M205.2,1052.7H334.7v-1.1H205.2v1.1Z" class="g2_525"/>
<path fill-rule="evenodd" d="M334.7,1051.6h1.1v-93h-1.1v93Z" class="g2_525"/>
<path fill-rule="evenodd" d="M334.7,1052.7h1.1v-1.1h-1.1v1.1Z" class="g2_525"/>
<path fill-rule="evenodd" d="M335.8,1052.7H787.4v-1.1H335.8v1.1Z" class="g2_525"/>
<path fill-rule="evenodd" d="M787.4,1051.6h1.1v-93h-1.1v93Z" class="g2_525"/>
<path fill-rule="evenodd" d="M787.4,1052.7h1.1v-1.1h-1.1v1.1Z" class="g2_525"/>
<path fill-rule="evenodd" d="M787.4,1052.7h1.1v-1.1h-1.1v1.1Z" class="g2_525"/>
<image clip-path="url(#ca_525)" preserveAspectRatio="none" x="118" y="131" width="115" height="58" xlink:href="img/1.jpg"/>
<image clip-path="url(#cb_525)" preserveAspectRatio="none" x="146" y="274" width="58" height="58" xlink:href="img/2.png"/>
<image clip-path="url(#cc_525)" preserveAspectRatio="none" x="146" y="416" width="58" height="57" xlink:href="img/3.jpg"/>
<image clip-path="url(#cd_525)" preserveAspectRatio="none" x="126" y="774" width="63" height="63" xlink:href="img/4.png"/>
<image clip-path="url(#ce_525)" preserveAspectRatio="none" x="121" y="883" width="73" height="45" xlink:href="img/5.png"/>
<image clip-path="url(#cf_525)" preserveAspectRatio="none" x="121" y="975" width="73" height="51" xlink:href="img/6.png"/>
</svg>