<?xml version="1.0" encoding="UTF-8" standalone="no"?>
<!DOCTYPE svg PUBLIC "-//W3C//DTD SVG 1.1//EN"
"http://www.w3.org/Graphics/SVG/1.1/DTD/svg11.dtd">
<svg viewBox="0 0 935 1210" version="1.1" xmlns="http://www.w3.org/2000/svg" xmlns:xlink="http://www.w3.org/1999/xlink">
<defs>
<style type="text/css"><![CDATA[
.g0_3{
fill: #C0C0C0;
fill-opacity: 0.50196;
}
.g1_3{
}
]]></style>
</defs>
<path fill-rule="evenodd" d="M167,938.7C151.6,923.3,136.1,907.8,120.7,892.4c3.1,-3.2,6.3,-6.3,9.4,-9.5c14.6,7.3,29.4,14.3,44.1,21.6c4,2.1,7.1,3.6,9.1,4.6c-1.2,-2.2,-2.8,-5.5,-4.9,-9.9c-7.1,-14.5,-13.9,-29.1,-20.9,-43.6c2.8,-2.9,5.6,-5.7,8.4,-8.5c15.5,15.5,30.9,30.9,46.4,46.4c-2,2,-4.1,4,-6.1,6C193.3,886.6,180.4,873.7,167.4,860.7c8.5,17.5,16.6,35.1,25,52.6c-1.8,1.9,-3.7,3.8,-5.6,5.7c-17.7,-8.7,-35.5,-17.1,-53.2,-25.8c13.2,13.2,26.3,26.3,39.5,39.5c-2,2,-4.1,4,-6.1,6Z" class="g0_3"/>
<path fill-rule="evenodd" d="M235.6,870.1C226.1,848.7,217,827,207.5,805.6c2.2,-2.3,4.5,-4.5,6.7,-6.8c21.9,9.2,43.9,17.8,65.8,27c-2.4,2.3,-4.8,4.7,-7.2,7.1c-6.5,-2.9,-13,-5.6,-19.5,-8.5c-6.6,6.6,-13.3,13.2,-19.9,19.8c3,6.4,5.9,12.9,8.9,19.3c-2.3,2.2,-4.5,4.4,-6.7,6.6Zm-5.3,-32.7c5.3,-5.3,10.7,-10.7,16,-16.1c-5.9,-2.6,-11.9,-5.2,-17.8,-7.8c-5.4,-2.4,-9.7,-4.5,-12.9,-6.3c2.3,3.6,4.4,7.4,6.3,11.4c2.8,6.3,5.5,12.6,8.4,18.8Z" class="g0_3"/>
<path fill-rule="evenodd" d="M303.2,802.5C287.8,787.1,272.3,771.6,256.9,756.2c3.1,-3.2,6.3,-6.3,9.4,-9.5c14.6,7.3,29.4,14.3,44,21.6c4.1,2.1,7.2,3.6,9.2,4.6c-1.2,-2.2,-2.8,-5.5,-4.9,-9.9c-7.1,-14.5,-13.9,-29.1,-20.9,-43.6c2.8,-2.8,5.6,-5.7,8.4,-8.5c15.5,15.5,30.9,30.9,46.4,46.4c-2,2,-4.1,4,-6.1,6C329.5,750.4,316.6,737.5,303.6,724.5c8.5,17.5,16.6,35.1,25,52.6c-1.8,1.9,-3.7,3.8,-5.6,5.7C305.3,774.1,287.5,765.7,269.8,757c13.2,13.2,26.3,26.3,39.5,39.5c-2,2,-4.1,4,-6.1,6Z" class="g0_3"/>
<path fill-rule="evenodd" d="M338.9,733.3c-6.2,-6.3,-9,-12.6,-8.5,-19.2c.4,-5.4,2.8,-10.2,7.1,-14.5c4.7,-4.7,10.1,-7.1,16.1,-7c6,0,11.7,2.7,17,8c4.3,4.3,7,8.4,8.2,12.2c1.2,3.8,1.1,7.6,0,11.5c-1.1,4,-3.2,7.4,-6.3,10.4c-4.8,4.8,-10.2,7.3,-16.1,7.1c-6,0,-11.8,-2.9,-17.5,-8.5Zm6,-6c4.3,4.3,8.5,6.5,12.5,6.8c4.1,.2,7.6,-1.1,10.5,-4.1c2.9,-2.8,4.3,-6.4,4,-10.4c-.3,-4.1,-2.6,-8.3,-7,-12.7c-4.1,-4.2,-8.3,-6.3,-12.3,-6.6c-4.1,-.2,-7.6,1.1,-10.4,4c-2.9,2.9,-4.3,6.4,-4.1,10.5c.3,4,2.5,8.2,6.8,12.5Z" class="g0_3"/>
<path fill-rule="evenodd" d="M394.7,711.1C379.2,695.6,363.8,680.2,348.3,664.7c2,-2,3.9,-3.9,5.9,-5.8c5.5,5.5,11,11.1,16.6,16.6c-.4,-5.8,1.5,-10.8,5.7,-14.9c2.5,-2.6,5.2,-4.3,8.1,-5.2c2.8,-.9,5.5,-.9,8.1,.1c2.5,.9,5.4,3,8.7,6.3c7.1,7.1,14.2,14.2,21.3,21.3c-2,1.9,-3.9,3.9,-5.8,5.8c-7.1,-7.1,-14.2,-14.2,-21.3,-21.3c-2.9,-2.8,-5.6,-4.3,-8.1,-4.3c-2.6,-.1,-5,1.1,-7.3,3.4c-1.7,1.7,-2.9,3.8,-3.6,6.1c-.6,2.5,-.5,4.8,.3,6.9c.9,2.1,2.6,4.5,5.2,7.2c6.2,6.1,12.3,12.2,18.4,18.3c-1.9,2,-3.9,3.9,-5.8,5.9Z" class="g0_3"/>
<path fill-rule="evenodd" d="M391.8,634.4c-2.2,-2.2,-4.4,-4.4,-6.6,-6.6c2,-1.9,3.9,-3.9,5.9,-5.8c2.1,2.2,4.3,4.4,6.5,6.5c-2,2,-3.9,3.9,-5.8,5.9Zm39.8,39.8C420.4,663,409.2,651.8,398,640.6c1.9,-1.9,3.9,-3.9,5.8,-5.8c11.2,11.2,22.4,22.4,33.6,33.5c-1.9,2,-3.9,3.9,-5.8,5.9Z" class="g0_3"/>
<path fill-rule="evenodd" d="M459,625.2c2.2,-1.8,4.5,-3.6,6.7,-5.3c2.5,4.3,3.4,8.8,2.7,13.2c-.6,4.5,-3,8.7,-6.9,12.7c-5.1,5,-10.5,7.6,-16.5,7.4c-6,-.1,-11.7,-2.8,-17.2,-8.3c-5.6,-5.6,-8.5,-11.5,-8.7,-17.6c-.2,-6.1,2.2,-11.5,6.9,-16.3c4.6,-4.5,9.9,-6.8,15.9,-6.6c6,.2,11.7,3,17.2,8.5c.4,.3,.9,.9,1.5,1.5c-8.5,8.6,-17.1,17.1,-25.6,25.7c3.9,3.4,7.8,5.2,11.7,5.2c3.9,.1,7.2,-1.3,10.1,-4.2c2.1,-2.1,3.4,-4.5,3.8,-7.1c.4,-2.6,-.1,-5.6,-1.6,-8.8Zm-28.3,9.9c6.4,-6.4,12.7,-12.8,19.1,-19.2c-3,-2.6,-5.9,-3.9,-8.5,-4.2c-4,-.3,-7.6,1,-10.5,3.9c-2.7,2.7,-4.1,5.9,-4.1,9.4c-.1,3.6,1.2,6.9,4,10.1Z" class="g0_3"/>
<path fill-rule="evenodd" d="M483.1,622.6C471.9,611.4,460.7,600.2,449.5,589.1c1.8,-1.8,3.5,-3.5,5.2,-5.3c1.6,1.6,3.2,3.2,4.7,4.7c-.5,-2.6,-.4,-5.4,.4,-8.2c.7,-2.8,2.3,-5.3,4.6,-7.6c2.6,-2.6,5.1,-4.2,7.8,-4.7c2.7,-.6,5.2,-.4,7.8,.8c-1.3,-6.6,.3,-12.1,4.7,-16.4c3.4,-3.4,7,-5.2,10.6,-5.2c3.7,.1,7.5,2,11.3,5.8c7.7,7.7,15.4,15.4,23.1,23.1c-2,1.9,-3.9,3.8,-5.8,5.8c-7.1,-7.1,-14.1,-14.1,-21.2,-21.2c-2.3,-2.3,-4.1,-3.7,-5.5,-4.4c-1.3,-.6,-2.8,-.7,-4.4,-.3c-1.6,.4,-3.1,1.3,-4.4,2.6c-2.5,2.4,-3.7,5.2,-3.7,8.3c0,3.2,1.7,6.5,5.1,10c6.5,6.5,13.1,13,19.5,19.5c-1.9,1.9,-3.8,3.9,-5.8,5.8C496.3,595,489,587.7,481.7,580.4c-2.5,-2.5,-4.9,-3.9,-7.1,-4.3c-2.2,-.3,-4.4,.6,-6.6,2.8c-1.6,1.7,-2.7,3.5,-3.2,5.8c-.5,2.2,-.4,4.5,.6,6.7c1,2.2,3,4.9,6.1,8c5.8,5.8,11.6,11.6,17.4,17.4c-1.9,2,-3.8,3.9,-5.8,5.8Z" class="g0_3"/>
<path fill-rule="evenodd" d="M551,533.1c2.3,-1.7,4.5,-3.5,6.8,-5.3c2.5,4.4,3.3,8.8,2.7,13.3c-.6,4.5,-3,8.7,-7,12.7c-5,5,-10.5,7.5,-16.5,7.4c-5.9,-.2,-11.7,-2.8,-17.1,-8.3c-5.7,-5.7,-8.5,-11.5,-8.7,-17.6c-.2,-6.1,2.1,-11.5,6.9,-16.3c4.6,-4.6,9.8,-6.9,15.8,-6.7c6,.2,11.7,3,17.3,8.6c.3,.3,.8,.8,1.5,1.5c-8.6,8.5,-17.1,17.1,-25.6,25.6c3.9,3.5,7.8,5.2,11.6,5.3c3.9,.1,7.3,-1.4,10.2,-4.2c2.1,-2.2,3.4,-4.5,3.8,-7.2c.4,-2.6,-.1,-5.5,-1.7,-8.8ZM522.7,543c6.4,-6.4,12.8,-12.8,19.2,-19.2c-3.1,-2.5,-6,-3.9,-8.6,-4.1c-4,-.4,-7.5,1,-10.5,3.9c-2.7,2.7,-4.1,5.8,-4.1,9.4c-.1,3.6,1.2,6.9,4,10Z" class="g0_3"/>
<path fill-rule="evenodd" d="M575.1,530.6C564,519.4,552.8,508.2,541.6,497c1.7,-1.7,3.5,-3.5,5.2,-5.2c1.6,1.6,3.2,3.2,4.8,4.8c-1.2,-6.3,.6,-11.8,5.4,-16.5c2.1,-2.1,4.3,-3.7,6.8,-4.7c2.4,-.9,4.7,-1.3,6.7,-1c2.1,.3,4.1,1.2,6.1,2.4c1.2,.8,3.2,2.6,5.8,5.2c6.9,6.9,13.8,13.8,20.7,20.7c-2,1.9,-3.9,3.9,-5.8,5.8c-6.8,-6.8,-13.7,-13.6,-20.5,-20.4c-2.3,-2.3,-4.3,-3.8,-5.9,-4.6c-1.6,-.7,-3.3,-.7,-5.1,-.3c-1.9,.5,-3.5,1.5,-5.1,3c-2.5,2.5,-3.9,5.4,-4.1,8.8c-.2,3.3,1.7,7.1,6,11.4c6.2,6.2,12.3,12.3,18.4,18.4c-2,1.9,-3.9,3.9,-5.9,5.8Z" class="g0_3"/>
<path fill-rule="evenodd" d="M643.2,462.5C629.6,448.9,616,435.3,602.3,421.6c-5.2,5.2,-10.4,10.5,-15.6,15.7c-1.8,-1.8,-3.7,-3.7,-5.5,-5.5c12.6,-12.5,25.1,-25.1,37.6,-37.6c1.8,1.8,3.7,3.7,5.5,5.5c-5.2,5.2,-10.5,10.4,-15.7,15.7c13.6,13.6,27.3,27.2,40.9,40.9c-2.1,2,-4.2,4.1,-6.3,6.2Z" class="g0_3"/>
<path fill-rule="evenodd" d="M689.1,408.3c-.3,4,-1.1,7.3,-2.4,10c-1.2,2.8,-3,5.3,-5.3,7.6c-3.8,3.8,-7.6,5.7,-11.4,5.9c-3.8,.2,-7.1,-1,-10,-3.8c-1.6,-1.6,-2.7,-3.6,-3.3,-5.7c-.6,-2.1,-.7,-4.2,-.3,-6.3c.4,-2,1.2,-4,2.3,-6c.9,-1.4,2.4,-3.4,4.4,-6c4.1,-5.3,7,-9.4,8.4,-12.4c-.8,-.8,-1.2,-1.3,-1.5,-1.5c-2.3,-2.3,-4.5,-3.4,-6.5,-3.3c-2.8,.2,-5.6,1.8,-8.6,4.8c-2.7,2.7,-4.3,5.2,-4.6,7.4c-.4,2.3,.3,4.9,2.1,7.9c-2.2,1.6,-4.3,3.3,-6.5,4.9C644,409,643,406.2,642.7,403.5c-.3,-2.7,.3,-5.5,1.7,-8.5c1.5,-3.1,3.7,-6,6.7,-9c2.9,-2.9,5.6,-5,8.1,-6.1c2.5,-1.2,4.7,-1.7,6.6,-1.5c1.9,.2,3.8,.8,5.7,2c1.2,.8,3,2.5,5.6,5c2.5,2.5,5,5,7.5,7.6c5.3,5.3,8.8,8.5,10.4,9.6c1.7,1.2,3.5,2,5.5,2.6c-2,2,-4,4.1,-6,6.1c-1.8,-.6,-3.6,-1.6,-5.4,-3ZM676,396.1c-1.3,3,-3.8,6.8,-7.4,11.6c-2,2.8,-3.4,4.8,-3.9,6.3c-.6,1.4,-.8,2.8,-.5,4.1c.3,1.4,.9,2.5,1.9,3.5c1.5,1.5,3.4,2.2,5.6,2c2.2,-.1,4.4,-1.3,6.6,-3.6c2.3,-2.2,3.8,-4.7,4.6,-7.4c.8,-2.7,.8,-5.3,-.1,-7.8c-.7,-1.9,-2.3,-4.1,-4.8,-6.6c-.7,-.7,-1.3,-1.4,-2,-2.1Z" class="g0_3"/>
<path fill-rule="evenodd" d="M707.7,398C696.5,386.8,685.3,375.7,674.1,364.5c1.8,-1.8,3.5,-3.5,5.3,-5.3c1.6,1.6,3.2,3.2,4.8,4.8c-1.3,-6.2,.6,-11.7,5.4,-16.5c2,-2.1,4.3,-3.6,6.8,-4.6c2.4,-1,4.7,-1.4,6.7,-1c2.1,.3,4.1,1.1,6,2.4c1.3,.8,3.3,2.5,5.9,5.2c6.9,6.8,13.8,13.7,20.6,20.6c-1.9,1.9,-3.8,3.9,-5.8,5.8C723,369.1,716.2,362.3,709.4,355.5c-2.3,-2.3,-4.3,-3.8,-5.9,-4.5c-1.6,-.7,-3.3,-.8,-5.2,-.4c-1.8,.5,-3.5,1.5,-5,3.1c-2.5,2.5,-3.9,5.4,-4.1,8.7c-.3,3.4,1.7,7.2,6,11.5c6.1,6.1,12.2,12.2,18.3,18.3c-1.9,1.9,-3.8,3.9,-5.8,5.8Z" class="g0_3"/>
<path fill-rule="evenodd" d="M704.8,321.3c-2.2,-2.1,-4.4,-4.3,-6.5,-6.5c1.9,-2,3.8,-3.9,5.8,-5.8c2.1,2.1,4.3,4.3,6.5,6.5c-1.9,2,-3.9,3.9,-5.8,5.8Zm39.8,39.9C733.4,350,722.2,338.8,711,327.6c2,-2,3.9,-3.9,5.8,-5.9c11.2,11.2,22.4,22.4,33.6,33.6c-1.9,2,-3.9,3.9,-5.8,5.9Z" class="g0_3"/>
<path fill-rule="evenodd" d="M759.3,346.5C748.1,335.3,736.9,324.1,725.7,312.9c1.8,-1.8,3.5,-3.5,5.2,-5.2c1.6,1.5,3.2,3.1,4.7,4.7c-.6,-2.7,-.4,-5.5,.3,-8.3c.8,-2.8,2.4,-5.3,4.7,-7.6c2.5,-2.6,5.1,-4.2,7.8,-4.7c2.7,-.6,5.2,-.3,7.8,.9c-1.3,-6.7,.3,-12.2,4.7,-16.5c3.4,-3.4,6.9,-5.2,10.6,-5.1c3.7,0,7.5,1.9,11.3,5.7c7.7,7.7,15.4,15.4,23,23.1c-1.9,1.9,-3.8,3.9,-5.7,5.8C793,298.6,786,291.6,778.9,284.5c-2.3,-2.2,-4.1,-3.7,-5.5,-4.3c-1.4,-.6,-2.9,-.8,-4.5,-.4c-1.6,.4,-3,1.3,-4.4,2.6c-2.4,2.4,-3.6,5.2,-3.6,8.4c0,3.1,1.7,6.5,5.1,9.9c6.5,6.5,13,13,19.5,19.5c-1.9,2,-3.9,3.9,-5.8,5.8c-7.3,-7.2,-14.5,-14.5,-21.8,-21.8c-2.5,-2.5,-4.9,-3.9,-7.1,-4.2c-2.2,-.4,-4.4,.6,-6.6,2.7c-1.6,1.7,-2.7,3.6,-3.2,5.8c-.6,2.3,-.4,4.5,.6,6.8c1,2.2,3,4.8,6.1,7.9c5.8,5.8,11.6,11.6,17.4,17.4c-1.9,2,-3.9,3.9,-5.8,5.9Z" class="g0_3"/>
<path fill-rule="evenodd" d="M110,119.2h1.5V110H110v9.2Z" class="g1_3"/>
<path fill-rule="evenodd" d="M110,111.5h1.5V110H110v1.5Z" class="g1_3"/>
<path fill-rule="evenodd" d="M111.5,111.5H825.1V110H111.5v1.5Z" class="g1_3"/>
<path fill-rule="evenodd" d="M825.2,119.2h1.5V110h-1.5v9.2Z" class="g1_3"/>
<path fill-rule="evenodd" d="M825.2,111.5h1.5V110h-1.5v1.5Z" class="g1_3"/>
<path fill-rule="evenodd" d="M110,257.8h1.5V119.2H110V257.8Z" class="g1_3"/>
<path fill-rule="evenodd" d="M110,259.3h1.5v-1.5H110v1.5Z" class="g1_3"/>
<path fill-rule="evenodd" d="M110,259.3h1.5v-1.5H110v1.5Z" class="g1_3"/>
<path fill-rule="evenodd" d="M111.5,259.3H825.1v-1.5H111.5v1.5Z" class="g1_3"/>
<path fill-rule="evenodd" d="M825.2,257.8h1.5V119.2h-1.5V257.8Z" class="g1_3"/>
<path fill-rule="evenodd" d="M825.2,259.3h1.5v-1.5h-1.5v1.5Z" class="g1_3"/>
<path fill-rule="evenodd" d="M825.2,259.3h1.5v-1.5h-1.5v1.5Z" class="g1_3"/>
<path fill-rule="evenodd" d="M117.7,347.4h1.5v-9.1h-1.5v9.1Z" class="g1_3"/>
<path fill-rule="evenodd" d="M117.7,339.7h1.5v-1.4h-1.5v1.4Z" class="g1_3"/>
<path fill-rule="evenodd" d="M119.2,339.7H368.8v-1.4H119.2v1.4Z" class="g1_3"/>
<path fill-rule="evenodd" d="M368.8,347.4h1.4v-7.7h-1.4v7.7Z" class="g1_3"/>
<path fill-rule="evenodd" d="M368.8,339.7h1.4v-1.4h-1.4v1.4Z" class="g1_3"/>
<path fill-rule="evenodd" d="M370.2,339.7H583.1v-1.4H370.2v1.4Z" class="g1_3"/>
<path fill-rule="evenodd" d="M583.1,347.4h1.5v-7.7h-1.5v7.7Z" class="g1_3"/>
<path fill-rule="evenodd" d="M583.1,339.7h1.5v-1.4h-1.5v1.4Z" class="g1_3"/>
<path fill-rule="evenodd" d="M584.6,339.7h233v-1.4h-233v1.4Z" class="g1_3"/>
<path fill-rule="evenodd" d="M817.6,347.4h1.5v-9.1h-1.5v9.1Z" class="g1_3"/>
<path fill-rule="evenodd" d="M817.6,339.7h1.5v-1.4h-1.5v1.4Z" class="g1_3"/>
<path fill-rule="evenodd" d="M117.7,418.6h1.5V347.5h-1.5v71.1Z" class="g1_3"/>
<path fill-rule="evenodd" d="M117.7,420.1h1.5v-1.5h-1.5v1.5Z" class="g1_3"/>
<path fill-rule="evenodd" d="M117.7,420.1h1.5v-1.5h-1.5v1.5Z" class="g1_3"/>
<path fill-rule="evenodd" d="M119.2,420.1H368.8v-1.5H119.2v1.5Z" class="g1_3"/>
<path fill-rule="evenodd" d="M368.8,418.6h1.4V347.5h-1.4v71.1Z" class="g1_3"/>
<path fill-rule="evenodd" d="M368.8,420.1h1.4v-1.5h-1.4v1.5Z" class="g1_3"/>
<path fill-rule="evenodd" d="M370.2,420.1H583.1v-1.5H370.2v1.5Z" class="g1_3"/>
<path fill-rule="evenodd" d="M583.1,418.6h1.5V347.5h-1.5v71.1Z" class="g1_3"/>
<path fill-rule="evenodd" d="M583.1,420.1h1.5v-1.5h-1.5v1.5Z" class="g1_3"/>
<path fill-rule="evenodd" d="M584.6,420.1h233v-1.5h-233v1.5Z" class="g1_3"/>
<path fill-rule="evenodd" d="M817.6,418.6h1.5V347.5h-1.5v71.1Z" class="g1_3"/>
<path fill-rule="evenodd" d="M817.6,420.1h1.5v-1.5h-1.5v1.5Z" class="g1_3"/>
<path fill-rule="evenodd" d="M817.6,420.1h1.5v-1.5h-1.5v1.5Z" class="g1_3"/>
<path fill-rule="evenodd" d="M110,310.4h1.5v-9.2H110v9.2Z" class="g1_3"/>
<path fill-rule="evenodd" d="M110,302.7h1.5v-1.5H110v1.5Z" class="g1_3"/>
<path fill-rule="evenodd" d="M111.5,302.7H825.1v-1.5H111.5v1.5Z" class="g1_3"/>
<path fill-rule="evenodd" d="M825.2,310.4h1.5v-9.2h-1.5v9.2Z" class="g1_3"/>
<path fill-rule="evenodd" d="M825.2,302.7h1.5v-1.5h-1.5v1.5Z" class="g1_3"/>
<path fill-rule="evenodd" d="M110,455.7h1.5V310.4H110V455.7Z" class="g1_3"/>
<path fill-rule="evenodd" d="M110,457.1h1.5v-1.4H110v1.4Z" class="g1_3"/>
<path fill-rule="evenodd" d="M110,457.1h1.5v-1.4H110v1.4Z" class="g1_3"/>
<path fill-rule="evenodd" d="M111.5,457.1H825.1v-1.4H111.5v1.4Z" class="g1_3"/>
<path fill-rule="evenodd" d="M825.2,455.7h1.5V310.4h-1.5V455.7Z" class="g1_3"/>
<path fill-rule="evenodd" d="M825.2,457.1h1.5v-1.4h-1.5v1.4Z" class="g1_3"/>
<path fill-rule="evenodd" d="M825.2,457.1h1.5v-1.4h-1.5v1.4Z" class="g1_3"/>
<path fill-rule="evenodd" d="M118.5,545.3h1.4v-9.2h-1.4v9.2Z" class="g1_3"/>
<path fill-rule="evenodd" d="M118.5,537.6h1.4v-1.5h-1.4v1.5Z" class="g1_3"/>
<path fill-rule="evenodd" d="M119.9,537.6H406.2v-1.5H119.9v1.5Z" class="g1_3"/>
<path fill-rule="evenodd" d="M406.2,545.3h1.4v-7.7h-1.4v7.7Z" class="g1_3"/>
<path fill-rule="evenodd" d="M406.2,537.6h1.4v-1.5h-1.4v1.5Z" class="g1_3"/>
<path fill-rule="evenodd" d="M407.6,537.6H630.8v-1.5H407.6v1.5Z" class="g1_3"/>
<path fill-rule="evenodd" d="M630.8,545.3h1.4v-7.7h-1.4v7.7Z" class="g1_3"/>
<path fill-rule="evenodd" d="M630.8,537.6h1.4v-1.5h-1.4v1.5Z" class="g1_3"/>
<path fill-rule="evenodd" d="M632.2,537.6H817.6v-1.5H632.2v1.5Z" class="g1_3"/>
<path fill-rule="evenodd" d="M817.6,545.3h1.5v-9.2h-1.5v9.2Z" class="g1_3"/>
<path fill-rule="evenodd" d="M817.6,537.6h1.5v-1.5h-1.5v1.5Z" class="g1_3"/>
<path fill-rule="evenodd" d="M118.5,571.5h1.4V545.3h-1.4v26.2Z" class="g1_3"/>
<path fill-rule="evenodd" d="M406.2,571.5h1.4V545.3h-1.4v26.2Z" class="g1_3"/>
<path fill-rule="evenodd" d="M630.8,571.5h1.4V545.3h-1.4v26.2Z" class="g1_3"/>
<path fill-rule="evenodd" d="M817.6,571.5h1.5V545.3h-1.5v26.2Z" class="g1_3"/>
<path fill-rule="evenodd" d="M118.5,580.7h1.4v-9.2h-1.4v9.2Z" class="g1_3"/>
<path fill-rule="evenodd" d="M119.9,573H406.2v-1.5H119.9V573Z" class="g1_3"/>
<path fill-rule="evenodd" d="M406.2,580.7h1.4v-9.2h-1.4v9.2Z" class="g1_3"/>
<path fill-rule="evenodd" d="M407.6,573H630.8v-1.5H407.6V573Z" class="g1_3"/>
<path fill-rule="evenodd" d="M630.8,580.7h1.4v-9.2h-1.4v9.2Z" class="g1_3"/>
<path fill-rule="evenodd" d="M632.2,573H817.6v-1.5H632.2V573Z" class="g1_3"/>
<path fill-rule="evenodd" d="M817.6,580.7h1.5v-9.2h-1.5v9.2Z" class="g1_3"/>
<path fill-rule="evenodd" d="M118.5,605.1h1.4V580.7h-1.4v24.4Z" class="g1_3"/>
<path fill-rule="evenodd" d="M406.2,605.1h1.4V580.7h-1.4v24.4Z" class="g1_3"/>
<path fill-rule="evenodd" d="M630.8,605.1h1.4V580.7h-1.4v24.4Z" class="g1_3"/>
<path fill-rule="evenodd" d="M817.6,605.1h1.5V580.7h-1.5v24.4Z" class="g1_3"/>
<path fill-rule="evenodd" d="M118.5,614.2h1.4v-9.1h-1.4v9.1Z" class="g1_3"/>
<path fill-rule="evenodd" d="M119.9,606.5H406.2v-1.4H119.9v1.4Z" class="g1_3"/>
<path fill-rule="evenodd" d="M406.2,614.2h1.4v-9.1h-1.4v9.1Z" class="g1_3"/>
<path fill-rule="evenodd" d="M407.6,606.5H630.8v-1.4H407.6v1.4Z" class="g1_3"/>
<path fill-rule="evenodd" d="M630.8,614.2h1.4v-9.1h-1.4v9.1Z" class="g1_3"/>
<path fill-rule="evenodd" d="M632.2,606.5H817.6v-1.4H632.2v1.4Z" class="g1_3"/>
<path fill-rule="evenodd" d="M817.6,614.2h1.5v-9.1h-1.5v9.1Z" class="g1_3"/>
<path fill-rule="evenodd" d="M118.5,638.7h1.4V614.2h-1.4v24.5Z" class="g1_3"/>
<path fill-rule="evenodd" d="M406.2,638.7h1.4V614.2h-1.4v24.5Z" class="g1_3"/>
<path fill-rule="evenodd" d="M630.8,638.7h1.4V614.2h-1.4v24.5Z" class="g1_3"/>
<path fill-rule="evenodd" d="M817.6,638.7h1.5V614.2h-1.5v24.5Z" class="g1_3"/>
<path fill-rule="evenodd" d="M118.5,647.8h1.4v-9.1h-1.4v9.1Z" class="g1_3"/>
<path fill-rule="evenodd" d="M119.9,640.1H406.2v-1.4H119.9v1.4Z" class="g1_3"/>
<path fill-rule="evenodd" d="M406.2,647.8h1.4v-9.1h-1.4v9.1Z" class="g1_3"/>
<path fill-rule="evenodd" d="M407.6,640.1H630.8v-1.4H407.6v1.4Z" class="g1_3"/>
<path fill-rule="evenodd" d="M630.8,647.8h1.4v-9.1h-1.4v9.1Z" class="g1_3"/>
<path fill-rule="evenodd" d="M632.2,640.1H817.6v-1.4H632.2v1.4Z" class="g1_3"/>
<path fill-rule="evenodd" d="M817.6,647.8h1.5v-9.1h-1.5v9.1Z" class="g1_3"/>
<path fill-rule="evenodd" d="M118.5,689.1h1.4V647.8h-1.4v41.3Z" class="g1_3"/>
<path fill-rule="evenodd" d="M406.2,689.1h1.4V647.8h-1.4v41.3Z" class="g1_3"/>
<path fill-rule="evenodd" d="M630.8,689.1h1.4V647.8h-1.4v41.3Z" class="g1_3"/>
<path fill-rule="evenodd" d="M817.6,689.1h1.5V647.8h-1.5v41.3Z" class="g1_3"/>
<path fill-rule="evenodd" d="M118.5,698.2h1.4v-9.1h-1.4v9.1Z" class="g1_3"/>
<path fill-rule="evenodd" d="M119.9,690.5H406.2v-1.4H119.9v1.4Z" class="g1_3"/>
<path fill-rule="evenodd" d="M406.2,698.2h1.4v-9.1h-1.4v9.1Z" class="g1_3"/>
<path fill-rule="evenodd" d="M407.6,690.5H630.8v-1.4H407.6v1.4Z" class="g1_3"/>
<path fill-rule="evenodd" d="M630.8,698.2h1.4v-9.1h-1.4v9.1Z" class="g1_3"/>
<path fill-rule="evenodd" d="M632.2,690.5H817.6v-1.4H632.2v1.4Z" class="g1_3"/>
<path fill-rule="evenodd" d="M817.6,698.2h1.5v-9.1h-1.5v9.1Z" class="g1_3"/>
<path fill-rule="evenodd" d="M118.5,722.6h1.4V698.2h-1.4v24.4Z" class="g1_3"/>
<path fill-rule="evenodd" d="M406.2,722.6h1.4V698.2h-1.4v24.4Z" class="g1_3"/>
<path fill-rule="evenodd" d="M630.8,722.6h1.4V698.2h-1.4v24.4Z" class="g1_3"/>
<path fill-rule="evenodd" d="M817.6,722.6h1.5V698.2h-1.5v24.4Z" class="g1_3"/>
<path fill-rule="evenodd" d="M118.5,731.8h1.4v-9.2h-1.4v9.2Z" class="g1_3"/>
<path fill-rule="evenodd" d="M119.9,724.1H406.2v-1.5H119.9v1.5Z" class="g1_3"/>
<path fill-rule="evenodd" d="M406.2,731.8h1.4v-9.2h-1.4v9.2Z" class="g1_3"/>
<path fill-rule="evenodd" d="M407.6,724.1H630.8v-1.5H407.6v1.5Z" class="g1_3"/>
<path fill-rule="evenodd" d="M630.8,731.8h1.4v-9.2h-1.4v9.2Z" class="g1_3"/>
<path fill-rule="evenodd" d="M632.2,724.1H817.6v-1.5H632.2v1.5Z" class="g1_3"/>
<path fill-rule="evenodd" d="M817.6,731.8h1.5v-9.2h-1.5v9.2Z" class="g1_3"/>
<path fill-rule="evenodd" d="M118.5,756.2h1.4V731.8h-1.4v24.4Z" class="g1_3"/>
<path fill-rule="evenodd" d="M406.2,756.2h1.4V731.8h-1.4v24.4Z" class="g1_3"/>
<path fill-rule="evenodd" d="M630.8,756.2h1.4V731.8h-1.4v24.4Z" class="g1_3"/>
<path fill-rule="evenodd" d="M817.6,756.2h1.5V731.8h-1.5v24.4Z" class="g1_3"/>
<path fill-rule="evenodd" d="M118.5,765.3h1.4v-9.1h-1.4v9.1Z" class="g1_3"/>
<path fill-rule="evenodd" d="M119.9,757.6H406.2v-1.4H119.9v1.4Z" class="g1_3"/>
<path fill-rule="evenodd" d="M406.2,765.3h1.4v-9.1h-1.4v9.1Z" class="g1_3"/>
<path fill-rule="evenodd" d="M407.6,757.6H630.8v-1.4H407.6v1.4Z" class="g1_3"/>
<path fill-rule="evenodd" d="M630.8,765.3h1.4v-9.1h-1.4v9.1Z" class="g1_3"/>
<path fill-rule="evenodd" d="M632.2,757.6H817.6v-1.4H632.2v1.4Z" class="g1_3"/>
<path fill-rule="evenodd" d="M817.6,765.3h1.5v-9.1h-1.5v9.1Z" class="g1_3"/>
<path fill-rule="evenodd" d="M118.5,789.7h1.4V765.3h-1.4v24.4Z" class="g1_3"/>
<path fill-rule="evenodd" d="M406.2,789.7h1.4V765.3h-1.4v24.4Z" class="g1_3"/>
<path fill-rule="evenodd" d="M630.8,789.7h1.4V765.3h-1.4v24.4Z" class="g1_3"/>
<path fill-rule="evenodd" d="M817.6,789.7h1.5V765.3h-1.5v24.4Z" class="g1_3"/>
<path fill-rule="evenodd" d="M118.5,798.9h1.4v-9.2h-1.4v9.2Z" class="g1_3"/>
<path fill-rule="evenodd" d="M119.9,791.2H406.2v-1.5H119.9v1.5Z" class="g1_3"/>
<path fill-rule="evenodd" d="M406.2,798.9h1.4v-9.2h-1.4v9.2Z" class="g1_3"/>
<path fill-rule="evenodd" d="M407.6,791.2H630.8v-1.5H407.6v1.5Z" class="g1_3"/>
<path fill-rule="evenodd" d="M630.8,798.9h1.4v-9.2h-1.4v9.2Z" class="g1_3"/>
<path fill-rule="evenodd" d="M632.2,791.2H817.6v-1.5H632.2v1.5Z" class="g1_3"/>
<path fill-rule="evenodd" d="M817.6,798.9h1.5v-9.2h-1.5v9.2Z" class="g1_3"/>
<path fill-rule="evenodd" d="M118.5,823.3h1.4V798.9h-1.4v24.4Z" class="g1_3"/>
<path fill-rule="evenodd" d="M406.2,823.3h1.4V798.9h-1.4v24.4Z" class="g1_3"/>
<path fill-rule="evenodd" d="M630.8,823.3h1.4V798.9h-1.4v24.4Z" class="g1_3"/>
<path fill-rule="evenodd" d="M817.6,823.3h1.5V798.9h-1.5v24.4Z" class="g1_3"/>
<path fill-rule="evenodd" d="M118.5,832.4h1.4v-9.1h-1.4v9.1Z" class="g1_3"/>
<path fill-rule="evenodd" d="M119.9,824.7H406.2v-1.4H119.9v1.4Z" class="g1_3"/>
<path fill-rule="evenodd" d="M406.2,832.4h1.4v-9.1h-1.4v9.1Z" class="g1_3"/>
<path fill-rule="evenodd" d="M407.6,824.7H630.8v-1.4H407.6v1.4Z" class="g1_3"/>
<path fill-rule="evenodd" d="M630.8,832.4h1.4v-9.1h-1.4v9.1Z" class="g1_3"/>
<path fill-rule="evenodd" d="M632.2,824.7H817.6v-1.4H632.2v1.4Z" class="g1_3"/>
<path fill-rule="evenodd" d="M817.6,832.4h1.5v-9.1h-1.5v9.1Z" class="g1_3"/>
<path fill-rule="evenodd" d="M118.5,856.8h1.4V832.4h-1.4v24.4Z" class="g1_3"/>
<path fill-rule="evenodd" d="M406.2,856.8h1.4V832.4h-1.4v24.4Z" class="g1_3"/>
<path fill-rule="evenodd" d="M630.8,856.8h1.4V832.4h-1.4v24.4Z" class="g1_3"/>
<path fill-rule="evenodd" d="M817.6,856.8h1.5V832.4h-1.5v24.4Z" class="g1_3"/>
<path fill-rule="evenodd" d="M118.5,866h1.4v-9.2h-1.4V866Z" class="g1_3"/>
<path fill-rule="evenodd" d="M119.9,858.3H406.2v-1.5H119.9v1.5Z" class="g1_3"/>
<path fill-rule="evenodd" d="M406.2,866h1.4v-9.2h-1.4V866Z" class="g1_3"/>
<path fill-rule="evenodd" d="M407.6,858.3H630.8v-1.5H407.6v1.5Z" class="g1_3"/>
<path fill-rule="evenodd" d="M630.8,866h1.4v-9.2h-1.4V866Z" class="g1_3"/>
<path fill-rule="evenodd" d="M632.2,858.3H817.6v-1.5H632.2v1.5Z" class="g1_3"/>
<path fill-rule="evenodd" d="M817.6,866h1.5v-9.2h-1.5V866Z" class="g1_3"/>
<path fill-rule="evenodd" d="M118.5,890.4h1.4V866h-1.4v24.4Z" class="g1_3"/>
<path fill-rule="evenodd" d="M406.2,890.4h1.4V866h-1.4v24.4Z" class="g1_3"/>
<path fill-rule="evenodd" d="M630.8,890.4h1.4V866h-1.4v24.4Z" class="g1_3"/>
<path fill-rule="evenodd" d="M817.6,890.4h1.5V866h-1.5v24.4Z" class="g1_3"/>
<path fill-rule="evenodd" d="M118.5,899.6h1.4v-9.2h-1.4v9.2Z" class="g1_3"/>
<path fill-rule="evenodd" d="M119.9,891.9H406.2v-1.5H119.9v1.5Z" class="g1_3"/>
<path fill-rule="evenodd" d="M406.2,899.6h1.4v-9.2h-1.4v9.2Z" class="g1_3"/>
<path fill-rule="evenodd" d="M407.6,891.9H630.8v-1.5H407.6v1.5Z" class="g1_3"/>
<path fill-rule="evenodd" d="M630.8,899.6h1.4v-9.2h-1.4v9.2Z" class="g1_3"/>
<path fill-rule="evenodd" d="M632.2,891.9H817.6v-1.5H632.2v1.5Z" class="g1_3"/>
<path fill-rule="evenodd" d="M817.6,899.6h1.5v-9.2h-1.5v9.2Z" class="g1_3"/>
<path fill-rule="evenodd" d="M118.5,924h1.4V899.6h-1.4V924Z" class="g1_3"/>
<path fill-rule="evenodd" d="M406.2,924h1.4V899.6h-1.4V924Z" class="g1_3"/>
<path fill-rule="evenodd" d="M630.8,924h1.4V899.6h-1.4V924Z" class="g1_3"/>
<path fill-rule="evenodd" d="M817.6,924h1.5V899.6h-1.5V924Z" class="g1_3"/>
<path fill-rule="evenodd" d="M118.5,933.1h1.4V924h-1.4v9.1Z" class="g1_3"/>
<path fill-rule="evenodd" d="M119.9,925.4H406.2V924H119.9v1.4Z" class="g1_3"/>
<path fill-rule="evenodd" d="M406.2,933.1h1.4V924h-1.4v9.1Z" class="g1_3"/>
<path fill-rule="evenodd" d="M407.6,925.4H630.8V924H407.6v1.4Z" class="g1_3"/>
<path fill-rule="evenodd" d="M630.8,933.1h1.4V924h-1.4v9.1Z" class="g1_3"/>
<path fill-rule="evenodd" d="M632.2,925.4H817.6V924H632.2v1.4Z" class="g1_3"/>
<path fill-rule="evenodd" d="M817.6,933.1h1.5V924h-1.5v9.1Z" class="g1_3"/>
<path fill-rule="evenodd" d="M118.5,957.5h1.4V933.1h-1.4v24.4Z" class="g1_3"/>
<path fill-rule="evenodd" d="M406.2,957.5h1.4V933.1h-1.4v24.4Z" class="g1_3"/>
<path fill-rule="evenodd" d="M630.8,957.5h1.4V933.1h-1.4v24.4Z" class="g1_3"/>
<path fill-rule="evenodd" d="M817.6,957.5h1.5V933.1h-1.5v24.4Z" class="g1_3"/>
<path fill-rule="evenodd" d="M118.5,966.7h1.4v-9.2h-1.4v9.2Z" class="g1_3"/>
<path fill-rule="evenodd" d="M119.9,959H406.2v-1.5H119.9V959Z" class="g1_3"/>
<path fill-rule="evenodd" d="M406.2,966.7h1.4v-9.2h-1.4v9.2Z" class="g1_3"/>
<path fill-rule="evenodd" d="M407.6,959H630.8v-1.5H407.6V959Z" class="g1_3"/>
<path fill-rule="evenodd" d="M630.8,966.7h1.4v-9.2h-1.4v9.2Z" class="g1_3"/>
<path fill-rule="evenodd" d="M632.2,959H817.6v-1.5H632.2V959Z" class="g1_3"/>
<path fill-rule="evenodd" d="M817.6,966.7h1.5v-9.2h-1.5v9.2Z" class="g1_3"/>
<path fill-rule="evenodd" d="M118.5,991.3h1.4V966.7h-1.4v24.6Z" class="g1_3"/>
<path fill-rule="evenodd" d="M406.2,991.3h1.4V966.7h-1.4v24.6Z" class="g1_3"/>
<path fill-rule="evenodd" d="M630.8,991.3h1.4V966.7h-1.4v24.6Z" class="g1_3"/>
<path fill-rule="evenodd" d="M817.6,991.3h1.5V966.7h-1.5v24.6Z" class="g1_3"/>
<path fill-rule="evenodd" d="M118.5,1000.4h1.4v-9.1h-1.4v9.1Z" class="g1_3"/>
<path fill-rule="evenodd" d="M119.9,992.7H406.2v-1.4H119.9v1.4Z" class="g1_3"/>
<path fill-rule="evenodd" d="M406.2,1000.4h1.4v-9.1h-1.4v9.1Z" class="g1_3"/>
<path fill-rule="evenodd" d="M407.6,992.7H630.8v-1.4H407.6v1.4Z" class="g1_3"/>
<path fill-rule="evenodd" d="M630.8,1000.4h1.4v-9.1h-1.4v9.1Z" class="g1_3"/>
<path fill-rule="evenodd" d="M632.2,992.7H817.6v-1.4H632.2v1.4Z" class="g1_3"/>
<path fill-rule="evenodd" d="M817.6,1000.4h1.5v-9.1h-1.5v9.1Z" class="g1_3"/>
<path fill-rule="evenodd" d="M118.5,1024.8h1.4v-24.4h-1.4v24.4Z" class="g1_3"/>
<path fill-rule="evenodd" d="M118.5,1026.3h1.4v-1.5h-1.4v1.5Z" class="g1_3"/>
<path fill-rule="evenodd" d="M118.5,1026.3h1.4v-1.5h-1.4v1.5Z" class="g1_3"/>
<path fill-rule="evenodd" d="M119.9,1026.3H406.2v-1.5H119.9v1.5Z" class="g1_3"/>
<path fill-rule="evenodd" d="M406.2,1024.8h1.4v-24.4h-1.4v24.4Z" class="g1_3"/>
<path fill-rule="evenodd" d="M406.2,1026.3h1.4v-1.5h-1.4v1.5Z" class="g1_3"/>
<path fill-rule="evenodd" d="M407.6,1026.3H630.8v-1.5H407.6v1.5Z" class="g1_3"/>
<path fill-rule="evenodd" d="M630.8,1024.8h1.4v-24.4h-1.4v24.4Z" class="g1_3"/>
<path fill-rule="evenodd" d="M630.8,1026.3h1.4v-1.5h-1.4v1.5Z" class="g1_3"/>
<path fill-rule="evenodd" d="M632.2,1026.3H817.6v-1.5H632.2v1.5Z" class="g1_3"/>
<path fill-rule="evenodd" d="M817.6,1024.8h1.5v-24.4h-1.5v24.4Z" class="g1_3"/>
<path fill-rule="evenodd" d="M817.6,1026.3h1.5v-1.5h-1.5v1.5Z" class="g1_3"/>
<path fill-rule="evenodd" d="M817.6,1026.3h1.5v-1.5h-1.5v1.5Z" class="g1_3"/>
<path fill-rule="evenodd" d="M110,508.1h1.5v-9.2H110v9.2Z" class="g1_3"/>
<path fill-rule="evenodd" d="M110,500.4h1.5v-1.5H110v1.5Z" class="g1_3"/>
<path fill-rule="evenodd" d="M111.5,500.4H825.1v-1.5H111.5v1.5Z" class="g1_3"/>
<path fill-rule="evenodd" d="M825.2,508.1h1.5v-9.2h-1.5v9.2Z" class="g1_3"/>
<path fill-rule="evenodd" d="M825.2,500.4h1.5v-1.5h-1.5v1.5Z" class="g1_3"/>
<path fill-rule="evenodd" d="M110,1050.7h1.5V508.1H110v542.6Z" class="g1_3"/>
<path fill-rule="evenodd" d="M110,1052.1h1.5v-1.4H110v1.4Z" class="g1_3"/>
<path fill-rule="evenodd" d="M110,1052.1h1.5v-1.4H110v1.4Z" class="g1_3"/>
<path fill-rule="evenodd" d="M111.5,1052.1H825.1v-1.4H111.5v1.4Z" class="g1_3"/>
<path fill-rule="evenodd" d="M825.2,1050.7h1.5V508.1h-1.5v542.6Z" class="g1_3"/>
<path fill-rule="evenodd" d="M825.2,1052.1h1.5v-1.4h-1.5v1.4Z" class="g1_3"/>
<path fill-rule="evenodd" d="M825.2,1052.1h1.5v-1.4h-1.5v1.4Z" class="g1_3"/>
</svg>