<?xml version="1.0" encoding="UTF-8" standalone="no"?>
<!DOCTYPE svg PUBLIC "-//W3C//DTD SVG 1.1//EN"
"http://www.w3.org/Graphics/SVG/1.1/DTD/svg11.dtd">
<svg viewBox="0 0 935 1210" version="1.1" xmlns="http://www.w3.org/2000/svg" xmlns:xlink="http://www.w3.org/1999/xlink">
<defs>
<clipPath id="c0_254"><path d="M398.3,458.2V317.9H825.2V458.2Z"/></clipPath>
<clipPath id="c1_254"><path d="M398.3,772.1V631.9H825.2V772.1Z"/></clipPath>
<clipPath id="c2_254"><path d="M194.2,875.8v-87H396.8v87Z"/></clipPath>
<clipPath id="c3_254"><path d="M398.3,875.8v-87H825.2v87Z"/></clipPath>
<style type="text/css"><![CDATA[
.g0_254{
fill: #C0C0C0;
fill-opacity: 0.50196;
}
.g1_254{
fill: #FFFFFF;
}
.g2_254{
}
]]></style>
</defs>
<path fill-rule="evenodd" d="M167,938.7C151.6,923.3,136.1,907.8,120.7,892.4c3.1,-3.2,6.3,-6.3,9.4,-9.5c14.6,7.3,29.4,14.3,44.1,21.6c4,2.1,7.1,3.6,9.1,4.6c-1.2,-2.2,-2.8,-5.5,-4.9,-9.9c-7.1,-14.5,-13.9,-29.1,-20.9,-43.6c2.8,-2.9,5.6,-5.7,8.4,-8.5c15.5,15.5,30.9,30.9,46.4,46.4c-2,2,-4.1,4,-6.1,6C193.3,886.6,180.4,873.7,167.4,860.7c8.5,17.5,16.6,35.1,25,52.6c-1.8,1.9,-3.7,3.8,-5.6,5.7c-17.7,-8.7,-35.5,-17.1,-53.2,-25.8c13.2,13.2,26.3,26.3,39.5,39.5c-2,2,-4.1,4,-6.1,6Z" class="g0_254"/>
<path fill-rule="evenodd" d="M235.6,870.1C226.1,848.7,217,827,207.5,805.6c2.2,-2.3,4.5,-4.5,6.7,-6.8c21.9,9.2,43.9,17.8,65.8,27c-2.4,2.3,-4.8,4.7,-7.2,7.1c-6.5,-2.9,-13,-5.6,-19.5,-8.5c-6.6,6.6,-13.3,13.2,-19.9,19.8c3,6.4,5.9,12.9,8.9,19.3c-2.3,2.2,-4.5,4.4,-6.7,6.6Zm-5.3,-32.7c5.3,-5.3,10.7,-10.7,16,-16.1c-5.9,-2.6,-11.9,-5.2,-17.8,-7.8c-5.4,-2.4,-9.7,-4.5,-12.9,-6.3c2.3,3.6,4.4,7.4,6.3,11.4c2.8,6.3,5.5,12.6,8.4,18.8Z" class="g0_254"/>
<path fill-rule="evenodd" d="M303.2,802.5C287.8,787.1,272.3,771.6,256.9,756.2c3.1,-3.2,6.3,-6.3,9.4,-9.5c14.6,7.3,29.4,14.3,44,21.6c4.1,2.1,7.2,3.6,9.2,4.6c-1.2,-2.2,-2.8,-5.5,-4.9,-9.9c-7.1,-14.5,-13.9,-29.1,-20.9,-43.6c2.8,-2.8,5.6,-5.7,8.4,-8.5c15.5,15.5,30.9,30.9,46.4,46.4c-2,2,-4.1,4,-6.1,6C329.5,750.4,316.6,737.5,303.6,724.5c8.5,17.5,16.6,35.1,25,52.6c-1.8,1.9,-3.7,3.8,-5.6,5.7C305.3,774.1,287.5,765.7,269.8,757c13.2,13.2,26.3,26.3,39.5,39.5c-2,2,-4.1,4,-6.1,6Z" class="g0_254"/>
<path fill-rule="evenodd" d="M338.9,733.3c-6.2,-6.3,-9,-12.6,-8.5,-19.2c.4,-5.4,2.8,-10.2,7.1,-14.5c4.7,-4.7,10.1,-7.1,16.1,-7c6,0,11.7,2.7,17,8c4.3,4.3,7,8.4,8.2,12.2c1.2,3.8,1.1,7.6,0,11.5c-1.1,4,-3.2,7.4,-6.3,10.4c-4.8,4.8,-10.2,7.3,-16.1,7.1c-6,0,-11.8,-2.9,-17.5,-8.5Zm6,-6c4.3,4.3,8.5,6.5,12.5,6.8c4.1,.2,7.6,-1.1,10.5,-4.1c2.9,-2.8,4.3,-6.4,4,-10.4c-.3,-4.1,-2.6,-8.3,-7,-12.7c-4.1,-4.2,-8.3,-6.3,-12.3,-6.6c-4.1,-.2,-7.6,1.1,-10.4,4c-2.9,2.9,-4.3,6.4,-4.1,10.5c.3,4,2.5,8.2,6.8,12.5Z" class="g0_254"/>
<path fill-rule="evenodd" d="M394.7,711.1C379.2,695.6,363.8,680.2,348.3,664.7c2,-2,3.9,-3.9,5.9,-5.8c5.5,5.5,11,11.1,16.6,16.6c-.4,-5.8,1.5,-10.8,5.7,-14.9c2.5,-2.6,5.2,-4.3,8.1,-5.2c2.8,-.9,5.5,-.9,8.1,.1c2.5,.9,5.4,3,8.7,6.3c7.1,7.1,14.2,14.2,21.3,21.3c-2,1.9,-3.9,3.9,-5.8,5.8c-7.1,-7.1,-14.2,-14.2,-21.3,-21.3c-2.9,-2.8,-5.6,-4.3,-8.1,-4.3c-2.6,-.1,-5,1.1,-7.3,3.4c-1.7,1.7,-2.9,3.8,-3.6,6.1c-.6,2.5,-.5,4.8,.3,6.9c.9,2.1,2.6,4.5,5.2,7.2c6.2,6.1,12.3,12.2,18.4,18.3c-1.9,2,-3.9,3.9,-5.8,5.9Z" class="g0_254"/>
<path fill-rule="evenodd" d="M391.8,634.4c-2.2,-2.2,-4.4,-4.4,-6.6,-6.6c2,-1.9,3.9,-3.9,5.9,-5.8c2.1,2.2,4.3,4.4,6.5,6.5c-2,2,-3.9,3.9,-5.8,5.9Zm39.8,39.8C420.4,663,409.2,651.8,398,640.6c1.9,-1.9,3.9,-3.9,5.8,-5.8c11.2,11.2,22.4,22.4,33.6,33.5c-1.9,2,-3.9,3.9,-5.8,5.9Z" class="g0_254"/>
<path fill-rule="evenodd" d="M459,625.2c2.2,-1.8,4.5,-3.6,6.7,-5.3c2.5,4.3,3.4,8.8,2.7,13.2c-.6,4.5,-3,8.7,-6.9,12.7c-5.1,5,-10.5,7.6,-16.5,7.4c-6,-.1,-11.7,-2.8,-17.2,-8.3c-5.6,-5.6,-8.5,-11.5,-8.7,-17.6c-.2,-6.1,2.2,-11.5,6.9,-16.3c4.6,-4.5,9.9,-6.8,15.9,-6.6c6,.2,11.7,3,17.2,8.5c.4,.3,.9,.9,1.5,1.5c-8.5,8.6,-17.1,17.1,-25.6,25.7c3.9,3.4,7.8,5.2,11.7,5.2c3.9,.1,7.2,-1.3,10.1,-4.2c2.1,-2.1,3.4,-4.5,3.8,-7.1c.4,-2.6,-.1,-5.6,-1.6,-8.8Zm-28.3,9.9c6.4,-6.4,12.7,-12.8,19.1,-19.2c-3,-2.6,-5.9,-3.9,-8.5,-4.2c-4,-.3,-7.6,1,-10.5,3.9c-2.7,2.7,-4.1,5.9,-4.1,9.4c-.1,3.6,1.2,6.9,4,10.1Z" class="g0_254"/>
<path fill-rule="evenodd" d="M483.1,622.6C471.9,611.4,460.7,600.2,449.5,589.1c1.8,-1.8,3.5,-3.5,5.2,-5.3c1.6,1.6,3.2,3.2,4.7,4.7c-.5,-2.6,-.4,-5.4,.4,-8.2c.7,-2.8,2.3,-5.3,4.6,-7.6c2.6,-2.6,5.1,-4.2,7.8,-4.7c2.7,-.6,5.2,-.4,7.8,.8c-1.3,-6.6,.3,-12.1,4.7,-16.4c3.4,-3.4,7,-5.2,10.6,-5.2c3.7,.1,7.5,2,11.3,5.8c7.7,7.7,15.4,15.4,23.1,23.1c-2,1.9,-3.9,3.8,-5.8,5.8c-7.1,-7.1,-14.1,-14.1,-21.2,-21.2c-2.3,-2.3,-4.1,-3.7,-5.5,-4.4c-1.3,-.6,-2.8,-.7,-4.4,-.3c-1.6,.4,-3.1,1.3,-4.4,2.6c-2.5,2.4,-3.7,5.2,-3.7,8.3c0,3.2,1.7,6.5,5.1,10c6.5,6.5,13.1,13,19.5,19.5c-1.9,1.9,-3.8,3.9,-5.8,5.8C496.3,595,489,587.7,481.7,580.4c-2.5,-2.5,-4.9,-3.9,-7.1,-4.3c-2.2,-.3,-4.4,.6,-6.6,2.8c-1.6,1.7,-2.7,3.5,-3.2,5.8c-.5,2.2,-.4,4.5,.6,6.7c1,2.2,3,4.9,6.1,8c5.8,5.8,11.6,11.6,17.4,17.4c-1.9,2,-3.8,3.9,-5.8,5.8Z" class="g0_254"/>
<path fill-rule="evenodd" d="M551,533.1c2.3,-1.7,4.5,-3.5,6.8,-5.3c2.5,4.4,3.3,8.8,2.7,13.3c-.6,4.5,-3,8.7,-7,12.7c-5,5,-10.5,7.5,-16.5,7.4c-5.9,-.2,-11.7,-2.8,-17.1,-8.3c-5.7,-5.7,-8.5,-11.5,-8.7,-17.6c-.2,-6.1,2.1,-11.5,6.9,-16.3c4.6,-4.6,9.8,-6.9,15.8,-6.7c6,.2,11.7,3,17.3,8.6c.3,.3,.8,.8,1.5,1.5c-8.6,8.5,-17.1,17.1,-25.6,25.6c3.9,3.5,7.8,5.2,11.6,5.3c3.9,.1,7.3,-1.4,10.2,-4.2c2.1,-2.2,3.4,-4.5,3.8,-7.2c.4,-2.6,-.1,-5.5,-1.7,-8.8ZM522.7,543c6.4,-6.4,12.8,-12.8,19.2,-19.2c-3.1,-2.5,-6,-3.9,-8.6,-4.1c-4,-.4,-7.5,1,-10.5,3.9c-2.7,2.7,-4.1,5.8,-4.1,9.4c-.1,3.6,1.2,6.9,4,10Z" class="g0_254"/>
<path fill-rule="evenodd" d="M575.1,530.6C564,519.4,552.8,508.2,541.6,497c1.7,-1.7,3.5,-3.5,5.2,-5.2c1.6,1.6,3.2,3.2,4.8,4.8c-1.2,-6.3,.6,-11.8,5.4,-16.5c2.1,-2.1,4.3,-3.7,6.8,-4.7c2.4,-.9,4.7,-1.3,6.7,-1c2.1,.3,4.1,1.2,6.1,2.4c1.2,.8,3.2,2.6,5.8,5.2c6.9,6.9,13.8,13.8,20.7,20.7c-2,1.9,-3.9,3.9,-5.8,5.8c-6.8,-6.8,-13.7,-13.6,-20.5,-20.4c-2.3,-2.3,-4.3,-3.8,-5.9,-4.6c-1.6,-.7,-3.3,-.7,-5.1,-.3c-1.9,.5,-3.5,1.5,-5.1,3c-2.5,2.5,-3.9,5.4,-4.1,8.8c-.2,3.3,1.7,7.1,6,11.4c6.2,6.2,12.3,12.3,18.4,18.4c-2,1.9,-3.9,3.9,-5.9,5.8Z" class="g0_254"/>
<path fill-rule="evenodd" d="M643.2,462.5C629.6,448.9,616,435.3,602.3,421.6c-5.2,5.2,-10.4,10.5,-15.6,15.7c-1.8,-1.8,-3.7,-3.7,-5.5,-5.5c12.6,-12.5,25.1,-25.1,37.6,-37.6c1.8,1.8,3.7,3.7,5.5,5.5c-5.2,5.2,-10.5,10.4,-15.7,15.7c13.6,13.6,27.3,27.2,40.9,40.9c-2.1,2,-4.2,4.1,-6.3,6.2Z" class="g0_254"/>
<path fill-rule="evenodd" d="M689.1,408.3c-.3,4,-1.1,7.3,-2.4,10c-1.2,2.8,-3,5.3,-5.3,7.6c-3.8,3.8,-7.6,5.7,-11.4,5.9c-3.8,.2,-7.1,-1,-10,-3.8c-1.6,-1.6,-2.7,-3.6,-3.3,-5.7c-.6,-2.1,-.7,-4.2,-.3,-6.3c.4,-2,1.2,-4,2.3,-6c.9,-1.4,2.4,-3.4,4.4,-6c4.1,-5.3,7,-9.4,8.4,-12.4c-.8,-.8,-1.2,-1.3,-1.5,-1.5c-2.3,-2.3,-4.5,-3.4,-6.5,-3.3c-2.8,.2,-5.6,1.8,-8.6,4.8c-2.7,2.7,-4.3,5.2,-4.6,7.4c-.4,2.3,.3,4.9,2.1,7.9c-2.2,1.6,-4.3,3.3,-6.5,4.9C644,409,643,406.2,642.7,403.5c-.3,-2.7,.3,-5.5,1.7,-8.5c1.5,-3.1,3.7,-6,6.7,-9c2.9,-2.9,5.6,-5,8.1,-6.1c2.5,-1.2,4.7,-1.7,6.6,-1.5c1.9,.2,3.8,.8,5.7,2c1.2,.8,3,2.5,5.6,5c2.5,2.5,5,5,7.5,7.6c5.3,5.3,8.8,8.5,10.4,9.6c1.7,1.2,3.5,2,5.5,2.6c-2,2,-4,4.1,-6,6.1c-1.8,-.6,-3.6,-1.6,-5.4,-3ZM676,396.1c-1.3,3,-3.8,6.8,-7.4,11.6c-2,2.8,-3.4,4.8,-3.9,6.3c-.6,1.4,-.8,2.8,-.5,4.1c.3,1.4,.9,2.5,1.9,3.5c1.5,1.5,3.4,2.2,5.6,2c2.2,-.1,4.4,-1.3,6.6,-3.6c2.3,-2.2,3.8,-4.7,4.6,-7.4c.8,-2.7,.8,-5.3,-.1,-7.8c-.7,-1.9,-2.3,-4.1,-4.8,-6.6c-.7,-.7,-1.3,-1.4,-2,-2.1Z" class="g0_254"/>
<path fill-rule="evenodd" d="M707.7,398C696.5,386.8,685.3,375.7,674.1,364.5c1.8,-1.8,3.5,-3.5,5.3,-5.3c1.6,1.6,3.2,3.2,4.8,4.8c-1.3,-6.2,.6,-11.7,5.4,-16.5c2,-2.1,4.3,-3.6,6.8,-4.6c2.4,-1,4.7,-1.4,6.7,-1c2.1,.3,4.1,1.1,6,2.4c1.3,.8,3.3,2.5,5.9,5.2c6.9,6.8,13.8,13.7,20.6,20.6c-1.9,1.9,-3.8,3.9,-5.8,5.8C723,369.1,716.2,362.3,709.4,355.5c-2.3,-2.3,-4.3,-3.8,-5.9,-4.5c-1.6,-.7,-3.3,-.8,-5.2,-.4c-1.8,.5,-3.5,1.5,-5,3.1c-2.5,2.5,-3.9,5.4,-4.1,8.7c-.3,3.4,1.7,7.2,6,11.5c6.1,6.1,12.2,12.2,18.3,18.3c-1.9,1.9,-3.8,3.9,-5.8,5.8Z" class="g0_254"/>
<path fill-rule="evenodd" d="M704.8,321.3c-2.2,-2.1,-4.4,-4.3,-6.5,-6.5c1.9,-2,3.8,-3.9,5.8,-5.8c2.1,2.1,4.3,4.3,6.5,6.5c-1.9,2,-3.9,3.9,-5.8,5.8Zm39.8,39.9C733.4,350,722.2,338.8,711,327.6c2,-2,3.9,-3.9,5.8,-5.9c11.2,11.2,22.4,22.4,33.6,33.6c-1.9,2,-3.9,3.9,-5.8,5.9Z" class="g0_254"/>
<path fill-rule="evenodd" d="M759.3,346.5C748.1,335.3,736.9,324.1,725.7,312.9c1.8,-1.8,3.5,-3.5,5.2,-5.2c1.6,1.5,3.2,3.1,4.7,4.7c-.6,-2.7,-.4,-5.5,.3,-8.3c.8,-2.8,2.4,-5.3,4.7,-7.6c2.5,-2.6,5.1,-4.2,7.8,-4.7c2.7,-.6,5.2,-.3,7.8,.9c-1.3,-6.7,.3,-12.2,4.7,-16.5c3.4,-3.4,6.9,-5.2,10.6,-5.1c3.7,0,7.5,1.9,11.3,5.7c7.7,7.7,15.4,15.4,23,23.1c-1.9,1.9,-3.8,3.9,-5.7,5.8C793,298.6,786,291.6,778.9,284.5c-2.3,-2.2,-4.1,-3.7,-5.5,-4.3c-1.4,-.6,-2.9,-.8,-4.5,-.4c-1.6,.4,-3,1.3,-4.4,2.6c-2.4,2.4,-3.6,5.2,-3.6,8.4c0,3.1,1.7,6.5,5.1,9.9c6.5,6.5,13,13,19.5,19.5c-1.9,2,-3.9,3.9,-5.8,5.8c-7.3,-7.2,-14.5,-14.5,-21.8,-21.8c-2.5,-2.5,-4.9,-3.9,-7.1,-4.2c-2.2,-.4,-4.4,.6,-6.6,2.7c-1.6,1.7,-2.7,3.6,-3.2,5.8c-.6,2.3,-.4,4.5,.6,6.8c1,2.2,3,4.8,6.1,7.9c5.8,5.8,11.6,11.6,17.4,17.4c-1.9,2,-3.9,3.9,-5.8,5.9Z" class="g0_254"/>
<path fill-rule="evenodd" d="M111.5,205.2h81.2V111.5H111.5v93.7Z" class="g1_254"/>
<path fill-rule="evenodd" d="M194.2,205.2H396.8V111.5H194.2v93.7Z" class="g1_254"/>
<path fill-rule="evenodd" d="M398.3,205.2H825.2V111.5H398.3v93.7Z" class="g1_254"/>
<path fill-rule="evenodd" d="M405.2,162.6H818.4V119.2H405.2v43.4Z" class="g1_254"/>
<path fill-rule="evenodd" d="M110,119.2h1.5V110H110v9.2Z" class="g2_254"/>
<path fill-rule="evenodd" d="M110,111.5h1.5V110H110v1.5Z" class="g2_254"/>
<path fill-rule="evenodd" d="M111.5,111.5h81.2V110H111.5v1.5Z" class="g2_254"/>
<path fill-rule="evenodd" d="M111.5,119.2h81.2v-7.7H111.5v7.7Z" class="g1_254"/>
<path fill-rule="evenodd" d="M192.7,119.2h1.5v-7.7h-1.5v7.7Z" class="g2_254"/>
<path fill-rule="evenodd" d="M192.7,111.5h1.5V110h-1.5v1.5Z" class="g2_254"/>
<path fill-rule="evenodd" d="M194.2,111.5H396.8V110H194.2v1.5Z" class="g2_254"/>
<path fill-rule="evenodd" d="M194.2,119.2H396.8v-7.7H194.2v7.7Z" class="g1_254"/>
<path fill-rule="evenodd" d="M396.8,119.2h1.5v-7.7h-1.5v7.7Z" class="g2_254"/>
<path fill-rule="evenodd" d="M396.8,111.5h1.5V110h-1.5v1.5Z" class="g2_254"/>
<path fill-rule="evenodd" d="M398.3,111.5H825.2V110H398.3v1.5Z" class="g2_254"/>
<path fill-rule="evenodd" d="M398.3,119.2H825.2v-7.7H398.3v7.7Z" class="g1_254"/>
<path fill-rule="evenodd" d="M825.2,119.2h1.5V110h-1.5v9.2Z" class="g2_254"/>
<path fill-rule="evenodd" d="M825.2,111.5h1.5V110h-1.5v1.5Z" class="g2_254"/>
<path fill-rule="evenodd" d="M110.8,205.2h82.7v-7.7H110.8v7.7Z" class="g1_254"/>
<path fill-rule="evenodd" d="M110,205.2h1.5v-86H110v86Z" class="g2_254"/>
<path fill-rule="evenodd" d="M193.4,205.2H397.5v-7.7H193.4v7.7Z" class="g1_254"/>
<path fill-rule="evenodd" d="M192.7,205.2h1.5v-86h-1.5v86Z" class="g2_254"/>
<path fill-rule="evenodd" d="M397.5,205.2H825.9v-7.7H397.5v7.7Z" class="g1_254"/>
<path fill-rule="evenodd" d="M396.8,205.2h1.5v-86h-1.5v86Z" class="g2_254"/>
<path fill-rule="evenodd" d="M825.2,205.2h1.5v-86h-1.5v86Z" class="g2_254"/>
<path fill-rule="evenodd" d="M111.5,308.9h81.2V206.6H111.5V308.9Z" class="g1_254"/>
<path fill-rule="evenodd" d="M118.5,287.9h67.3V227.5H118.5v60.4Z" class="g1_254"/>
<path fill-rule="evenodd" d="M194.2,308.9H396.8V206.6H194.2V308.9Z" class="g1_254"/>
<path fill-rule="evenodd" d="M201.1,287.9H389.8V227.5H201.1v60.4Z" class="g1_254"/>
<path fill-rule="evenodd" d="M398.3,308.9H825.2V206.6H398.3V308.9Z" class="g1_254"/>
<path fill-rule="evenodd" d="M405.2,257.8H818.4V214.3H405.2v43.5Z" class="g1_254"/>
<path fill-rule="evenodd" d="M405.2,301.2H818.4V257.8H405.2v43.4Z" class="g1_254"/>
<path fill-rule="evenodd" d="M110,214.3h1.5v-9.1H110v9.1Z" class="g2_254"/>
<path fill-rule="evenodd" d="M111.5,206.6h81.2v-1.4H111.5v1.4Z" class="g2_254"/>
<path fill-rule="evenodd" d="M111.5,214.3h81.2v-7.7H111.5v7.7Z" class="g1_254"/>
<path fill-rule="evenodd" d="M192.7,214.3h1.5v-9.1h-1.5v9.1Z" class="g2_254"/>
<path fill-rule="evenodd" d="M194.2,206.6H396.8v-1.4H194.2v1.4Z" class="g2_254"/>
<path fill-rule="evenodd" d="M194.2,214.3H396.8v-7.7H194.2v7.7Z" class="g1_254"/>
<path fill-rule="evenodd" d="M396.8,214.3h1.5v-9.1h-1.5v9.1Z" class="g2_254"/>
<path fill-rule="evenodd" d="M398.3,206.6H825.2v-1.4H398.3v1.4Z" class="g2_254"/>
<path fill-rule="evenodd" d="M398.3,214.3H825.2v-7.7H398.3v7.7Z" class="g1_254"/>
<path fill-rule="evenodd" d="M825.2,214.3h1.5v-9.1h-1.5v9.1Z" class="g2_254"/>
<path fill-rule="evenodd" d="M110.8,308.8h82.7v-7.7H110.8v7.7Z" class="g1_254"/>
<path fill-rule="evenodd" d="M110,308.8h1.5V214.3H110v94.5Z" class="g2_254"/>
<path fill-rule="evenodd" d="M193.4,308.8H397.5v-7.7H193.4v7.7Z" class="g1_254"/>
<path fill-rule="evenodd" d="M192.7,308.8h1.5V214.3h-1.5v94.5Z" class="g2_254"/>
<path fill-rule="evenodd" d="M397.5,308.8H825.9v-7.7H397.5v7.7Z" class="g1_254"/>
<path fill-rule="evenodd" d="M396.8,308.8h1.5V214.3h-1.5v94.5Z" class="g2_254"/>
<path fill-rule="evenodd" d="M825.2,308.8h1.5V214.3h-1.5v94.5Z" class="g2_254"/>
<path fill-rule="evenodd" d="M111.5,465.9h81.2V310.2H111.5V465.9Z" class="g1_254"/>
<path fill-rule="evenodd" d="M118.5,418.3h67.3V357.9H118.5v60.4Z" class="g1_254"/>
<path fill-rule="evenodd" d="M194.2,465.9H396.8V310.2H194.2V465.9Z" class="g1_254"/>
<path fill-rule="evenodd" d="M201.1,418.3H389.8V357.9H201.1v60.4Z" class="g1_254"/>
<path fill-rule="evenodd" d="M398.3,465.9H825.2V310.2H398.3V465.9Z" class="g1_254"/>
<path clip-path="url(#c0_254)" fill-rule="evenodd" d="M405.2,361.4H818.4V317.9H405.2v43.5Z" class="g1_254"/>
<path fill-rule="evenodd" d="M405.2,388H818.4V361.4H405.2V388Z" class="g1_254"/>
<path fill-rule="evenodd" d="M405.2,414.8H818.4V388H405.2v26.8Z" class="g1_254"/>
<path fill-rule="evenodd" d="M405.2,458.2H818.4V414.8H405.2v43.4Z" class="g1_254"/>
<path fill-rule="evenodd" d="M110,317.9h1.5v-9.1H110v9.1Z" class="g2_254"/>
<path fill-rule="evenodd" d="M111.5,310.2h81.2v-1.4H111.5v1.4Z" class="g2_254"/>
<path fill-rule="evenodd" d="M111.5,317.9h81.2v-7.7H111.5v7.7Z" class="g1_254"/>
<path fill-rule="evenodd" d="M192.7,317.9h1.5v-9.1h-1.5v9.1Z" class="g2_254"/>
<path fill-rule="evenodd" d="M194.2,310.2H396.8v-1.4H194.2v1.4Z" class="g2_254"/>
<path fill-rule="evenodd" d="M194.2,317.9H396.8v-7.7H194.2v7.7Z" class="g1_254"/>
<path fill-rule="evenodd" d="M396.8,317.9h1.5v-9.1h-1.5v9.1Z" class="g2_254"/>
<path fill-rule="evenodd" d="M398.3,310.2H825.2v-1.4H398.3v1.4Z" class="g2_254"/>
<path fill-rule="evenodd" d="M398.3,317.9H825.2v-7.7H398.3v7.7Z" class="g1_254"/>
<path fill-rule="evenodd" d="M825.2,317.9h1.5v-9.1h-1.5v9.1Z" class="g2_254"/>
<path fill-rule="evenodd" d="M110.8,465.7h82.7V458H110.8v7.7Z" class="g1_254"/>
<path fill-rule="evenodd" d="M110,465.7h1.5V317.9H110V465.7Z" class="g2_254"/>
<path fill-rule="evenodd" d="M193.4,465.7H397.5V458H193.4v7.7Z" class="g1_254"/>
<path fill-rule="evenodd" d="M192.7,465.7h1.5V317.9h-1.5V465.7Z" class="g2_254"/>
<path fill-rule="evenodd" d="M397.5,465.7H825.9V458H397.5v7.7Z" class="g1_254"/>
<path fill-rule="evenodd" d="M396.8,465.7h1.5V317.9h-1.5V465.7Z" class="g2_254"/>
<path fill-rule="evenodd" d="M825.2,465.7h1.5V317.9h-1.5V465.7Z" class="g2_254"/>
<path fill-rule="evenodd" d="M111.5,622.9h81.2V467.2H111.5V622.9Z" class="g1_254"/>
<path fill-rule="evenodd" d="M118.5,575.2h67.3V514.9H118.5v60.3Z" class="g1_254"/>
<path fill-rule="evenodd" d="M194.2,622.9H396.8V467.2H194.2V622.9Z" class="g1_254"/>
<path fill-rule="evenodd" d="M201.1,575.2H389.8V514.9H201.1v60.3Z" class="g1_254"/>
<path fill-rule="evenodd" d="M398.3,622.9H825.2V467.2H398.3V622.9Z" class="g1_254"/>
<path fill-rule="evenodd" d="M405.2,518.4H818.4V474.9H405.2v43.5Z" class="g1_254"/>
<path fill-rule="evenodd" d="M405.2,545.1H818.4V518.4H405.2v26.7Z" class="g1_254"/>
<path fill-rule="evenodd" d="M405.2,571.7H818.4V545.1H405.2v26.6Z" class="g1_254"/>
<path fill-rule="evenodd" d="M405.2,615.2H818.4V571.7H405.2v43.5Z" class="g1_254"/>
<path fill-rule="evenodd" d="M110,474.9h1.5v-9.2H110v9.2Z" class="g2_254"/>
<path fill-rule="evenodd" d="M111.5,467.2h81.2v-1.5H111.5v1.5Z" class="g2_254"/>
<path fill-rule="evenodd" d="M111.5,474.9h81.2v-7.7H111.5v7.7Z" class="g1_254"/>
<path fill-rule="evenodd" d="M192.7,474.9h1.5v-9.2h-1.5v9.2Z" class="g2_254"/>
<path fill-rule="evenodd" d="M194.2,467.2H396.8v-1.5H194.2v1.5Z" class="g2_254"/>
<path fill-rule="evenodd" d="M194.2,474.9H396.8v-7.7H194.2v7.7Z" class="g1_254"/>
<path fill-rule="evenodd" d="M396.8,474.9h1.5v-9.2h-1.5v9.2Z" class="g2_254"/>
<path fill-rule="evenodd" d="M398.3,467.2H825.2v-1.5H398.3v1.5Z" class="g2_254"/>
<path fill-rule="evenodd" d="M398.3,474.9H825.2v-7.7H398.3v7.7Z" class="g1_254"/>
<path fill-rule="evenodd" d="M825.2,474.9h1.5v-9.2h-1.5v9.2Z" class="g2_254"/>
<path fill-rule="evenodd" d="M110.8,622.7h82.7V615H110.8v7.7Z" class="g1_254"/>
<path fill-rule="evenodd" d="M110,622.7h1.5V474.9H110V622.7Z" class="g2_254"/>
<path fill-rule="evenodd" d="M193.4,622.7H397.5V615H193.4v7.7Z" class="g1_254"/>
<path fill-rule="evenodd" d="M192.7,622.7h1.5V474.9h-1.5V622.7Z" class="g2_254"/>
<path fill-rule="evenodd" d="M397.5,622.7H825.9V615H397.5v7.7Z" class="g1_254"/>
<path fill-rule="evenodd" d="M396.8,622.7h1.5V474.9h-1.5V622.7Z" class="g2_254"/>
<path fill-rule="evenodd" d="M825.2,622.7h1.5V474.9h-1.5V622.7Z" class="g2_254"/>
<path fill-rule="evenodd" d="M111.5,779.8h81.2V624.2H111.5V779.8Z" class="g1_254"/>
<path fill-rule="evenodd" d="M118.5,732.2h67.3V671.8H118.5v60.4Z" class="g1_254"/>
<path fill-rule="evenodd" d="M194.2,779.8H396.8V624.2H194.2V779.8Z" class="g1_254"/>
<path fill-rule="evenodd" d="M201.1,702.1H389.8V658.6H201.1v43.5Z" class="g1_254"/>
<path fill-rule="evenodd" d="M201.1,745.5H389.8V702.1H201.1v43.4Z" class="g1_254"/>
<path fill-rule="evenodd" d="M398.3,779.8H825.2V624.2H398.3V779.8Z" class="g1_254"/>
<path clip-path="url(#c1_254)" fill-rule="evenodd" d="M405.2,675.3H818.4V631.9H405.2v43.4Z" class="g1_254"/>
<path fill-rule="evenodd" d="M405.2,702.1H818.4V675.3H405.2v26.8Z" class="g1_254"/>
<path fill-rule="evenodd" d="M405.2,728.7H818.4V702.1H405.2v26.6Z" class="g1_254"/>
<path fill-rule="evenodd" d="M405.2,772.1H818.4V728.7H405.2v43.4Z" class="g1_254"/>
<path fill-rule="evenodd" d="M110,631.9h1.5v-9.2H110v9.2Z" class="g2_254"/>
<path fill-rule="evenodd" d="M111.5,624.2h81.2v-1.5H111.5v1.5Z" class="g2_254"/>
<path fill-rule="evenodd" d="M111.5,631.9h81.2v-7.7H111.5v7.7Z" class="g1_254"/>
<path fill-rule="evenodd" d="M192.7,631.9h1.5v-9.2h-1.5v9.2Z" class="g2_254"/>
<path fill-rule="evenodd" d="M194.2,624.2H396.8v-1.5H194.2v1.5Z" class="g2_254"/>
<path fill-rule="evenodd" d="M194.2,631.9H396.8v-7.7H194.2v7.7Z" class="g1_254"/>
<path fill-rule="evenodd" d="M396.8,631.9h1.5v-9.2h-1.5v9.2Z" class="g2_254"/>
<path fill-rule="evenodd" d="M398.3,624.2H825.2v-1.5H398.3v1.5Z" class="g2_254"/>
<path fill-rule="evenodd" d="M398.3,631.9H825.2v-7.7H398.3v7.7Z" class="g1_254"/>
<path fill-rule="evenodd" d="M825.2,631.9h1.5v-9.2h-1.5v9.2Z" class="g2_254"/>
<path fill-rule="evenodd" d="M110.8,779.6h82.7v-7.7H110.8v7.7Z" class="g1_254"/>
<path fill-rule="evenodd" d="M110,779.6h1.5V631.9H110V779.6Z" class="g2_254"/>
<path fill-rule="evenodd" d="M193.4,779.6H397.5v-7.7H193.4v7.7Z" class="g1_254"/>
<path fill-rule="evenodd" d="M192.7,779.6h1.5V631.9h-1.5V779.6Z" class="g2_254"/>
<path fill-rule="evenodd" d="M397.5,779.6H825.9v-7.7H397.5v7.7Z" class="g1_254"/>
<path fill-rule="evenodd" d="M396.8,779.6h1.5V631.9h-1.5V779.6Z" class="g2_254"/>
<path fill-rule="evenodd" d="M825.2,779.6h1.5V631.9h-1.5V779.6Z" class="g2_254"/>
<path fill-rule="evenodd" d="M111.5,883.5h81.2V781.1H111.5V883.5Z" class="g1_254"/>
<path fill-rule="evenodd" d="M118.5,862.5h67.3V802.2H118.5v60.3Z" class="g1_254"/>
<path fill-rule="evenodd" d="M194.2,883.5H396.8V781.1H194.2V883.5Z" class="g1_254"/>
<path clip-path="url(#c2_254)" fill-rule="evenodd" d="M201.1,832.3H389.8V788.8H201.1v43.5Z" class="g1_254"/>
<path fill-rule="evenodd" d="M201.1,875.8H389.8V832.3H201.1v43.5Z" class="g1_254"/>
<path fill-rule="evenodd" d="M398.3,883.5H825.2V781.1H398.3V883.5Z" class="g1_254"/>
<path clip-path="url(#c3_254)" fill-rule="evenodd" d="M405.2,832.3H818.4V788.8H405.2v43.5Z" class="g1_254"/>
<path fill-rule="evenodd" d="M405.2,875.8H818.4V832.3H405.2v43.5Z" class="g1_254"/>
<path fill-rule="evenodd" d="M110,788.8h1.5v-9.2H110v9.2Z" class="g2_254"/>
<path fill-rule="evenodd" d="M111.5,781.1h81.2v-1.5H111.5v1.5Z" class="g2_254"/>
<path fill-rule="evenodd" d="M111.5,788.8h81.2v-7.7H111.5v7.7Z" class="g1_254"/>
<path fill-rule="evenodd" d="M192.7,788.8h1.5v-9.2h-1.5v9.2Z" class="g2_254"/>
<path fill-rule="evenodd" d="M194.2,781.1H396.8v-1.5H194.2v1.5Z" class="g2_254"/>
<path fill-rule="evenodd" d="M194.2,788.8H396.8v-7.7H194.2v7.7Z" class="g1_254"/>
<path fill-rule="evenodd" d="M396.8,788.8h1.5v-9.2h-1.5v9.2Z" class="g2_254"/>
<path fill-rule="evenodd" d="M398.3,781.1H825.2v-1.5H398.3v1.5Z" class="g2_254"/>
<path fill-rule="evenodd" d="M398.3,788.8H825.2v-7.7H398.3v7.7Z" class="g1_254"/>
<path fill-rule="evenodd" d="M825.2,788.8h1.5v-9.2h-1.5v9.2Z" class="g2_254"/>
<path fill-rule="evenodd" d="M110.8,883.5h82.7v-7.7H110.8v7.7Z" class="g1_254"/>
<path fill-rule="evenodd" d="M110,883.5h1.5V788.8H110v94.7Z" class="g2_254"/>
<path fill-rule="evenodd" d="M193.4,883.5H397.5v-7.7H193.4v7.7Z" class="g1_254"/>
<path fill-rule="evenodd" d="M192.7,883.5h1.5V788.8h-1.5v94.7Z" class="g2_254"/>
<path fill-rule="evenodd" d="M397.5,883.5H825.9v-7.7H397.5v7.7Z" class="g1_254"/>
<path fill-rule="evenodd" d="M396.8,883.5h1.5V788.8h-1.5v94.7Z" class="g2_254"/>
<path fill-rule="evenodd" d="M825.2,883.5h1.5V788.8h-1.5v94.7Z" class="g2_254"/>
<path fill-rule="evenodd" d="M111.5,987.2h81.2V884.9H111.5V987.2Z" class="g1_254"/>
<path fill-rule="evenodd" d="M118.5,966.1h67.3V906H118.5v60.1Z" class="g1_254"/>
<path fill-rule="evenodd" d="M194.2,987.2H396.8V884.9H194.2V987.2Z" class="g1_254"/>
<path fill-rule="evenodd" d="M201.1,936.1H389.8V892.6H201.1v43.5Z" class="g1_254"/>
<path fill-rule="evenodd" d="M201.1,979.5H389.8V936.1H201.1v43.4Z" class="g1_254"/>
<path fill-rule="evenodd" d="M398.3,987.2H825.2V884.9H398.3V987.2Z" class="g1_254"/>
<path fill-rule="evenodd" d="M405.2,936.1H818.4V892.6H405.2v43.5Z" class="g1_254"/>
<path fill-rule="evenodd" d="M405.2,979.5H818.4V936.1H405.2v43.4Z" class="g1_254"/>
<path fill-rule="evenodd" d="M110,892.6h1.5v-9.1H110v9.1Z" class="g2_254"/>
<path fill-rule="evenodd" d="M111.5,884.9h81.2v-1.4H111.5v1.4Z" class="g2_254"/>
<path fill-rule="evenodd" d="M111.5,892.6h81.2v-7.7H111.5v7.7Z" class="g1_254"/>
<path fill-rule="evenodd" d="M192.7,892.6h1.5v-9.1h-1.5v9.1Z" class="g2_254"/>
<path fill-rule="evenodd" d="M194.2,884.9H396.8v-1.4H194.2v1.4Z" class="g2_254"/>
<path fill-rule="evenodd" d="M194.2,892.6H396.8v-7.7H194.2v7.7Z" class="g1_254"/>
<path fill-rule="evenodd" d="M396.8,892.6h1.5v-9.1h-1.5v9.1Z" class="g2_254"/>
<path fill-rule="evenodd" d="M398.3,884.9H825.2v-1.4H398.3v1.4Z" class="g2_254"/>
<path fill-rule="evenodd" d="M398.3,892.6H825.2v-7.7H398.3v7.7Z" class="g1_254"/>
<path fill-rule="evenodd" d="M825.2,892.6h1.5v-9.1h-1.5v9.1Z" class="g2_254"/>
<path fill-rule="evenodd" d="M110.8,987h82.7v-7.7H110.8V987Z" class="g1_254"/>
<path fill-rule="evenodd" d="M110,987h1.5V892.6H110V987Z" class="g2_254"/>
<path fill-rule="evenodd" d="M193.4,987H397.5v-7.7H193.4V987Z" class="g1_254"/>
<path fill-rule="evenodd" d="M192.7,987h1.5V892.6h-1.5V987Z" class="g2_254"/>
<path fill-rule="evenodd" d="M397.5,987H825.9v-7.7H397.5V987Z" class="g1_254"/>
<path fill-rule="evenodd" d="M396.8,987h1.5V892.6h-1.5V987Z" class="g2_254"/>
<path fill-rule="evenodd" d="M825.2,987h1.5V892.6h-1.5V987Z" class="g2_254"/>
<path fill-rule="evenodd" d="M111.5,1090.8h81.2V988.5H111.5v102.3Z" class="g1_254"/>
<path fill-rule="evenodd" d="M118.5,1069.9h67.3v-60.3H118.5v60.3Z" class="g1_254"/>
<path fill-rule="evenodd" d="M194.2,1090.8H396.8V988.5H194.2v102.3Z" class="g1_254"/>
<path fill-rule="evenodd" d="M201.1,1039.7H389.8V996.2H201.1v43.5Z" class="g1_254"/>
<path fill-rule="evenodd" d="M201.1,1083.1H389.8v-43.5H201.1v43.5Z" class="g1_254"/>
<path fill-rule="evenodd" d="M398.3,1090.8H825.2V988.5H398.3v102.3Z" class="g1_254"/>
<path fill-rule="evenodd" d="M405.2,1039.7H818.4V996.2H405.2v43.5Z" class="g1_254"/>
<path fill-rule="evenodd" d="M405.2,1083.1H818.4v-43.5H405.2v43.5Z" class="g1_254"/>
<path fill-rule="evenodd" d="M110,996.2h1.5V987H110v9.2Z" class="g2_254"/>
<path fill-rule="evenodd" d="M111.5,988.5h81.2V987H111.5v1.5Z" class="g2_254"/>
<path fill-rule="evenodd" d="M111.5,996.2h81.2v-7.7H111.5v7.7Z" class="g1_254"/>
<path fill-rule="evenodd" d="M192.7,996.2h1.5V987h-1.5v9.2Z" class="g2_254"/>
<path fill-rule="evenodd" d="M194.2,988.5H396.8V987H194.2v1.5Z" class="g2_254"/>
<path fill-rule="evenodd" d="M194.2,996.2H396.8v-7.7H194.2v7.7Z" class="g1_254"/>
<path fill-rule="evenodd" d="M396.8,996.2h1.5V987h-1.5v9.2Z" class="g2_254"/>
<path fill-rule="evenodd" d="M398.3,988.5H825.2V987H398.3v1.5Z" class="g2_254"/>
<path fill-rule="evenodd" d="M398.3,996.2H825.2v-7.7H398.3v7.7Z" class="g1_254"/>
<path fill-rule="evenodd" d="M825.2,996.2h1.5V987h-1.5v9.2Z" class="g2_254"/>
<path fill-rule="evenodd" d="M110.8,1090.8h82.7v-7.7H110.8v7.7Z" class="g1_254"/>
<path fill-rule="evenodd" d="M110,1090.8h1.5V996.2H110v94.6Z" class="g2_254"/>
<path fill-rule="evenodd" d="M110,1092.3h1.5v-1.5H110v1.5Z" class="g2_254"/>
<path fill-rule="evenodd" d="M110,1092.3h1.5v-1.5H110v1.5Z" class="g2_254"/>
<path fill-rule="evenodd" d="M111.5,1092.3h81.2v-1.5H111.5v1.5Z" class="g2_254"/>
<path fill-rule="evenodd" d="M193.4,1090.8H397.5v-7.7H193.4v7.7Z" class="g1_254"/>
<path fill-rule="evenodd" d="M192.7,1090.8h1.5V996.2h-1.5v94.6Z" class="g2_254"/>
<path fill-rule="evenodd" d="M192.7,1092.3h1.5v-1.5h-1.5v1.5Z" class="g2_254"/>
<path fill-rule="evenodd" d="M194.2,1092.3H396.8v-1.5H194.2v1.5Z" class="g2_254"/>
<path fill-rule="evenodd" d="M397.5,1090.8H825.9v-7.7H397.5v7.7Z" class="g1_254"/>
<path fill-rule="evenodd" d="M396.8,1090.8h1.5V996.2h-1.5v94.6Z" class="g2_254"/>
<path fill-rule="evenodd" d="M396.8,1092.3h1.5v-1.5h-1.5v1.5Z" class="g2_254"/>
<path fill-rule="evenodd" d="M398.3,1092.3H825.2v-1.5H398.3v1.5Z" class="g2_254"/>
<path fill-rule="evenodd" d="M825.2,1090.8h1.5V996.2h-1.5v94.6Z" class="g2_254"/>
<path fill-rule="evenodd" d="M825.2,1092.3h1.5v-1.5h-1.5v1.5Z" class="g2_254"/>
<path fill-rule="evenodd" d="M825.2,1092.3h1.5v-1.5h-1.5v1.5Z" class="g2_254"/>
</svg>