<?xml version="1.0" encoding="UTF-8" standalone="no"?>
<!DOCTYPE svg PUBLIC "-//W3C//DTD SVG 1.1//EN"
"http://www.w3.org/Graphics/SVG/1.1/DTD/svg11.dtd">
<svg viewBox="0 0 935 1210" version="1.1" xmlns="http://www.w3.org/2000/svg" xmlns:xlink="http://www.w3.org/1999/xlink">
<defs>
<clipPath id="c0_676"><path d="M111.5,943V821.6H227V943Z"/></clipPath>
<clipPath id="c1_676"><path d="M228.5,943V821.6H546.6V943Z"/></clipPath>
<clipPath id="c2_676"><path d="M548.3,943V821.6H830.9V943Z"/></clipPath>
<style type="text/css"><![CDATA[
.g0_676{
fill: #C0C0C0;
fill-opacity: 0.50196;
}
.g1_676{
fill: #FFFFFF;
}
.g2_676{
fill: #111111;
}
]]></style>
</defs>
<path fill-rule="evenodd" d="M167,938.7C151.6,923.3,136.1,907.8,120.7,892.4c3.1,-3.2,6.3,-6.3,9.4,-9.5c14.6,7.3,29.4,14.3,44.1,21.6c4,2.1,7.1,3.6,9.1,4.6c-1.2,-2.2,-2.8,-5.5,-4.9,-9.9c-7.1,-14.5,-13.9,-29.1,-20.9,-43.6c2.8,-2.9,5.6,-5.7,8.4,-8.5c15.5,15.5,30.9,30.9,46.4,46.4c-2,2,-4.1,4,-6.1,6C193.3,886.6,180.4,873.7,167.4,860.7c8.5,17.5,16.6,35.1,25,52.6c-1.8,1.9,-3.7,3.8,-5.6,5.7c-17.7,-8.7,-35.5,-17.1,-53.2,-25.8c13.2,13.2,26.3,26.3,39.5,39.5c-2,2,-4.1,4,-6.1,6Z" class="g0_676"/>
<path fill-rule="evenodd" d="M235.6,870.1C226.1,848.7,217,827,207.5,805.6c2.2,-2.3,4.5,-4.5,6.7,-6.8c21.9,9.2,43.9,17.8,65.8,27c-2.4,2.3,-4.8,4.7,-7.2,7.1c-6.5,-2.9,-13,-5.6,-19.5,-8.5c-6.6,6.6,-13.3,13.2,-19.9,19.8c3,6.4,5.9,12.9,8.9,19.3c-2.3,2.2,-4.5,4.4,-6.7,6.6Zm-5.3,-32.7c5.3,-5.3,10.7,-10.7,16,-16.1c-5.9,-2.6,-11.9,-5.2,-17.8,-7.8c-5.4,-2.4,-9.7,-4.5,-12.9,-6.3c2.3,3.6,4.4,7.4,6.3,11.4c2.8,6.3,5.5,12.6,8.4,18.8Z" class="g0_676"/>
<path fill-rule="evenodd" d="M303.2,802.5C287.8,787.1,272.3,771.6,256.9,756.2c3.1,-3.2,6.3,-6.3,9.4,-9.5c14.6,7.3,29.4,14.3,44,21.6c4.1,2.1,7.2,3.6,9.2,4.6c-1.2,-2.2,-2.8,-5.5,-4.9,-9.9c-7.1,-14.5,-13.9,-29.1,-20.9,-43.6c2.8,-2.8,5.6,-5.7,8.4,-8.5c15.5,15.5,30.9,30.9,46.4,46.4c-2,2,-4.1,4,-6.1,6C329.5,750.4,316.6,737.5,303.6,724.5c8.5,17.5,16.6,35.1,25,52.6c-1.8,1.9,-3.7,3.8,-5.6,5.7C305.3,774.1,287.5,765.7,269.8,757c13.2,13.2,26.3,26.3,39.5,39.5c-2,2,-4.1,4,-6.1,6Z" class="g0_676"/>
<path fill-rule="evenodd" d="M338.9,733.3c-6.2,-6.3,-9,-12.6,-8.5,-19.2c.4,-5.4,2.8,-10.2,7.1,-14.5c4.7,-4.7,10.1,-7.1,16.1,-7c6,0,11.7,2.7,17,8c4.3,4.3,7,8.4,8.2,12.2c1.2,3.8,1.1,7.6,0,11.5c-1.1,4,-3.2,7.4,-6.3,10.4c-4.8,4.8,-10.2,7.3,-16.1,7.1c-6,0,-11.8,-2.9,-17.5,-8.5Zm6,-6c4.3,4.3,8.5,6.5,12.5,6.8c4.1,.2,7.6,-1.1,10.5,-4.1c2.9,-2.8,4.3,-6.4,4,-10.4c-.3,-4.1,-2.6,-8.3,-7,-12.7c-4.1,-4.2,-8.3,-6.3,-12.3,-6.6c-4.1,-.2,-7.6,1.1,-10.4,4c-2.9,2.9,-4.3,6.4,-4.1,10.5c.3,4,2.5,8.2,6.8,12.5Z" class="g0_676"/>
<path fill-rule="evenodd" d="M394.7,711.1C379.2,695.6,363.8,680.2,348.3,664.7c2,-2,3.9,-3.9,5.9,-5.8c5.5,5.5,11,11.1,16.6,16.6c-.4,-5.8,1.5,-10.8,5.7,-14.9c2.5,-2.6,5.2,-4.3,8.1,-5.2c2.8,-.9,5.5,-.9,8.1,.1c2.5,.9,5.4,3,8.7,6.3c7.1,7.1,14.2,14.2,21.3,21.3c-2,1.9,-3.9,3.9,-5.8,5.8c-7.1,-7.1,-14.2,-14.2,-21.3,-21.3c-2.9,-2.8,-5.6,-4.3,-8.1,-4.3c-2.6,-.1,-5,1.1,-7.3,3.4c-1.7,1.7,-2.9,3.8,-3.6,6.1c-.6,2.5,-.5,4.8,.3,6.9c.9,2.1,2.6,4.5,5.2,7.2c6.2,6.1,12.3,12.2,18.4,18.3c-1.9,2,-3.9,3.9,-5.8,5.9Z" class="g0_676"/>
<path fill-rule="evenodd" d="M391.8,634.4c-2.2,-2.2,-4.4,-4.4,-6.6,-6.6c2,-1.9,3.9,-3.9,5.9,-5.8c2.1,2.2,4.3,4.4,6.5,6.5c-2,2,-3.9,3.9,-5.8,5.9Zm39.8,39.8C420.4,663,409.2,651.8,398,640.6c1.9,-1.9,3.9,-3.9,5.8,-5.8c11.2,11.2,22.4,22.4,33.6,33.5c-1.9,2,-3.9,3.9,-5.8,5.9Z" class="g0_676"/>
<path fill-rule="evenodd" d="M459,625.2c2.2,-1.8,4.5,-3.6,6.7,-5.3c2.5,4.3,3.4,8.8,2.7,13.2c-.6,4.5,-3,8.7,-6.9,12.7c-5.1,5,-10.5,7.6,-16.5,7.4c-6,-.1,-11.7,-2.8,-17.2,-8.3c-5.6,-5.6,-8.5,-11.5,-8.7,-17.6c-.2,-6.1,2.2,-11.5,6.9,-16.3c4.6,-4.5,9.9,-6.8,15.9,-6.6c6,.2,11.7,3,17.2,8.5c.4,.3,.9,.9,1.5,1.5c-8.5,8.6,-17.1,17.1,-25.6,25.7c3.9,3.4,7.8,5.2,11.7,5.2c3.9,.1,7.2,-1.3,10.1,-4.2c2.1,-2.1,3.4,-4.5,3.8,-7.1c.4,-2.6,-.1,-5.6,-1.6,-8.8Zm-28.3,9.9c6.4,-6.4,12.7,-12.8,19.1,-19.2c-3,-2.6,-5.9,-3.9,-8.5,-4.2c-4,-.3,-7.6,1,-10.5,3.9c-2.7,2.7,-4.1,5.9,-4.1,9.4c-.1,3.6,1.2,6.9,4,10.1Z" class="g0_676"/>
<path fill-rule="evenodd" d="M483.1,622.6C471.9,611.4,460.7,600.2,449.5,589.1c1.8,-1.8,3.5,-3.5,5.2,-5.3c1.6,1.6,3.2,3.2,4.7,4.7c-.5,-2.6,-.4,-5.4,.4,-8.2c.7,-2.8,2.3,-5.3,4.6,-7.6c2.6,-2.6,5.1,-4.2,7.8,-4.7c2.7,-.6,5.2,-.4,7.8,.8c-1.3,-6.6,.3,-12.1,4.7,-16.4c3.4,-3.4,7,-5.2,10.6,-5.2c3.7,.1,7.5,2,11.3,5.8c7.7,7.7,15.4,15.4,23.1,23.1c-2,1.9,-3.9,3.8,-5.8,5.8c-7.1,-7.1,-14.1,-14.1,-21.2,-21.2c-2.3,-2.3,-4.1,-3.7,-5.5,-4.4c-1.3,-.6,-2.8,-.7,-4.4,-.3c-1.6,.4,-3.1,1.3,-4.4,2.6c-2.5,2.4,-3.7,5.2,-3.7,8.3c0,3.2,1.7,6.5,5.1,10c6.5,6.5,13.1,13,19.5,19.5c-1.9,1.9,-3.8,3.9,-5.8,5.8C496.3,595,489,587.7,481.7,580.4c-2.5,-2.5,-4.9,-3.9,-7.1,-4.3c-2.2,-.3,-4.4,.6,-6.6,2.8c-1.6,1.7,-2.7,3.5,-3.2,5.8c-.5,2.2,-.4,4.5,.6,6.7c1,2.2,3,4.9,6.1,8c5.8,5.8,11.6,11.6,17.4,17.4c-1.9,2,-3.8,3.9,-5.8,5.8Z" class="g0_676"/>
<path fill-rule="evenodd" d="M551,533.1c2.3,-1.7,4.5,-3.5,6.8,-5.3c2.5,4.4,3.3,8.8,2.7,13.3c-.6,4.5,-3,8.7,-7,12.7c-5,5,-10.5,7.5,-16.5,7.4c-5.9,-.2,-11.7,-2.8,-17.1,-8.3c-5.7,-5.7,-8.5,-11.5,-8.7,-17.6c-.2,-6.1,2.1,-11.5,6.9,-16.3c4.6,-4.6,9.8,-6.9,15.8,-6.7c6,.2,11.7,3,17.3,8.6c.3,.3,.8,.8,1.5,1.5c-8.6,8.5,-17.1,17.1,-25.6,25.6c3.9,3.5,7.8,5.2,11.6,5.3c3.9,.1,7.3,-1.4,10.2,-4.2c2.1,-2.2,3.4,-4.5,3.8,-7.2c.4,-2.6,-.1,-5.5,-1.7,-8.8ZM522.7,543c6.4,-6.4,12.8,-12.8,19.2,-19.2c-3.1,-2.5,-6,-3.9,-8.6,-4.1c-4,-.4,-7.5,1,-10.5,3.9c-2.7,2.7,-4.1,5.8,-4.1,9.4c-.1,3.6,1.2,6.9,4,10Z" class="g0_676"/>
<path fill-rule="evenodd" d="M575.1,530.6C564,519.4,552.8,508.2,541.6,497c1.7,-1.7,3.5,-3.5,5.2,-5.2c1.6,1.6,3.2,3.2,4.8,4.8c-1.2,-6.3,.6,-11.8,5.4,-16.5c2.1,-2.1,4.3,-3.7,6.8,-4.7c2.4,-.9,4.7,-1.3,6.7,-1c2.1,.3,4.1,1.2,6.1,2.4c1.2,.8,3.2,2.6,5.8,5.2c6.9,6.9,13.8,13.8,20.7,20.7c-2,1.9,-3.9,3.9,-5.8,5.8c-6.8,-6.8,-13.7,-13.6,-20.5,-20.4c-2.3,-2.3,-4.3,-3.8,-5.9,-4.6c-1.6,-.7,-3.3,-.7,-5.1,-.3c-1.9,.5,-3.5,1.5,-5.1,3c-2.5,2.5,-3.9,5.4,-4.1,8.8c-.2,3.3,1.7,7.1,6,11.4c6.2,6.2,12.3,12.3,18.4,18.4c-2,1.9,-3.9,3.9,-5.9,5.8Z" class="g0_676"/>
<path fill-rule="evenodd" d="M643.2,462.5C629.6,448.9,616,435.3,602.3,421.6c-5.2,5.2,-10.4,10.5,-15.6,15.7c-1.8,-1.8,-3.7,-3.7,-5.5,-5.5c12.6,-12.5,25.1,-25.1,37.6,-37.6c1.8,1.8,3.7,3.7,5.5,5.5c-5.2,5.2,-10.5,10.4,-15.7,15.7c13.6,13.6,27.3,27.2,40.9,40.9c-2.1,2,-4.2,4.1,-6.3,6.2Z" class="g0_676"/>
<path fill-rule="evenodd" d="M689.1,408.3c-.3,4,-1.1,7.3,-2.4,10c-1.2,2.8,-3,5.3,-5.3,7.6c-3.8,3.8,-7.6,5.7,-11.4,5.9c-3.8,.2,-7.1,-1,-10,-3.8c-1.6,-1.6,-2.7,-3.6,-3.3,-5.7c-.6,-2.1,-.7,-4.2,-.3,-6.3c.4,-2,1.2,-4,2.3,-6c.9,-1.4,2.4,-3.4,4.4,-6c4.1,-5.3,7,-9.4,8.4,-12.4c-.8,-.8,-1.2,-1.3,-1.5,-1.5c-2.3,-2.3,-4.5,-3.4,-6.5,-3.3c-2.8,.2,-5.6,1.8,-8.6,4.8c-2.7,2.7,-4.3,5.2,-4.6,7.4c-.4,2.3,.3,4.9,2.1,7.9c-2.2,1.6,-4.3,3.3,-6.5,4.9C644,409,643,406.2,642.7,403.5c-.3,-2.7,.3,-5.5,1.7,-8.5c1.5,-3.1,3.7,-6,6.7,-9c2.9,-2.9,5.6,-5,8.1,-6.1c2.5,-1.2,4.7,-1.7,6.6,-1.5c1.9,.2,3.8,.8,5.7,2c1.2,.8,3,2.5,5.6,5c2.5,2.5,5,5,7.5,7.6c5.3,5.3,8.8,8.5,10.4,9.6c1.7,1.2,3.5,2,5.5,2.6c-2,2,-4,4.1,-6,6.1c-1.8,-.6,-3.6,-1.6,-5.4,-3ZM676,396.1c-1.3,3,-3.8,6.8,-7.4,11.6c-2,2.8,-3.4,4.8,-3.9,6.3c-.6,1.4,-.8,2.8,-.5,4.1c.3,1.4,.9,2.5,1.9,3.5c1.5,1.5,3.4,2.2,5.6,2c2.2,-.1,4.4,-1.3,6.6,-3.6c2.3,-2.2,3.8,-4.7,4.6,-7.4c.8,-2.7,.8,-5.3,-.1,-7.8c-.7,-1.9,-2.3,-4.1,-4.8,-6.6c-.7,-.7,-1.3,-1.4,-2,-2.1Z" class="g0_676"/>
<path fill-rule="evenodd" d="M707.7,398C696.5,386.8,685.3,375.7,674.1,364.5c1.8,-1.8,3.5,-3.5,5.3,-5.3c1.6,1.6,3.2,3.2,4.8,4.8c-1.3,-6.2,.6,-11.7,5.4,-16.5c2,-2.1,4.3,-3.6,6.8,-4.6c2.4,-1,4.7,-1.4,6.7,-1c2.1,.3,4.1,1.1,6,2.4c1.3,.8,3.3,2.5,5.9,5.2c6.9,6.8,13.8,13.7,20.6,20.6c-1.9,1.9,-3.8,3.9,-5.8,5.8C723,369.1,716.2,362.3,709.4,355.5c-2.3,-2.3,-4.3,-3.8,-5.9,-4.5c-1.6,-.7,-3.3,-.8,-5.2,-.4c-1.8,.5,-3.5,1.5,-5,3.1c-2.5,2.5,-3.9,5.4,-4.1,8.7c-.3,3.4,1.7,7.2,6,11.5c6.1,6.1,12.2,12.2,18.3,18.3c-1.9,1.9,-3.8,3.9,-5.8,5.8Z" class="g0_676"/>
<path fill-rule="evenodd" d="M704.8,321.3c-2.2,-2.1,-4.4,-4.3,-6.5,-6.5c1.9,-2,3.8,-3.9,5.8,-5.8c2.1,2.1,4.3,4.3,6.5,6.5c-1.9,2,-3.9,3.9,-5.8,5.8Zm39.8,39.9C733.4,350,722.2,338.8,711,327.6c2,-2,3.9,-3.9,5.8,-5.9c11.2,11.2,22.4,22.4,33.6,33.6c-1.9,2,-3.9,3.9,-5.8,5.9Z" class="g0_676"/>
<path fill-rule="evenodd" d="M759.3,346.5C748.1,335.3,736.9,324.1,725.7,312.9c1.8,-1.8,3.5,-3.5,5.2,-5.2c1.6,1.5,3.2,3.1,4.7,4.7c-.6,-2.7,-.4,-5.5,.3,-8.3c.8,-2.8,2.4,-5.3,4.7,-7.6c2.5,-2.6,5.1,-4.2,7.8,-4.7c2.7,-.6,5.2,-.3,7.8,.9c-1.3,-6.7,.3,-12.2,4.7,-16.5c3.4,-3.4,6.9,-5.2,10.6,-5.1c3.7,0,7.5,1.9,11.3,5.7c7.7,7.7,15.4,15.4,23,23.1c-1.9,1.9,-3.8,3.9,-5.7,5.8C793,298.6,786,291.6,778.9,284.5c-2.3,-2.2,-4.1,-3.7,-5.5,-4.3c-1.4,-.6,-2.9,-.8,-4.5,-.4c-1.6,.4,-3,1.3,-4.4,2.6c-2.4,2.4,-3.6,5.2,-3.6,8.4c0,3.1,1.7,6.5,5.1,9.9c6.5,6.5,13,13,19.5,19.5c-1.9,2,-3.9,3.9,-5.8,5.8c-7.3,-7.2,-14.5,-14.5,-21.8,-21.8c-2.5,-2.5,-4.9,-3.9,-7.1,-4.2c-2.2,-.4,-4.4,.6,-6.6,2.7c-1.6,1.7,-2.7,3.6,-3.2,5.8c-.6,2.3,-.4,4.5,.6,6.8c1,2.2,3,4.8,6.1,7.9c5.8,5.8,11.6,11.6,17.4,17.4c-1.9,2,-3.9,3.9,-5.8,5.9Z" class="g0_676"/>
<path fill-rule="evenodd" d="M111.5,495.8H227V432H111.5v63.8Z" class="g1_676"/>
<path fill-rule="evenodd" d="M118.5,463.2H220V439.7H118.5v23.5Z" class="g1_676"/>
<path fill-rule="evenodd" d="M228.5,495.8H546.6V432H228.5v63.8Z" class="g1_676"/>
<path fill-rule="evenodd" d="M235.2,465.4H539.8V439.7H235.2v25.7Z" class="g1_676"/>
<path fill-rule="evenodd" d="M548.3,495.8H830.9V432H548.3v63.8Z" class="g1_676"/>
<path fill-rule="evenodd" d="M555.1,465.4H824V439.7H555.1v25.7Z" class="g1_676"/>
<path fill-rule="evenodd" d="M110,439.7h1.5v-9.2H110v9.2Z" class="g2_676"/>
<path fill-rule="evenodd" d="M110,432h1.5v-1.5H110V432Z" class="g2_676"/>
<path fill-rule="evenodd" d="M111.5,432H227v-1.5H111.5V432Z" class="g2_676"/>
<path fill-rule="evenodd" d="M111.5,439.7H227V432H111.5v7.7Z" class="g1_676"/>
<path fill-rule="evenodd" d="M227,439.7h1.5V432H227v7.7Z" class="g2_676"/>
<path fill-rule="evenodd" d="M227,432h1.5v-1.5H227V432Z" class="g2_676"/>
<path fill-rule="evenodd" d="M228.5,432H546.6v-1.5H228.5V432Z" class="g2_676"/>
<path fill-rule="evenodd" d="M228.5,439.7H546.6V432H228.5v7.7Z" class="g1_676"/>
<path fill-rule="evenodd" d="M546.6,439.7h1.5V432h-1.5v7.7Z" class="g2_676"/>
<path fill-rule="evenodd" d="M546.6,432h1.5v-1.5h-1.5V432Z" class="g2_676"/>
<path fill-rule="evenodd" d="M548.1,432H830.9v-1.5H548.1V432Z" class="g2_676"/>
<path fill-rule="evenodd" d="M548.1,439.7H830.9V432H548.1v7.7Z" class="g1_676"/>
<path fill-rule="evenodd" d="M830.9,439.7h1.4v-9.2h-1.4v9.2Z" class="g2_676"/>
<path fill-rule="evenodd" d="M830.9,432h1.4v-1.5h-1.4V432Z" class="g2_676"/>
<path fill-rule="evenodd" d="M110.8,495.8H227.7v-7.7H110.8v7.7Z" class="g1_676"/>
<path fill-rule="evenodd" d="M110,495.8h1.5V439.7H110v56.1Z" class="g2_676"/>
<path fill-rule="evenodd" d="M227.7,495.8H547.4v-7.7H227.7v7.7Z" class="g1_676"/>
<path fill-rule="evenodd" d="M227,495.8h1.5V439.7H227v56.1Z" class="g2_676"/>
<path fill-rule="evenodd" d="M547.4,495.8H831.6v-7.7H547.4v7.7Z" class="g1_676"/>
<path fill-rule="evenodd" d="M546.6,495.8h1.5V439.7h-1.5v56.1Z" class="g2_676"/>
<path fill-rule="evenodd" d="M830.9,495.8h1.4V439.7h-1.4v56.1Z" class="g2_676"/>
<path fill-rule="evenodd" d="M111.5,568.8H227V497.3H111.5v71.5Z" class="g1_676"/>
<path fill-rule="evenodd" d="M118.5,528.4H220V505H118.5v23.4Z" class="g1_676"/>
<path fill-rule="evenodd" d="M228.5,568.8H546.6V497.3H228.5v71.5Z" class="g1_676"/>
<path fill-rule="evenodd" d="M235.2,528.4H539.8V505H235.2v23.4Z" class="g1_676"/>
<path fill-rule="evenodd" d="M548.3,568.8H830.9V497.3H548.3v71.5Z" class="g1_676"/>
<path fill-rule="evenodd" d="M555.1,528.4H824V505H555.1v23.4Z" class="g1_676"/>
<path fill-rule="evenodd" d="M555.1,552.1H824V528.4H555.1v23.7Z" class="g1_676"/>
<path fill-rule="evenodd" d="M110,505h1.5v-9.2H110V505Z" class="g2_676"/>
<path fill-rule="evenodd" d="M111.5,497.3H227v-1.5H111.5v1.5Z" class="g2_676"/>
<path fill-rule="evenodd" d="M111.5,505H227v-7.7H111.5V505Z" class="g1_676"/>
<path fill-rule="evenodd" d="M227,505h1.5v-9.2H227V505Z" class="g2_676"/>
<path fill-rule="evenodd" d="M228.5,497.3H546.6v-1.5H228.5v1.5Z" class="g2_676"/>
<path fill-rule="evenodd" d="M228.5,505H546.6v-7.7H228.5V505Z" class="g1_676"/>
<path fill-rule="evenodd" d="M546.6,505h1.5v-9.2h-1.5V505Z" class="g2_676"/>
<path fill-rule="evenodd" d="M548.1,497.3H830.9v-1.5H548.1v1.5Z" class="g2_676"/>
<path fill-rule="evenodd" d="M548.1,505H830.9v-7.7H548.1V505Z" class="g1_676"/>
<path fill-rule="evenodd" d="M830.9,505h1.4v-9.2h-1.4V505Z" class="g2_676"/>
<path fill-rule="evenodd" d="M110.8,568.8H227.7v-7.7H110.8v7.7Z" class="g1_676"/>
<path fill-rule="evenodd" d="M110,568.8h1.5V505H110v63.8Z" class="g2_676"/>
<path fill-rule="evenodd" d="M227.7,568.8H547.4v-7.7H227.7v7.7Z" class="g1_676"/>
<path fill-rule="evenodd" d="M227,568.8h1.5V505H227v63.8Z" class="g2_676"/>
<path fill-rule="evenodd" d="M547.4,568.8H831.6v-7.7H547.4v7.7Z" class="g1_676"/>
<path fill-rule="evenodd" d="M546.6,568.8h1.5V505h-1.5v63.8Z" class="g2_676"/>
<path fill-rule="evenodd" d="M830.9,568.8h1.4V505h-1.4v63.8Z" class="g2_676"/>
<path fill-rule="evenodd" d="M111.5,812.5H227V570.2H111.5V812.5Z" class="g1_676"/>
<path fill-rule="evenodd" d="M118.5,601.4H220V577.9H118.5v23.5Z" class="g1_676"/>
<path fill-rule="evenodd" d="M228.5,812.5H546.6V570.2H228.5V812.5Z" class="g1_676"/>
<path fill-rule="evenodd" d="M235.2,601.4H539.8V577.9H235.2v23.5Z" class="g1_676"/>
<path fill-rule="evenodd" d="M235.2,625.1H539.8V601.4H235.2v23.7Z" class="g1_676"/>
<path fill-rule="evenodd" d="M235.2,648.6H539.8V625.1H235.2v23.5Z" class="g1_676"/>
<path fill-rule="evenodd" d="M235.2,672.2H539.8V648.6H235.2v23.6Z" class="g1_676"/>
<path fill-rule="evenodd" d="M235.2,695.7H539.8V672.2H235.2v23.5Z" class="g1_676"/>
<path fill-rule="evenodd" d="M235.2,719.3H539.8V695.7H235.2v23.6Z" class="g1_676"/>
<path fill-rule="evenodd" d="M235.2,742.8H539.8V719.3H235.2v23.5Z" class="g1_676"/>
<path fill-rule="evenodd" d="M235.2,766.4H539.8V742.8H235.2v23.6Z" class="g1_676"/>
<path fill-rule="evenodd" d="M235.2,789.9H539.8V766.4H235.2v23.5Z" class="g1_676"/>
<path fill-rule="evenodd" d="M548.3,812.5H830.9V570.2H548.3V812.5Z" class="g1_676"/>
<path fill-rule="evenodd" d="M555.1,601.4H824V577.9H555.1v23.5Z" class="g1_676"/>
<path fill-rule="evenodd" d="M555.1,625.1H824V601.4H555.1v23.7Z" class="g1_676"/>
<path fill-rule="evenodd" d="M555.1,648.6H824V625.1H555.1v23.5Z" class="g1_676"/>
<path fill-rule="evenodd" d="M555.1,672.2H824V648.6H555.1v23.6Z" class="g1_676"/>
<path fill-rule="evenodd" d="M110,577.9h1.5v-9.1H110v9.1Z" class="g2_676"/>
<path fill-rule="evenodd" d="M111.5,570.2H227v-1.4H111.5v1.4Z" class="g2_676"/>
<path fill-rule="evenodd" d="M111.5,577.9H227v-7.7H111.5v7.7Z" class="g1_676"/>
<path fill-rule="evenodd" d="M227,577.9h1.5v-9.1H227v9.1Z" class="g2_676"/>
<path fill-rule="evenodd" d="M228.5,570.2H546.6v-1.4H228.5v1.4Z" class="g2_676"/>
<path fill-rule="evenodd" d="M228.5,577.9H546.6v-7.7H228.5v7.7Z" class="g1_676"/>
<path fill-rule="evenodd" d="M546.6,577.9h1.5v-9.1h-1.5v9.1Z" class="g2_676"/>
<path fill-rule="evenodd" d="M548.1,570.2H830.9v-1.4H548.1v1.4Z" class="g2_676"/>
<path fill-rule="evenodd" d="M548.1,577.9H830.9v-7.7H548.1v7.7Z" class="g1_676"/>
<path fill-rule="evenodd" d="M830.9,577.9h1.4v-9.1h-1.4v9.1Z" class="g2_676"/>
<path fill-rule="evenodd" d="M110.8,812.5H227.7v-7.7H110.8v7.7Z" class="g1_676"/>
<path fill-rule="evenodd" d="M110,812.5h1.5V577.9H110V812.5Z" class="g2_676"/>
<path fill-rule="evenodd" d="M227.7,812.5H547.4v-7.7H227.7v7.7Z" class="g1_676"/>
<path fill-rule="evenodd" d="M227,812.5h1.5V577.9H227V812.5Z" class="g2_676"/>
<path fill-rule="evenodd" d="M547.4,812.5H831.6v-7.7H547.4v7.7Z" class="g1_676"/>
<path fill-rule="evenodd" d="M546.6,812.5h1.5V577.9h-1.5V812.5Z" class="g2_676"/>
<path fill-rule="evenodd" d="M830.9,812.5h1.4V577.9h-1.4V812.5Z" class="g2_676"/>
<path fill-rule="evenodd" d="M111.5,950.7H227V813.9H111.5V950.7Z" class="g1_676"/>
<path clip-path="url(#c0_676)" fill-rule="evenodd" d="M118.5,845.1H220V821.6H118.5v23.5Z" class="g1_676"/>
<path fill-rule="evenodd" d="M228.5,950.7H546.6V813.9H228.5V950.7Z" class="g1_676"/>
<path clip-path="url(#c1_676)" fill-rule="evenodd" d="M235.2,845.1H539.8V821.6H235.2v23.5Z" class="g1_676"/>
<path fill-rule="evenodd" d="M235.2,868.8H539.8V845.1H235.2v23.7Z" class="g1_676"/>
<path fill-rule="evenodd" d="M548.3,950.7H830.9V813.9H548.3V950.7Z" class="g1_676"/>
<path clip-path="url(#c2_676)" fill-rule="evenodd" d="M555.1,845.1H824V821.6H555.1v23.5Z" class="g1_676"/>
<path fill-rule="evenodd" d="M555.1,868.8H824V845.1H555.1v23.7Z" class="g1_676"/>
<path fill-rule="evenodd" d="M555.1,892.3H824V868.8H555.1v23.5Z" class="g1_676"/>
<path fill-rule="evenodd" d="M555.1,915.9H824V892.3H555.1v23.6Z" class="g1_676"/>
<path fill-rule="evenodd" d="M555.1,939.4H824V915.9H555.1v23.5Z" class="g1_676"/>
<path fill-rule="evenodd" d="M110,821.6h1.5v-9.1H110v9.1Z" class="g2_676"/>
<path fill-rule="evenodd" d="M111.5,813.9H227v-1.4H111.5v1.4Z" class="g2_676"/>
<path fill-rule="evenodd" d="M111.5,821.6H227v-7.7H111.5v7.7Z" class="g1_676"/>
<path fill-rule="evenodd" d="M227,821.6h1.5v-9.1H227v9.1Z" class="g2_676"/>
<path fill-rule="evenodd" d="M228.5,813.9H546.6v-1.4H228.5v1.4Z" class="g2_676"/>
<path fill-rule="evenodd" d="M228.5,821.6H546.6v-7.7H228.5v7.7Z" class="g1_676"/>
<path fill-rule="evenodd" d="M546.6,821.6h1.5v-9.1h-1.5v9.1Z" class="g2_676"/>
<path fill-rule="evenodd" d="M548.1,813.9H830.9v-1.4H548.1v1.4Z" class="g2_676"/>
<path fill-rule="evenodd" d="M548.1,821.6H830.9v-7.7H548.1v7.7Z" class="g1_676"/>
<path fill-rule="evenodd" d="M830.9,821.6h1.4v-9.1h-1.4v9.1Z" class="g2_676"/>
<path fill-rule="evenodd" d="M110.8,950.7H227.7V943H110.8v7.7Z" class="g1_676"/>
<path fill-rule="evenodd" d="M110,950.7h1.5V821.6H110V950.7Z" class="g2_676"/>
<path fill-rule="evenodd" d="M227.7,950.7H547.4V943H227.7v7.7Z" class="g1_676"/>
<path fill-rule="evenodd" d="M227,950.7h1.5V821.6H227V950.7Z" class="g2_676"/>
<path fill-rule="evenodd" d="M547.4,950.7H831.6V943H547.4v7.7Z" class="g1_676"/>
<path fill-rule="evenodd" d="M546.6,950.7h1.5V821.6h-1.5V950.7Z" class="g2_676"/>
<path fill-rule="evenodd" d="M830.9,950.7h1.4V821.6h-1.4V950.7Z" class="g2_676"/>
<path fill-rule="evenodd" d="M111.5,1060.4H227V952.2H111.5v108.2Z" class="g1_676"/>
<path fill-rule="evenodd" d="M118.5,983.6H220V959.9H118.5v23.7Z" class="g1_676"/>
<path fill-rule="evenodd" d="M228.5,1060.4H546.6V952.2H228.5v108.2Z" class="g1_676"/>
<path fill-rule="evenodd" d="M235.2,983.6H539.8V959.9H235.2v23.7Z" class="g1_676"/>
<path fill-rule="evenodd" d="M235.2,1007H539.8V983.6H235.2V1007Z" class="g1_676"/>
<path fill-rule="evenodd" d="M235.2,1030.7H539.8V1007H235.2v23.7Z" class="g1_676"/>
<path fill-rule="evenodd" d="M548.3,1060.4H830.9V952.2H548.3v108.2Z" class="g1_676"/>
<path fill-rule="evenodd" d="M555.1,983.6H824V959.9H555.1v23.7Z" class="g1_676"/>
<path fill-rule="evenodd" d="M555.1,1007H824V983.6H555.1V1007Z" class="g1_676"/>
<path fill-rule="evenodd" d="M555.1,1030.7H824V1007H555.1v23.7Z" class="g1_676"/>
<path fill-rule="evenodd" d="M110,959.9h1.5v-9.2H110v9.2Z" class="g2_676"/>
<path fill-rule="evenodd" d="M111.5,952.2H227v-1.5H111.5v1.5Z" class="g2_676"/>
<path fill-rule="evenodd" d="M111.5,959.9H227v-7.7H111.5v7.7Z" class="g1_676"/>
<path fill-rule="evenodd" d="M227,959.9h1.5v-9.2H227v9.2Z" class="g2_676"/>
<path fill-rule="evenodd" d="M228.5,952.2H546.6v-1.5H228.5v1.5Z" class="g2_676"/>
<path fill-rule="evenodd" d="M228.5,959.9H546.6v-7.7H228.5v7.7Z" class="g1_676"/>
<path fill-rule="evenodd" d="M546.6,959.9h1.5v-9.2h-1.5v9.2Z" class="g2_676"/>
<path fill-rule="evenodd" d="M548.1,952.2H830.9v-1.5H548.1v1.5Z" class="g2_676"/>
<path fill-rule="evenodd" d="M548.1,959.9H830.9v-7.7H548.1v7.7Z" class="g1_676"/>
<path fill-rule="evenodd" d="M830.9,959.9h1.4v-9.2h-1.4v9.2Z" class="g2_676"/>
<path fill-rule="evenodd" d="M110.8,1060.4H227.7v-7.7H110.8v7.7Z" class="g1_676"/>
<path fill-rule="evenodd" d="M110,1060.4h1.5V959.9H110v100.5Z" class="g2_676"/>
<path fill-rule="evenodd" d="M110,1061.8h1.5v-1.4H110v1.4Z" class="g2_676"/>
<path fill-rule="evenodd" d="M110,1061.8h1.5v-1.4H110v1.4Z" class="g2_676"/>
<path fill-rule="evenodd" d="M111.5,1061.8H227v-1.4H111.5v1.4Z" class="g2_676"/>
<path fill-rule="evenodd" d="M227.7,1060.4H547.4v-7.7H227.7v7.7Z" class="g1_676"/>
<path fill-rule="evenodd" d="M227,1060.4h1.5V959.9H227v100.5Z" class="g2_676"/>
<path fill-rule="evenodd" d="M227,1061.8h1.5v-1.4H227v1.4Z" class="g2_676"/>
<path fill-rule="evenodd" d="M228.5,1061.8H546.6v-1.4H228.5v1.4Z" class="g2_676"/>
<path fill-rule="evenodd" d="M547.4,1060.4H831.6v-7.7H547.4v7.7Z" class="g1_676"/>
<path fill-rule="evenodd" d="M546.6,1060.4h1.5V959.9h-1.5v100.5Z" class="g2_676"/>
<path fill-rule="evenodd" d="M546.6,1061.8h1.5v-1.4h-1.5v1.4Z" class="g2_676"/>
<path fill-rule="evenodd" d="M548.1,1061.8H830.9v-1.4H548.1v1.4Z" class="g2_676"/>
<path fill-rule="evenodd" d="M830.9,1060.4h1.4V959.9h-1.4v100.5Z" class="g2_676"/>
<path fill-rule="evenodd" d="M830.9,1061.8h1.4v-1.4h-1.4v1.4Z" class="g2_676"/>
<path fill-rule="evenodd" d="M830.9,1061.8h1.4v-1.4h-1.4v1.4Z" class="g2_676"/>
</svg>