<?xml version="1.0" encoding="UTF-8" standalone="no"?>
<!DOCTYPE svg PUBLIC "-//W3C//DTD SVG 1.1//EN"
"http://www.w3.org/Graphics/SVG/1.1/DTD/svg11.dtd">
<svg viewBox="0 0 935 1210" version="1.1" xmlns="http://www.w3.org/2000/svg" xmlns:xlink="http://www.w3.org/1999/xlink">
<defs>
<clipPath id="c0_669"><path d="M111.1,703.6V634.4H480.3v69.2Z"/></clipPath>
<clipPath id="c1_669"><path d="M481.4,703.6V634.4H835.6v69.2Z"/></clipPath>
<style type="text/css"><![CDATA[
.g0_669{
fill: #C0C0C0;
fill-opacity: 0.50196;
}
.g1_669{
fill: #FFFFFF;
}
.g2_669{
fill: #808080;
}
]]></style>
</defs>
<path fill-rule="evenodd" d="M167,938.7C151.6,923.3,136.1,907.8,120.7,892.4c3.1,-3.2,6.3,-6.3,9.4,-9.5c14.6,7.3,29.4,14.3,44.1,21.6c4,2.1,7.1,3.6,9.1,4.6c-1.2,-2.2,-2.8,-5.5,-4.9,-9.9c-7.1,-14.5,-13.9,-29.1,-20.9,-43.6c2.8,-2.9,5.6,-5.7,8.4,-8.5c15.5,15.5,30.9,30.9,46.4,46.4c-2,2,-4.1,4,-6.1,6C193.3,886.6,180.4,873.7,167.4,860.7c8.5,17.5,16.6,35.1,25,52.6c-1.8,1.9,-3.7,3.8,-5.6,5.7c-17.7,-8.7,-35.5,-17.1,-53.2,-25.8c13.2,13.2,26.3,26.3,39.5,39.5c-2,2,-4.1,4,-6.1,6Z" class="g0_669"/>
<path fill-rule="evenodd" d="M235.6,870.1C226.1,848.7,217,827,207.5,805.6c2.2,-2.3,4.5,-4.5,6.7,-6.8c21.9,9.2,43.9,17.8,65.8,27c-2.4,2.3,-4.8,4.7,-7.2,7.1c-6.5,-2.9,-13,-5.6,-19.5,-8.5c-6.6,6.6,-13.3,13.2,-19.9,19.8c3,6.4,5.9,12.9,8.9,19.3c-2.3,2.2,-4.5,4.4,-6.7,6.6Zm-5.3,-32.7c5.3,-5.3,10.7,-10.7,16,-16.1c-5.9,-2.6,-11.9,-5.2,-17.8,-7.8c-5.4,-2.4,-9.7,-4.5,-12.9,-6.3c2.3,3.6,4.4,7.4,6.3,11.4c2.8,6.3,5.5,12.6,8.4,18.8Z" class="g0_669"/>
<path fill-rule="evenodd" d="M303.2,802.5C287.8,787.1,272.3,771.6,256.9,756.2c3.1,-3.2,6.3,-6.3,9.4,-9.5c14.6,7.3,29.4,14.3,44,21.6c4.1,2.1,7.2,3.6,9.2,4.6c-1.2,-2.2,-2.8,-5.5,-4.9,-9.9c-7.1,-14.5,-13.9,-29.1,-20.9,-43.6c2.8,-2.8,5.6,-5.7,8.4,-8.5c15.5,15.5,30.9,30.9,46.4,46.4c-2,2,-4.1,4,-6.1,6C329.5,750.4,316.6,737.5,303.6,724.5c8.5,17.5,16.6,35.1,25,52.6c-1.8,1.9,-3.7,3.8,-5.6,5.7C305.3,774.1,287.5,765.7,269.8,757c13.2,13.2,26.3,26.3,39.5,39.5c-2,2,-4.1,4,-6.1,6Z" class="g0_669"/>
<path fill-rule="evenodd" d="M338.9,733.3c-6.2,-6.3,-9,-12.6,-8.5,-19.2c.4,-5.4,2.8,-10.2,7.1,-14.5c4.7,-4.7,10.1,-7.1,16.1,-7c6,0,11.7,2.7,17,8c4.3,4.3,7,8.4,8.2,12.2c1.2,3.8,1.1,7.6,0,11.5c-1.1,4,-3.2,7.4,-6.3,10.4c-4.8,4.8,-10.2,7.3,-16.1,7.1c-6,0,-11.8,-2.9,-17.5,-8.5Zm6,-6c4.3,4.3,8.5,6.5,12.5,6.8c4.1,.2,7.6,-1.1,10.5,-4.1c2.9,-2.8,4.3,-6.4,4,-10.4c-.3,-4.1,-2.6,-8.3,-7,-12.7c-4.1,-4.2,-8.3,-6.3,-12.3,-6.6c-4.1,-.2,-7.6,1.1,-10.4,4c-2.9,2.9,-4.3,6.4,-4.1,10.5c.3,4,2.5,8.2,6.8,12.5Z" class="g0_669"/>
<path fill-rule="evenodd" d="M394.7,711.1C379.2,695.6,363.8,680.2,348.3,664.7c2,-2,3.9,-3.9,5.9,-5.8c5.5,5.5,11,11.1,16.6,16.6c-.4,-5.8,1.5,-10.8,5.7,-14.9c2.5,-2.6,5.2,-4.3,8.1,-5.2c2.8,-.9,5.5,-.9,8.1,.1c2.5,.9,5.4,3,8.7,6.3c7.1,7.1,14.2,14.2,21.3,21.3c-2,1.9,-3.9,3.9,-5.8,5.8c-7.1,-7.1,-14.2,-14.2,-21.3,-21.3c-2.9,-2.8,-5.6,-4.3,-8.1,-4.3c-2.6,-.1,-5,1.1,-7.3,3.4c-1.7,1.7,-2.9,3.8,-3.6,6.1c-.6,2.5,-.5,4.8,.3,6.9c.9,2.1,2.6,4.5,5.2,7.2c6.2,6.1,12.3,12.2,18.4,18.3c-1.9,2,-3.9,3.9,-5.8,5.9Z" class="g0_669"/>
<path fill-rule="evenodd" d="M391.8,634.4c-2.2,-2.2,-4.4,-4.4,-6.6,-6.6c2,-1.9,3.9,-3.9,5.9,-5.8c2.1,2.2,4.3,4.4,6.5,6.5c-2,2,-3.9,3.9,-5.8,5.9Zm39.8,39.8C420.4,663,409.2,651.8,398,640.6c1.9,-1.9,3.9,-3.9,5.8,-5.8c11.2,11.2,22.4,22.4,33.6,33.5c-1.9,2,-3.9,3.9,-5.8,5.9Z" class="g0_669"/>
<path fill-rule="evenodd" d="M459,625.2c2.2,-1.8,4.5,-3.6,6.7,-5.3c2.5,4.3,3.4,8.8,2.7,13.2c-.6,4.5,-3,8.7,-6.9,12.7c-5.1,5,-10.5,7.6,-16.5,7.4c-6,-.1,-11.7,-2.8,-17.2,-8.3c-5.6,-5.6,-8.5,-11.5,-8.7,-17.6c-.2,-6.1,2.2,-11.5,6.9,-16.3c4.6,-4.5,9.9,-6.8,15.9,-6.6c6,.2,11.7,3,17.2,8.5c.4,.3,.9,.9,1.5,1.5c-8.5,8.6,-17.1,17.1,-25.6,25.7c3.9,3.4,7.8,5.2,11.7,5.2c3.9,.1,7.2,-1.3,10.1,-4.2c2.1,-2.1,3.4,-4.5,3.8,-7.1c.4,-2.6,-.1,-5.6,-1.6,-8.8Zm-28.3,9.9c6.4,-6.4,12.7,-12.8,19.1,-19.2c-3,-2.6,-5.9,-3.9,-8.5,-4.2c-4,-.3,-7.6,1,-10.5,3.9c-2.7,2.7,-4.1,5.9,-4.1,9.4c-.1,3.6,1.2,6.9,4,10.1Z" class="g0_669"/>
<path fill-rule="evenodd" d="M483.1,622.6C471.9,611.4,460.7,600.2,449.5,589.1c1.8,-1.8,3.5,-3.5,5.2,-5.3c1.6,1.6,3.2,3.2,4.7,4.7c-.5,-2.6,-.4,-5.4,.4,-8.2c.7,-2.8,2.3,-5.3,4.6,-7.6c2.6,-2.6,5.1,-4.2,7.8,-4.7c2.7,-.6,5.2,-.4,7.8,.8c-1.3,-6.6,.3,-12.1,4.7,-16.4c3.4,-3.4,7,-5.2,10.6,-5.2c3.7,.1,7.5,2,11.3,5.8c7.7,7.7,15.4,15.4,23.1,23.1c-2,1.9,-3.9,3.8,-5.8,5.8c-7.1,-7.1,-14.1,-14.1,-21.2,-21.2c-2.3,-2.3,-4.1,-3.7,-5.5,-4.4c-1.3,-.6,-2.8,-.7,-4.4,-.3c-1.6,.4,-3.1,1.3,-4.4,2.6c-2.5,2.4,-3.7,5.2,-3.7,8.3c0,3.2,1.7,6.5,5.1,10c6.5,6.5,13.1,13,19.5,19.5c-1.9,1.9,-3.8,3.9,-5.8,5.8C496.3,595,489,587.7,481.7,580.4c-2.5,-2.5,-4.9,-3.9,-7.1,-4.3c-2.2,-.3,-4.4,.6,-6.6,2.8c-1.6,1.7,-2.7,3.5,-3.2,5.8c-.5,2.2,-.4,4.5,.6,6.7c1,2.2,3,4.9,6.1,8c5.8,5.8,11.6,11.6,17.4,17.4c-1.9,2,-3.8,3.9,-5.8,5.8Z" class="g0_669"/>
<path fill-rule="evenodd" d="M551,533.1c2.3,-1.7,4.5,-3.5,6.8,-5.3c2.5,4.4,3.3,8.8,2.7,13.3c-.6,4.5,-3,8.7,-7,12.7c-5,5,-10.5,7.5,-16.5,7.4c-5.9,-.2,-11.7,-2.8,-17.1,-8.3c-5.7,-5.7,-8.5,-11.5,-8.7,-17.6c-.2,-6.1,2.1,-11.5,6.9,-16.3c4.6,-4.6,9.8,-6.9,15.8,-6.7c6,.2,11.7,3,17.3,8.6c.3,.3,.8,.8,1.5,1.5c-8.6,8.5,-17.1,17.1,-25.6,25.6c3.9,3.5,7.8,5.2,11.6,5.3c3.9,.1,7.3,-1.4,10.2,-4.2c2.1,-2.2,3.4,-4.5,3.8,-7.2c.4,-2.6,-.1,-5.5,-1.7,-8.8ZM522.7,543c6.4,-6.4,12.8,-12.8,19.2,-19.2c-3.1,-2.5,-6,-3.9,-8.6,-4.1c-4,-.4,-7.5,1,-10.5,3.9c-2.7,2.7,-4.1,5.8,-4.1,9.4c-.1,3.6,1.2,6.9,4,10Z" class="g0_669"/>
<path fill-rule="evenodd" d="M575.1,530.6C564,519.4,552.8,508.2,541.6,497c1.7,-1.7,3.5,-3.5,5.2,-5.2c1.6,1.6,3.2,3.2,4.8,4.8c-1.2,-6.3,.6,-11.8,5.4,-16.5c2.1,-2.1,4.3,-3.7,6.8,-4.7c2.4,-.9,4.7,-1.3,6.7,-1c2.1,.3,4.1,1.2,6.1,2.4c1.2,.8,3.2,2.6,5.8,5.2c6.9,6.9,13.8,13.8,20.7,20.7c-2,1.9,-3.9,3.9,-5.8,5.8c-6.8,-6.8,-13.7,-13.6,-20.5,-20.4c-2.3,-2.3,-4.3,-3.8,-5.9,-4.6c-1.6,-.7,-3.3,-.7,-5.1,-.3c-1.9,.5,-3.5,1.5,-5.1,3c-2.5,2.5,-3.9,5.4,-4.1,8.8c-.2,3.3,1.7,7.1,6,11.4c6.2,6.2,12.3,12.3,18.4,18.4c-2,1.9,-3.9,3.9,-5.9,5.8Z" class="g0_669"/>
<path fill-rule="evenodd" d="M643.2,462.5C629.6,448.9,616,435.3,602.3,421.6c-5.2,5.2,-10.4,10.5,-15.6,15.7c-1.8,-1.8,-3.7,-3.7,-5.5,-5.5c12.6,-12.5,25.1,-25.1,37.6,-37.6c1.8,1.8,3.7,3.7,5.5,5.5c-5.2,5.2,-10.5,10.4,-15.7,15.7c13.6,13.6,27.3,27.2,40.9,40.9c-2.1,2,-4.2,4.1,-6.3,6.2Z" class="g0_669"/>
<path fill-rule="evenodd" d="M689.1,408.3c-.3,4,-1.1,7.3,-2.4,10c-1.2,2.8,-3,5.3,-5.3,7.6c-3.8,3.8,-7.6,5.7,-11.4,5.9c-3.8,.2,-7.1,-1,-10,-3.8c-1.6,-1.6,-2.7,-3.6,-3.3,-5.7c-.6,-2.1,-.7,-4.2,-.3,-6.3c.4,-2,1.2,-4,2.3,-6c.9,-1.4,2.4,-3.4,4.4,-6c4.1,-5.3,7,-9.4,8.4,-12.4c-.8,-.8,-1.2,-1.3,-1.5,-1.5c-2.3,-2.3,-4.5,-3.4,-6.5,-3.3c-2.8,.2,-5.6,1.8,-8.6,4.8c-2.7,2.7,-4.3,5.2,-4.6,7.4c-.4,2.3,.3,4.9,2.1,7.9c-2.2,1.6,-4.3,3.3,-6.5,4.9C644,409,643,406.2,642.7,403.5c-.3,-2.7,.3,-5.5,1.7,-8.5c1.5,-3.1,3.7,-6,6.7,-9c2.9,-2.9,5.6,-5,8.1,-6.1c2.5,-1.2,4.7,-1.7,6.6,-1.5c1.9,.2,3.8,.8,5.7,2c1.2,.8,3,2.5,5.6,5c2.5,2.5,5,5,7.5,7.6c5.3,5.3,8.8,8.5,10.4,9.6c1.7,1.2,3.5,2,5.5,2.6c-2,2,-4,4.1,-6,6.1c-1.8,-.6,-3.6,-1.6,-5.4,-3ZM676,396.1c-1.3,3,-3.8,6.8,-7.4,11.6c-2,2.8,-3.4,4.8,-3.9,6.3c-.6,1.4,-.8,2.8,-.5,4.1c.3,1.4,.9,2.5,1.9,3.5c1.5,1.5,3.4,2.2,5.6,2c2.2,-.1,4.4,-1.3,6.6,-3.6c2.3,-2.2,3.8,-4.7,4.6,-7.4c.8,-2.7,.8,-5.3,-.1,-7.8c-.7,-1.9,-2.3,-4.1,-4.8,-6.6c-.7,-.7,-1.3,-1.4,-2,-2.1Z" class="g0_669"/>
<path fill-rule="evenodd" d="M707.7,398C696.5,386.8,685.3,375.7,674.1,364.5c1.8,-1.8,3.5,-3.5,5.3,-5.3c1.6,1.6,3.2,3.2,4.8,4.8c-1.3,-6.2,.6,-11.7,5.4,-16.5c2,-2.1,4.3,-3.6,6.8,-4.6c2.4,-1,4.7,-1.4,6.7,-1c2.1,.3,4.1,1.1,6,2.4c1.3,.8,3.3,2.5,5.9,5.2c6.9,6.8,13.8,13.7,20.6,20.6c-1.9,1.9,-3.8,3.9,-5.8,5.8C723,369.1,716.2,362.3,709.4,355.5c-2.3,-2.3,-4.3,-3.8,-5.9,-4.5c-1.6,-.7,-3.3,-.8,-5.2,-.4c-1.8,.5,-3.5,1.5,-5,3.1c-2.5,2.5,-3.9,5.4,-4.1,8.7c-.3,3.4,1.7,7.2,6,11.5c6.1,6.1,12.2,12.2,18.3,18.3c-1.9,1.9,-3.8,3.9,-5.8,5.8Z" class="g0_669"/>
<path fill-rule="evenodd" d="M704.8,321.3c-2.2,-2.1,-4.4,-4.3,-6.5,-6.5c1.9,-2,3.8,-3.9,5.8,-5.8c2.1,2.1,4.3,4.3,6.5,6.5c-1.9,2,-3.9,3.9,-5.8,5.8Zm39.8,39.9C733.4,350,722.2,338.8,711,327.6c2,-2,3.9,-3.9,5.8,-5.9c11.2,11.2,22.4,22.4,33.6,33.6c-1.9,2,-3.9,3.9,-5.8,5.9Z" class="g0_669"/>
<path fill-rule="evenodd" d="M759.3,346.5C748.1,335.3,736.9,324.1,725.7,312.9c1.8,-1.8,3.5,-3.5,5.2,-5.2c1.6,1.5,3.2,3.1,4.7,4.7c-.6,-2.7,-.4,-5.5,.3,-8.3c.8,-2.8,2.4,-5.3,4.7,-7.6c2.5,-2.6,5.1,-4.2,7.8,-4.7c2.7,-.6,5.2,-.3,7.8,.9c-1.3,-6.7,.3,-12.2,4.7,-16.5c3.4,-3.4,6.9,-5.2,10.6,-5.1c3.7,0,7.5,1.9,11.3,5.7c7.7,7.7,15.4,15.4,23,23.1c-1.9,1.9,-3.8,3.9,-5.7,5.8C793,298.6,786,291.6,778.9,284.5c-2.3,-2.2,-4.1,-3.7,-5.5,-4.3c-1.4,-.6,-2.9,-.8,-4.5,-.4c-1.6,.4,-3,1.3,-4.4,2.6c-2.4,2.4,-3.6,5.2,-3.6,8.4c0,3.1,1.7,6.5,5.1,9.9c6.5,6.5,13,13,19.5,19.5c-1.9,2,-3.9,3.9,-5.8,5.8c-7.3,-7.2,-14.5,-14.5,-21.8,-21.8c-2.5,-2.5,-4.9,-3.9,-7.1,-4.2c-2.2,-.4,-4.4,.6,-6.6,2.7c-1.6,1.7,-2.7,3.6,-3.2,5.8c-.6,2.3,-.4,4.5,.6,6.8c1,2.2,3,4.8,6.1,7.9c5.8,5.8,11.6,11.6,17.4,17.4c-1.9,2,-3.9,3.9,-5.8,5.9Z" class="g0_669"/>
<path fill-rule="evenodd" d="M111.1,454.6H480.3V370H111.1v84.6Z" class="g1_669"/>
<path fill-rule="evenodd" d="M118.3,403.4H473.1V377.7H118.3v25.7Z" class="g1_669"/>
<path fill-rule="evenodd" d="M481.4,454.6H835.6V370H481.4v84.6Z" class="g1_669"/>
<path fill-rule="evenodd" d="M488.5,403.4h340V377.7h-340v25.7Z" class="g1_669"/>
<path fill-rule="evenodd" d="M110,377.7h1.1v-8.8H110v8.8Z" class="g2_669"/>
<path fill-rule="evenodd" d="M110,370h1.1v-1.1H110V370Z" class="g2_669"/>
<path fill-rule="evenodd" d="M111.1,370H480.3v-1.1H111.1V370Z" class="g2_669"/>
<path fill-rule="evenodd" d="M111.1,377.7H480.3V370H111.1v7.7Z" class="g1_669"/>
<path fill-rule="evenodd" d="M480.3,377.7h1.1V370h-1.1v7.7Z" class="g2_669"/>
<path fill-rule="evenodd" d="M480.3,370h1.1v-1.1h-1.1V370Z" class="g2_669"/>
<path fill-rule="evenodd" d="M481.4,370H835.6v-1.1H481.4V370Z" class="g2_669"/>
<path fill-rule="evenodd" d="M481.4,377.7H835.6V370H481.4v7.7Z" class="g1_669"/>
<path fill-rule="evenodd" d="M835.6,377.7h1.1v-8.8h-1.1v8.8Z" class="g2_669"/>
<path fill-rule="evenodd" d="M835.6,370h1.1v-1.1h-1.1V370Z" class="g2_669"/>
<path fill-rule="evenodd" d="M110.6,454.6H480.8v-7.7H110.6v7.7Z" class="g1_669"/>
<path fill-rule="evenodd" d="M110,454.6h1.1V377.7H110v76.9Z" class="g2_669"/>
<path fill-rule="evenodd" d="M480.8,454.6H836.2v-7.7H480.8v7.7Z" class="g1_669"/>
<path fill-rule="evenodd" d="M480.3,454.6h1.1V377.7h-1.1v76.9Z" class="g2_669"/>
<path fill-rule="evenodd" d="M835.6,454.6h1.1V377.7h-1.1v76.9Z" class="g2_669"/>
<path fill-rule="evenodd" d="M111.1,540.2H480.3V455.7H111.1v84.5Z" class="g1_669"/>
<path fill-rule="evenodd" d="M118.3,486.8H473.1V463.4H118.3v23.4Z" class="g1_669"/>
<path fill-rule="evenodd" d="M481.4,540.2H835.6V455.7H481.4v84.5Z" class="g1_669"/>
<path fill-rule="evenodd" d="M488.5,486.8h340V463.4h-340v23.4Z" class="g1_669"/>
<path fill-rule="evenodd" d="M488.5,510.5h340V486.8h-340v23.7Z" class="g1_669"/>
<path fill-rule="evenodd" d="M110,463.4h1.1v-8.8H110v8.8Z" class="g2_669"/>
<path fill-rule="evenodd" d="M111.1,455.7H480.3v-1.1H111.1v1.1Z" class="g2_669"/>
<path fill-rule="evenodd" d="M111.1,463.4H480.3v-7.7H111.1v7.7Z" class="g1_669"/>
<path fill-rule="evenodd" d="M480.3,463.4h1.1v-8.8h-1.1v8.8Z" class="g2_669"/>
<path fill-rule="evenodd" d="M481.4,455.7H835.6v-1.1H481.4v1.1Z" class="g2_669"/>
<path fill-rule="evenodd" d="M481.4,463.4H835.6v-7.7H481.4v7.7Z" class="g1_669"/>
<path fill-rule="evenodd" d="M835.6,463.4h1.1v-8.8h-1.1v8.8Z" class="g2_669"/>
<path fill-rule="evenodd" d="M110.6,540H480.8v-7.7H110.6V540Z" class="g1_669"/>
<path fill-rule="evenodd" d="M110,540h1.1V463.4H110V540Z" class="g2_669"/>
<path fill-rule="evenodd" d="M480.8,540H836.2v-7.7H480.8V540Z" class="g1_669"/>
<path fill-rule="evenodd" d="M480.3,540h1.1V463.4h-1.1V540Z" class="g2_669"/>
<path fill-rule="evenodd" d="M835.6,540h1.1V463.4h-1.1V540Z" class="g2_669"/>
<path fill-rule="evenodd" d="M111.1,625.6H480.3V541.1H111.1v84.5Z" class="g1_669"/>
<path fill-rule="evenodd" d="M118.3,572.4H473.1V548.8H118.3v23.6Z" class="g1_669"/>
<path fill-rule="evenodd" d="M118.3,595.9H473.1V572.4H118.3v23.5Z" class="g1_669"/>
<path fill-rule="evenodd" d="M481.4,625.6H835.6V541.1H481.4v84.5Z" class="g1_669"/>
<path fill-rule="evenodd" d="M488.5,572.4h340V548.8h-340v23.6Z" class="g1_669"/>
<path fill-rule="evenodd" d="M110,548.8h1.1V540H110v8.8Z" class="g2_669"/>
<path fill-rule="evenodd" d="M111.1,541.1H480.3V540H111.1v1.1Z" class="g2_669"/>
<path fill-rule="evenodd" d="M111.1,548.8H480.3v-7.7H111.1v7.7Z" class="g1_669"/>
<path fill-rule="evenodd" d="M480.3,548.8h1.1V540h-1.1v8.8Z" class="g2_669"/>
<path fill-rule="evenodd" d="M481.4,541.1H835.6V540H481.4v1.1Z" class="g2_669"/>
<path fill-rule="evenodd" d="M481.4,548.8H835.6v-7.7H481.4v7.7Z" class="g1_669"/>
<path fill-rule="evenodd" d="M835.6,548.8h1.1V540h-1.1v8.8Z" class="g2_669"/>
<path fill-rule="evenodd" d="M110.6,625.6H480.8v-7.7H110.6v7.7Z" class="g1_669"/>
<path fill-rule="evenodd" d="M110,625.6h1.1V548.8H110v76.8Z" class="g2_669"/>
<path fill-rule="evenodd" d="M480.8,625.6H836.2v-7.7H480.8v7.7Z" class="g1_669"/>
<path fill-rule="evenodd" d="M480.3,625.6h1.1V548.8h-1.1v76.8Z" class="g2_669"/>
<path fill-rule="evenodd" d="M835.6,625.6h1.1V548.8h-1.1v76.8Z" class="g2_669"/>
<path fill-rule="evenodd" d="M111.1,711.3H480.3V626.7H111.1v84.6Z" class="g1_669"/>
<path clip-path="url(#c0_669)" fill-rule="evenodd" d="M118.3,658.1H473.1V634.4H118.3v23.7Z" class="g1_669"/>
<path fill-rule="evenodd" d="M118.3,681.6H473.1V658.1H118.3v23.5Z" class="g1_669"/>
<path fill-rule="evenodd" d="M481.4,711.3H835.6V626.7H481.4v84.6Z" class="g1_669"/>
<path clip-path="url(#c1_669)" fill-rule="evenodd" d="M488.5,658.1h340V634.4h-340v23.7Z" class="g1_669"/>
<path fill-rule="evenodd" d="M488.5,681.6h340V658.1h-340v23.5Z" class="g1_669"/>
<path fill-rule="evenodd" d="M110,634.4h1.1v-8.8H110v8.8Z" class="g2_669"/>
<path fill-rule="evenodd" d="M111.1,626.7H480.3v-1.1H111.1v1.1Z" class="g2_669"/>
<path fill-rule="evenodd" d="M111.1,634.4H480.3v-7.7H111.1v7.7Z" class="g1_669"/>
<path fill-rule="evenodd" d="M480.3,634.4h1.1v-8.8h-1.1v8.8Z" class="g2_669"/>
<path fill-rule="evenodd" d="M481.4,626.7H835.6v-1.1H481.4v1.1Z" class="g2_669"/>
<path fill-rule="evenodd" d="M481.4,634.4H835.6v-7.7H481.4v7.7Z" class="g1_669"/>
<path fill-rule="evenodd" d="M835.6,634.4h1.1v-8.8h-1.1v8.8Z" class="g2_669"/>
<path fill-rule="evenodd" d="M110.6,711.3H480.8v-7.7H110.6v7.7Z" class="g1_669"/>
<path fill-rule="evenodd" d="M110,711.3h1.1V634.4H110v76.9Z" class="g2_669"/>
<path fill-rule="evenodd" d="M110,712.4h1.1v-1.1H110v1.1Z" class="g2_669"/>
<path fill-rule="evenodd" d="M110,712.4h1.1v-1.1H110v1.1Z" class="g2_669"/>
<path fill-rule="evenodd" d="M111.1,712.4H480.3v-1.1H111.1v1.1Z" class="g2_669"/>
<path fill-rule="evenodd" d="M480.8,711.3H836.2v-7.7H480.8v7.7Z" class="g1_669"/>
<path fill-rule="evenodd" d="M480.3,711.3h1.1V634.4h-1.1v76.9Z" class="g2_669"/>
<path fill-rule="evenodd" d="M480.3,712.4h1.1v-1.1h-1.1v1.1Z" class="g2_669"/>
<path fill-rule="evenodd" d="M481.4,712.4H835.6v-1.1H481.4v1.1Z" class="g2_669"/>
<path fill-rule="evenodd" d="M835.6,711.3h1.1V634.4h-1.1v76.9Z" class="g2_669"/>
<path fill-rule="evenodd" d="M835.6,712.4h1.1v-1.1h-1.1v1.1Z" class="g2_669"/>
<path fill-rule="evenodd" d="M835.6,712.4h1.1v-1.1h-1.1v1.1Z" class="g2_669"/>
</svg>