<?xml version="1.0" encoding="UTF-8" standalone="no"?>
<!DOCTYPE svg PUBLIC "-//W3C//DTD SVG 1.1//EN"
"http://www.w3.org/Graphics/SVG/1.1/DTD/svg11.dtd">
<svg viewBox="0 0 935 1210" version="1.1" xmlns="http://www.w3.org/2000/svg" xmlns:xlink="http://www.w3.org/1999/xlink">
<defs>
<clipPath id="c0_351"><path d="M103.3,712.7V621.1h48v91.6Z"/></clipPath>
<clipPath id="c1_351"><path d="M152.4,712.7V621.1H292.3v91.6Z"/></clipPath>
<clipPath id="c2_351"><path d="M293.4,712.7V621.1H911.2v91.6Z"/></clipPath>
<clipPath id="c3_351"><path d="M103.3,853.2V731.1h48V853.2Z"/></clipPath>
<clipPath id="c4_351"><path d="M152.4,853.2V731.1H292.3V853.2Z"/></clipPath>
<clipPath id="c5_351"><path d="M293.4,853.2V731.1H911.2V853.2Z"/></clipPath>
<clipPath id="c6_351"><path d="M259.5,493.8V204H824.9V493.8Z"/></clipPath>
<style type="text/css"><![CDATA[
.g0_351{
fill: #C0C0C0;
fill-opacity: 0.50196;
}
.g1_351{
fill: #FFFFFF;
}
.g2_351{
fill: #DDDDDD;
}
]]></style>
</defs>
<path fill-rule="evenodd" d="M167,938.7C151.6,923.3,136.1,907.8,120.7,892.4c3.1,-3.2,6.3,-6.3,9.4,-9.5c14.6,7.3,29.4,14.3,44.1,21.6c4,2.1,7.1,3.6,9.1,4.6c-1.2,-2.2,-2.8,-5.5,-4.9,-9.9c-7.1,-14.5,-13.9,-29.1,-20.9,-43.6c2.8,-2.9,5.6,-5.7,8.4,-8.5c15.5,15.5,30.9,30.9,46.4,46.4c-2,2,-4.1,4,-6.1,6C193.3,886.6,180.4,873.7,167.4,860.7c8.5,17.5,16.6,35.1,25,52.6c-1.8,1.9,-3.7,3.8,-5.6,5.7c-17.7,-8.7,-35.5,-17.1,-53.2,-25.8c13.2,13.2,26.3,26.3,39.5,39.5c-2,2,-4.1,4,-6.1,6Z" class="g0_351"/>
<path fill-rule="evenodd" d="M235.6,870.1C226.1,848.7,217,827,207.5,805.6c2.2,-2.3,4.5,-4.5,6.7,-6.8c21.9,9.2,43.9,17.8,65.8,27c-2.4,2.3,-4.8,4.7,-7.2,7.1c-6.5,-2.9,-13,-5.6,-19.5,-8.5c-6.6,6.6,-13.3,13.2,-19.9,19.8c3,6.4,5.9,12.9,8.9,19.3c-2.3,2.2,-4.5,4.4,-6.7,6.6Zm-5.3,-32.7c5.3,-5.3,10.7,-10.7,16,-16.1c-5.9,-2.6,-11.9,-5.2,-17.8,-7.8c-5.4,-2.4,-9.7,-4.5,-12.9,-6.3c2.3,3.6,4.4,7.4,6.3,11.4c2.8,6.3,5.5,12.6,8.4,18.8Z" class="g0_351"/>
<path fill-rule="evenodd" d="M303.2,802.5C287.8,787.1,272.3,771.6,256.9,756.2c3.1,-3.2,6.3,-6.3,9.4,-9.5c14.6,7.3,29.4,14.3,44,21.6c4.1,2.1,7.2,3.6,9.2,4.6c-1.2,-2.2,-2.8,-5.5,-4.9,-9.9c-7.1,-14.5,-13.9,-29.1,-20.9,-43.6c2.8,-2.8,5.6,-5.7,8.4,-8.5c15.5,15.5,30.9,30.9,46.4,46.4c-2,2,-4.1,4,-6.1,6C329.5,750.4,316.6,737.5,303.6,724.5c8.5,17.5,16.6,35.1,25,52.6c-1.8,1.9,-3.7,3.8,-5.6,5.7C305.3,774.1,287.5,765.7,269.8,757c13.2,13.2,26.3,26.3,39.5,39.5c-2,2,-4.1,4,-6.1,6Z" class="g0_351"/>
<path fill-rule="evenodd" d="M338.9,733.3c-6.2,-6.3,-9,-12.6,-8.5,-19.2c.4,-5.4,2.8,-10.2,7.1,-14.5c4.7,-4.7,10.1,-7.1,16.1,-7c6,0,11.7,2.7,17,8c4.3,4.3,7,8.4,8.2,12.2c1.2,3.8,1.1,7.6,0,11.5c-1.1,4,-3.2,7.4,-6.3,10.4c-4.8,4.8,-10.2,7.3,-16.1,7.1c-6,0,-11.8,-2.9,-17.5,-8.5Zm6,-6c4.3,4.3,8.5,6.5,12.5,6.8c4.1,.2,7.6,-1.1,10.5,-4.1c2.9,-2.8,4.3,-6.4,4,-10.4c-.3,-4.1,-2.6,-8.3,-7,-12.7c-4.1,-4.2,-8.3,-6.3,-12.3,-6.6c-4.1,-.2,-7.6,1.1,-10.4,4c-2.9,2.9,-4.3,6.4,-4.1,10.5c.3,4,2.5,8.2,6.8,12.5Z" class="g0_351"/>
<path fill-rule="evenodd" d="M394.7,711.1C379.2,695.6,363.8,680.2,348.3,664.7c2,-2,3.9,-3.9,5.9,-5.8c5.5,5.5,11,11.1,16.6,16.6c-.4,-5.8,1.5,-10.8,5.7,-14.9c2.5,-2.6,5.2,-4.3,8.1,-5.2c2.8,-.9,5.5,-.9,8.1,.1c2.5,.9,5.4,3,8.7,6.3c7.1,7.1,14.2,14.2,21.3,21.3c-2,1.9,-3.9,3.9,-5.8,5.8c-7.1,-7.1,-14.2,-14.2,-21.3,-21.3c-2.9,-2.8,-5.6,-4.3,-8.1,-4.3c-2.6,-.1,-5,1.1,-7.3,3.4c-1.7,1.7,-2.9,3.8,-3.6,6.1c-.6,2.5,-.5,4.8,.3,6.9c.9,2.1,2.6,4.5,5.2,7.2c6.2,6.1,12.3,12.2,18.4,18.3c-1.9,2,-3.9,3.9,-5.8,5.9Z" class="g0_351"/>
<path fill-rule="evenodd" d="M391.8,634.4c-2.2,-2.2,-4.4,-4.4,-6.6,-6.6c2,-1.9,3.9,-3.9,5.9,-5.8c2.1,2.2,4.3,4.4,6.5,6.5c-2,2,-3.9,3.9,-5.8,5.9Zm39.8,39.8C420.4,663,409.2,651.8,398,640.6c1.9,-1.9,3.9,-3.9,5.8,-5.8c11.2,11.2,22.4,22.4,33.6,33.5c-1.9,2,-3.9,3.9,-5.8,5.9Z" class="g0_351"/>
<path fill-rule="evenodd" d="M459,625.2c2.2,-1.8,4.5,-3.6,6.7,-5.3c2.5,4.3,3.4,8.8,2.7,13.2c-.6,4.5,-3,8.7,-6.9,12.7c-5.1,5,-10.5,7.6,-16.5,7.4c-6,-.1,-11.7,-2.8,-17.2,-8.3c-5.6,-5.6,-8.5,-11.5,-8.7,-17.6c-.2,-6.1,2.2,-11.5,6.9,-16.3c4.6,-4.5,9.9,-6.8,15.9,-6.6c6,.2,11.7,3,17.2,8.5c.4,.3,.9,.9,1.5,1.5c-8.5,8.6,-17.1,17.1,-25.6,25.7c3.9,3.4,7.8,5.2,11.7,5.2c3.9,.1,7.2,-1.3,10.1,-4.2c2.1,-2.1,3.4,-4.5,3.8,-7.1c.4,-2.6,-.1,-5.6,-1.6,-8.8Zm-28.3,9.9c6.4,-6.4,12.7,-12.8,19.1,-19.2c-3,-2.6,-5.9,-3.9,-8.5,-4.2c-4,-.3,-7.6,1,-10.5,3.9c-2.7,2.7,-4.1,5.9,-4.1,9.4c-.1,3.6,1.2,6.9,4,10.1Z" class="g0_351"/>
<path fill-rule="evenodd" d="M483.1,622.6C471.9,611.4,460.7,600.2,449.5,589.1c1.8,-1.8,3.5,-3.5,5.2,-5.3c1.6,1.6,3.2,3.2,4.7,4.7c-.5,-2.6,-.4,-5.4,.4,-8.2c.7,-2.8,2.3,-5.3,4.6,-7.6c2.6,-2.6,5.1,-4.2,7.8,-4.7c2.7,-.6,5.2,-.4,7.8,.8c-1.3,-6.6,.3,-12.1,4.7,-16.4c3.4,-3.4,7,-5.2,10.6,-5.2c3.7,.1,7.5,2,11.3,5.8c7.7,7.7,15.4,15.4,23.1,23.1c-2,1.9,-3.9,3.8,-5.8,5.8c-7.1,-7.1,-14.1,-14.1,-21.2,-21.2c-2.3,-2.3,-4.1,-3.7,-5.5,-4.4c-1.3,-.6,-2.8,-.7,-4.4,-.3c-1.6,.4,-3.1,1.3,-4.4,2.6c-2.5,2.4,-3.7,5.2,-3.7,8.3c0,3.2,1.7,6.5,5.1,10c6.5,6.5,13.1,13,19.5,19.5c-1.9,1.9,-3.8,3.9,-5.8,5.8C496.3,595,489,587.7,481.7,580.4c-2.5,-2.5,-4.9,-3.9,-7.1,-4.3c-2.2,-.3,-4.4,.6,-6.6,2.8c-1.6,1.7,-2.7,3.5,-3.2,5.8c-.5,2.2,-.4,4.5,.6,6.7c1,2.2,3,4.9,6.1,8c5.8,5.8,11.6,11.6,17.4,17.4c-1.9,2,-3.8,3.9,-5.8,5.8Z" class="g0_351"/>
<path fill-rule="evenodd" d="M551,533.1c2.3,-1.7,4.5,-3.5,6.8,-5.3c2.5,4.4,3.3,8.8,2.7,13.3c-.6,4.5,-3,8.7,-7,12.7c-5,5,-10.5,7.5,-16.5,7.4c-5.9,-.2,-11.7,-2.8,-17.1,-8.3c-5.7,-5.7,-8.5,-11.5,-8.7,-17.6c-.2,-6.1,2.1,-11.5,6.9,-16.3c4.6,-4.6,9.8,-6.9,15.8,-6.7c6,.2,11.7,3,17.3,8.6c.3,.3,.8,.8,1.5,1.5c-8.6,8.5,-17.1,17.1,-25.6,25.6c3.9,3.5,7.8,5.2,11.6,5.3c3.9,.1,7.3,-1.4,10.2,-4.2c2.1,-2.2,3.4,-4.5,3.8,-7.2c.4,-2.6,-.1,-5.5,-1.7,-8.8ZM522.7,543c6.4,-6.4,12.8,-12.8,19.2,-19.2c-3.1,-2.5,-6,-3.9,-8.6,-4.1c-4,-.4,-7.5,1,-10.5,3.9c-2.7,2.7,-4.1,5.8,-4.1,9.4c-.1,3.6,1.2,6.9,4,10Z" class="g0_351"/>
<path fill-rule="evenodd" d="M575.1,530.6C564,519.4,552.8,508.2,541.6,497c1.7,-1.7,3.5,-3.5,5.2,-5.2c1.6,1.6,3.2,3.2,4.8,4.8c-1.2,-6.3,.6,-11.8,5.4,-16.5c2.1,-2.1,4.3,-3.7,6.8,-4.7c2.4,-.9,4.7,-1.3,6.7,-1c2.1,.3,4.1,1.2,6.1,2.4c1.2,.8,3.2,2.6,5.8,5.2c6.9,6.9,13.8,13.8,20.7,20.7c-2,1.9,-3.9,3.9,-5.8,5.8c-6.8,-6.8,-13.7,-13.6,-20.5,-20.4c-2.3,-2.3,-4.3,-3.8,-5.9,-4.6c-1.6,-.7,-3.3,-.7,-5.1,-.3c-1.9,.5,-3.5,1.5,-5.1,3c-2.5,2.5,-3.9,5.4,-4.1,8.8c-.2,3.3,1.7,7.1,6,11.4c6.2,6.2,12.3,12.3,18.4,18.4c-2,1.9,-3.9,3.9,-5.9,5.8Z" class="g0_351"/>
<path fill-rule="evenodd" d="M643.2,462.5C629.6,448.9,616,435.3,602.3,421.6c-5.2,5.2,-10.4,10.5,-15.6,15.7c-1.8,-1.8,-3.7,-3.7,-5.5,-5.5c12.6,-12.5,25.1,-25.1,37.6,-37.6c1.8,1.8,3.7,3.7,5.5,5.5c-5.2,5.2,-10.5,10.4,-15.7,15.7c13.6,13.6,27.3,27.2,40.9,40.9c-2.1,2,-4.2,4.1,-6.3,6.2Z" class="g0_351"/>
<path fill-rule="evenodd" d="M689.1,408.3c-.3,4,-1.1,7.3,-2.4,10c-1.2,2.8,-3,5.3,-5.3,7.6c-3.8,3.8,-7.6,5.7,-11.4,5.9c-3.8,.2,-7.1,-1,-10,-3.8c-1.6,-1.6,-2.7,-3.6,-3.3,-5.7c-.6,-2.1,-.7,-4.2,-.3,-6.3c.4,-2,1.2,-4,2.3,-6c.9,-1.4,2.4,-3.4,4.4,-6c4.1,-5.3,7,-9.4,8.4,-12.4c-.8,-.8,-1.2,-1.3,-1.5,-1.5c-2.3,-2.3,-4.5,-3.4,-6.5,-3.3c-2.8,.2,-5.6,1.8,-8.6,4.8c-2.7,2.7,-4.3,5.2,-4.6,7.4c-.4,2.3,.3,4.9,2.1,7.9c-2.2,1.6,-4.3,3.3,-6.5,4.9C644,409,643,406.2,642.7,403.5c-.3,-2.7,.3,-5.5,1.7,-8.5c1.5,-3.1,3.7,-6,6.7,-9c2.9,-2.9,5.6,-5,8.1,-6.1c2.5,-1.2,4.7,-1.7,6.6,-1.5c1.9,.2,3.8,.8,5.7,2c1.2,.8,3,2.5,5.6,5c2.5,2.5,5,5,7.5,7.6c5.3,5.3,8.8,8.5,10.4,9.6c1.7,1.2,3.5,2,5.5,2.6c-2,2,-4,4.1,-6,6.1c-1.8,-.6,-3.6,-1.6,-5.4,-3ZM676,396.1c-1.3,3,-3.8,6.8,-7.4,11.6c-2,2.8,-3.4,4.8,-3.9,6.3c-.6,1.4,-.8,2.8,-.5,4.1c.3,1.4,.9,2.5,1.9,3.5c1.5,1.5,3.4,2.2,5.6,2c2.2,-.1,4.4,-1.3,6.6,-3.6c2.3,-2.2,3.8,-4.7,4.6,-7.4c.8,-2.7,.8,-5.3,-.1,-7.8c-.7,-1.9,-2.3,-4.1,-4.8,-6.6c-.7,-.7,-1.3,-1.4,-2,-2.1Z" class="g0_351"/>
<path fill-rule="evenodd" d="M707.7,398C696.5,386.8,685.3,375.7,674.1,364.5c1.8,-1.8,3.5,-3.5,5.3,-5.3c1.6,1.6,3.2,3.2,4.8,4.8c-1.3,-6.2,.6,-11.7,5.4,-16.5c2,-2.1,4.3,-3.6,6.8,-4.6c2.4,-1,4.7,-1.4,6.7,-1c2.1,.3,4.1,1.1,6,2.4c1.3,.8,3.3,2.5,5.9,5.2c6.9,6.8,13.8,13.7,20.6,20.6c-1.9,1.9,-3.8,3.9,-5.8,5.8C723,369.1,716.2,362.3,709.4,355.5c-2.3,-2.3,-4.3,-3.8,-5.9,-4.5c-1.6,-.7,-3.3,-.8,-5.2,-.4c-1.8,.5,-3.5,1.5,-5,3.1c-2.5,2.5,-3.9,5.4,-4.1,8.7c-.3,3.4,1.7,7.2,6,11.5c6.1,6.1,12.2,12.2,18.3,18.3c-1.9,1.9,-3.8,3.9,-5.8,5.8Z" class="g0_351"/>
<path fill-rule="evenodd" d="M704.8,321.3c-2.2,-2.1,-4.4,-4.3,-6.5,-6.5c1.9,-2,3.8,-3.9,5.8,-5.8c2.1,2.1,4.3,4.3,6.5,6.5c-1.9,2,-3.9,3.9,-5.8,5.8Zm39.8,39.9C733.4,350,722.2,338.8,711,327.6c2,-2,3.9,-3.9,5.8,-5.9c11.2,11.2,22.4,22.4,33.6,33.6c-1.9,2,-3.9,3.9,-5.8,5.9Z" class="g0_351"/>
<path fill-rule="evenodd" d="M759.3,346.5C748.1,335.3,736.9,324.1,725.7,312.9c1.8,-1.8,3.5,-3.5,5.2,-5.2c1.6,1.5,3.2,3.1,4.7,4.7c-.6,-2.7,-.4,-5.5,.3,-8.3c.8,-2.8,2.4,-5.3,4.7,-7.6c2.5,-2.6,5.1,-4.2,7.8,-4.7c2.7,-.6,5.2,-.3,7.8,.9c-1.3,-6.7,.3,-12.2,4.7,-16.5c3.4,-3.4,6.9,-5.2,10.6,-5.1c3.7,0,7.5,1.9,11.3,5.7c7.7,7.7,15.4,15.4,23,23.1c-1.9,1.9,-3.8,3.9,-5.7,5.8C793,298.6,786,291.6,778.9,284.5c-2.3,-2.2,-4.1,-3.7,-5.5,-4.3c-1.4,-.6,-2.9,-.8,-4.5,-.4c-1.6,.4,-3,1.3,-4.4,2.6c-2.4,2.4,-3.6,5.2,-3.6,8.4c0,3.1,1.7,6.5,5.1,9.9c6.5,6.5,13,13,19.5,19.5c-1.9,2,-3.9,3.9,-5.8,5.8c-7.3,-7.2,-14.5,-14.5,-21.8,-21.8c-2.5,-2.5,-4.9,-3.9,-7.1,-4.2c-2.2,-.4,-4.4,.6,-6.6,2.7c-1.6,1.7,-2.7,3.6,-3.2,5.8c-.6,2.3,-.4,4.5,.6,6.8c1,2.2,3,4.8,6.1,7.9c5.8,5.8,11.6,11.6,17.4,17.4c-1.9,2,-3.9,3.9,-5.8,5.9Z" class="g0_351"/>
<path fill-rule="evenodd" d="M103.3,611.9h48V507.5h-48V611.9Z" class="g1_351"/>
<path fill-rule="evenodd" d="M111.9,598.1h30.8V567.7H111.9v30.4Z" class="g1_351"/>
<path fill-rule="evenodd" d="M152.4,611.9H292.3V507.5H152.4V611.9Z" class="g1_351"/>
<path fill-rule="evenodd" d="M161,567.7H283.7V537.1H161v30.6Z" class="g1_351"/>
<path fill-rule="evenodd" d="M161,598.1H283.7V567.7H161v30.4Z" class="g1_351"/>
<path fill-rule="evenodd" d="M293.4,611.9H911.2V507.5H293.4V611.9Z" class="g1_351"/>
<path fill-rule="evenodd" d="M302,598.1H902.6V567.7H302v30.4Z" class="g1_351"/>
<path fill-rule="evenodd" d="M102.2,521.3h1.1V507.5h-1.1v13.8Z" class="g2_351"/>
<path fill-rule="evenodd" d="M103.3,521.3h48V507.5h-48v13.8Z" class="g1_351"/>
<path fill-rule="evenodd" d="M151.3,521.3h1.1V507.5h-1.1v13.8Z" class="g2_351"/>
<path fill-rule="evenodd" d="M151.3,521.3h141V507.5h-141v13.8Z" class="g1_351"/>
<path fill-rule="evenodd" d="M292.3,521.3h1.1V507.5h-1.1v13.8Z" class="g2_351"/>
<path fill-rule="evenodd" d="M292.3,521.3H911.2V507.5H292.3v13.8Z" class="g1_351"/>
<path fill-rule="evenodd" d="M911.2,521.3h1.1V507.5h-1.1v13.8Z" class="g2_351"/>
<path fill-rule="evenodd" d="M102.7,611.9h49.1V598.1H102.7v13.8Z" class="g1_351"/>
<path fill-rule="evenodd" d="M102.2,611.9h1.1V521.3h-1.1v90.6Z" class="g2_351"/>
<path fill-rule="evenodd" d="M151.8,611.9H292.9V598.1H151.8v13.8Z" class="g1_351"/>
<path fill-rule="evenodd" d="M151.3,611.9h1.1V521.3h-1.1v90.6Z" class="g2_351"/>
<path fill-rule="evenodd" d="M292.9,611.9H911.7V598.1H292.9v13.8Z" class="g1_351"/>
<path fill-rule="evenodd" d="M292.3,611.9h1.1V521.3h-1.1v90.6Z" class="g2_351"/>
<path fill-rule="evenodd" d="M911.2,611.9h1.1V521.3h-1.1v90.6Z" class="g2_351"/>
<path fill-rule="evenodd" d="M103.3,721.9h48v-110h-48v110Z" class="g1_351"/>
<path clip-path="url(#c0_351)" fill-rule="evenodd" d="M111.9,651.7h30.8V621.1H111.9v30.6Z" class="g1_351"/>
<path fill-rule="evenodd" d="M152.4,721.9H292.3v-110H152.4v110Z" class="g1_351"/>
<path clip-path="url(#c1_351)" fill-rule="evenodd" d="M161,651.7H283.7V621.1H161v30.6Z" class="g1_351"/>
<path fill-rule="evenodd" d="M161,682.1H283.7V651.7H161v30.4Z" class="g1_351"/>
<path fill-rule="evenodd" d="M293.4,721.9H911.2v-110H293.4v110Z" class="g1_351"/>
<path clip-path="url(#c2_351)" fill-rule="evenodd" d="M302,651.7H902.6V621.1H302v30.6Z" class="g1_351"/>
<path fill-rule="evenodd" d="M302,682.1H902.6V651.7H302v30.4Z" class="g1_351"/>
<path fill-rule="evenodd" d="M302,712.5H902.6V682.1H302v30.4Z" class="g1_351"/>
<path fill-rule="evenodd" d="M102.2,621.1h1.1v-9.2h-1.1v9.2Z" class="g2_351"/>
<path fill-rule="evenodd" d="M103.3,621.1h48v-9.2h-48v9.2Z" class="g1_351"/>
<path fill-rule="evenodd" d="M151.3,621.1h1.1v-9.2h-1.1v9.2Z" class="g2_351"/>
<path fill-rule="evenodd" d="M152.4,621.1H292.3v-9.2H152.4v9.2Z" class="g1_351"/>
<path fill-rule="evenodd" d="M292.3,621.1h1.1v-9.2h-1.1v9.2Z" class="g2_351"/>
<path fill-rule="evenodd" d="M293.4,621.1H911.2v-9.2H293.4v9.2Z" class="g1_351"/>
<path fill-rule="evenodd" d="M911.2,621.1h1.1v-9.2h-1.1v9.2Z" class="g2_351"/>
<path fill-rule="evenodd" d="M102.7,721.9h49.1v-9.2H102.7v9.2Z" class="g1_351"/>
<path fill-rule="evenodd" d="M102.2,721.9h1.1V621.1h-1.1V721.9Z" class="g2_351"/>
<path fill-rule="evenodd" d="M151.8,721.9H292.9v-9.2H151.8v9.2Z" class="g1_351"/>
<path fill-rule="evenodd" d="M151.3,721.9h1.1V621.1h-1.1V721.9Z" class="g2_351"/>
<path fill-rule="evenodd" d="M292.9,721.9H911.7v-9.2H292.9v9.2Z" class="g1_351"/>
<path fill-rule="evenodd" d="M292.3,721.9h1.1V621.1h-1.1V721.9Z" class="g2_351"/>
<path fill-rule="evenodd" d="M911.2,721.9h1.1V621.1h-1.1V721.9Z" class="g2_351"/>
<path fill-rule="evenodd" d="M103.3,862.3h48V721.9h-48V862.3Z" class="g1_351"/>
<path clip-path="url(#c3_351)" fill-rule="evenodd" d="M111.9,761.7h30.8V731.1H111.9v30.6Z" class="g1_351"/>
<path fill-rule="evenodd" d="M152.4,862.3H292.3V721.9H152.4V862.3Z" class="g1_351"/>
<path clip-path="url(#c4_351)" fill-rule="evenodd" d="M161,761.7H283.7V731.1H161v30.6Z" class="g1_351"/>
<path fill-rule="evenodd" d="M161,792.1H283.7V761.7H161v30.4Z" class="g1_351"/>
<path fill-rule="evenodd" d="M293.4,862.3H911.2V721.9H293.4V862.3Z" class="g1_351"/>
<path clip-path="url(#c5_351)" fill-rule="evenodd" d="M302,761.7H902.6V731.1H302v30.6Z" class="g1_351"/>
<path fill-rule="evenodd" d="M302,792.1H902.6V761.7H302v30.4Z" class="g1_351"/>
<path fill-rule="evenodd" d="M302,822.5H902.6V792.1H302v30.4Z" class="g1_351"/>
<path fill-rule="evenodd" d="M302,853.2H902.6V822.5H302v30.7Z" class="g1_351"/>
<path fill-rule="evenodd" d="M102.2,731.1h1.1v-9.2h-1.1v9.2Z" class="g2_351"/>
<path fill-rule="evenodd" d="M103.3,731.1h48v-9.2h-48v9.2Z" class="g1_351"/>
<path fill-rule="evenodd" d="M151.3,731.1h1.1v-9.2h-1.1v9.2Z" class="g2_351"/>
<path fill-rule="evenodd" d="M152.4,731.1H292.3v-9.2H152.4v9.2Z" class="g1_351"/>
<path fill-rule="evenodd" d="M292.3,731.1h1.1v-9.2h-1.1v9.2Z" class="g2_351"/>
<path fill-rule="evenodd" d="M293.4,731.1H911.2v-9.2H293.4v9.2Z" class="g1_351"/>
<path fill-rule="evenodd" d="M911.2,731.1h1.1v-9.2h-1.1v9.2Z" class="g2_351"/>
<path fill-rule="evenodd" d="M102.7,862.3h49.1v-9.1H102.7v9.1Z" class="g1_351"/>
<path fill-rule="evenodd" d="M102.2,862.3h1.1V731.1h-1.1V862.3Z" class="g2_351"/>
<path fill-rule="evenodd" d="M151.8,862.3H292.9v-9.1H151.8v9.1Z" class="g1_351"/>
<path fill-rule="evenodd" d="M151.3,862.3h1.1V731.1h-1.1V862.3Z" class="g2_351"/>
<path fill-rule="evenodd" d="M292.9,862.3H911.7v-9.1H292.9v9.1Z" class="g1_351"/>
<path fill-rule="evenodd" d="M292.3,862.3h1.1V731.1h-1.1V862.3Z" class="g2_351"/>
<path fill-rule="evenodd" d="M911.2,862.3h1.1V731.1h-1.1V862.3Z" class="g2_351"/>
<path fill-rule="evenodd" d="M103.3,1063.8h48V862.3h-48v201.5Z" class="g1_351"/>
<path fill-rule="evenodd" d="M111.9,902h30.8V871.5H111.9V902Z" class="g1_351"/>
<path fill-rule="evenodd" d="M152.4,1063.8H292.3V862.3H152.4v201.5Z" class="g1_351"/>
<path fill-rule="evenodd" d="M161,902H283.7V871.5H161V902Z" class="g1_351"/>
<path fill-rule="evenodd" d="M161,932.6H283.7V902H161v30.6Z" class="g1_351"/>
<path fill-rule="evenodd" d="M293.4,1063.8H911.2V862.3H293.4v201.5Z" class="g1_351"/>
<path fill-rule="evenodd" d="M302,902H902.6V871.5H302V902Z" class="g1_351"/>
<path fill-rule="evenodd" d="M302,932.6H902.6V902H302v30.6Z" class="g1_351"/>
<path fill-rule="evenodd" d="M302,963H902.6V932.6H302V963Z" class="g1_351"/>
<path fill-rule="evenodd" d="M302,993.6H902.6V963H302v30.6Z" class="g1_351"/>
<path fill-rule="evenodd" d="M302,1024.1H902.6V993.6H302v30.5Z" class="g1_351"/>
<path fill-rule="evenodd" d="M302,1054.7H902.6v-30.6H302v30.6Z" class="g1_351"/>
<path fill-rule="evenodd" d="M102.2,871.5h1.1v-9.2h-1.1v9.2Z" class="g2_351"/>
<path fill-rule="evenodd" d="M103.3,871.5h48v-9.2h-48v9.2Z" class="g1_351"/>
<path fill-rule="evenodd" d="M151.3,871.5h1.1v-9.2h-1.1v9.2Z" class="g2_351"/>
<path fill-rule="evenodd" d="M152.4,871.5H292.3v-9.2H152.4v9.2Z" class="g1_351"/>
<path fill-rule="evenodd" d="M292.3,871.5h1.1v-9.2h-1.1v9.2Z" class="g2_351"/>
<path fill-rule="evenodd" d="M293.4,871.5H911.2v-9.2H293.4v9.2Z" class="g1_351"/>
<path fill-rule="evenodd" d="M911.2,871.5h1.1v-9.2h-1.1v9.2Z" class="g2_351"/>
<path fill-rule="evenodd" d="M102.7,1063.8h49.1v-9.1H102.7v9.1Z" class="g1_351"/>
<path fill-rule="evenodd" d="M102.2,1063.8h1.1V871.5h-1.1v192.3Z" class="g2_351"/>
<path fill-rule="evenodd" d="M151.8,1063.8H292.9v-9.1H151.8v9.1Z" class="g1_351"/>
<path fill-rule="evenodd" d="M151.3,1063.8h1.1V871.5h-1.1v192.3Z" class="g2_351"/>
<path fill-rule="evenodd" d="M292.9,1063.8H911.7v-9.1H292.9v9.1Z" class="g1_351"/>
<path fill-rule="evenodd" d="M292.3,1063.8h1.1V871.5h-1.1v192.3Z" class="g2_351"/>
<path fill-rule="evenodd" d="M911.2,1063.8h1.1V871.5h-1.1v192.3Z" class="g2_351"/>
<image clip-path="url(#c6_351)" preserveAspectRatio="none" x="259" y="204" width="566" height="290" xlink:href="img/1.png"/>
</svg>